<svg width="24" height="24" viewBox="0 0 24 24" fill="none" xmlns="http://www.w3.org/2000/svg">
<path d="M14.7279 5.2711C14.6422 5.18516 14.5404 5.11698 14.4283 5.07046C14.3163 5.02395 14.1961 5 14.0748 5C13.9535 5 13.8334 5.02395 13.7213 5.07046C13.6092 5.11698 13.5074 5.18516 13.4218 5.2711L7.2158 11.4795C7.14739 11.5478 7.09312 11.6289 7.05609 11.7182C7.01906 11.8075 7 11.9032 7 11.9999C7 12.0966 7.01906 12.1923 7.05609 12.2816C7.09312 12.3709 7.14739 12.452 7.2158 12.5203L13.4218 18.7287C13.7833 19.0904 14.3663 19.0904 14.7279 18.7287C15.0895 18.367 15.0895 17.7838 14.7279 17.4221L9.31151 12.0036L14.7353 6.57773C15.0895 6.21601 15.0895 5.63282 14.7279 5.2711V5.2711Z" fill="white" stroke="white"/>
</svg>
