<svg width="50" height="50" viewBox="0 0 50 50" fill="none" xmlns="http://www.w3.org/2000/svg">
<path fill-rule="evenodd" clip-rule="evenodd" d="M7.50006 12.5C7.50006 11.837 7.76345 11.2011 8.23229 10.7322C8.70113 10.2634 9.33702 10 10.0001 10H40.0001C40.6631 10 41.299 10.2634 41.7678 10.7322C42.2367 11.2011 42.5001 11.837 42.5001 12.5C42.5001 13.163 42.2367 13.7989 41.7678 14.2678C41.299 14.7366 40.6631 15 40.0001 15H10.0001C9.33702 15 8.70113 14.7366 8.23229 14.2678C7.76345 13.7989 7.50006 13.163 7.50006 12.5Z" fill="white"/>
<path fill-rule="evenodd" clip-rule="evenodd" d="M7.50006 25C7.50006 24.337 7.76345 23.7011 8.23229 23.2322C8.70113 22.7634 9.33702 22.5 10.0001 22.5H40.0001C40.6631 22.5 41.299 22.7634 41.7678 23.2322C42.2367 23.7011 42.5001 24.337 42.5001 25C42.5001 25.663 42.2367 26.2989 41.7678 26.7678C41.299 27.2366 40.6631 27.5 40.0001 27.5H10.0001C9.33702 27.5 8.70113 27.2366 8.23229 26.7678C7.76345 26.2989 7.50006 25.663 7.50006 25Z" fill="white"/>
<path fill-rule="evenodd" clip-rule="evenodd" d="M7.50006 37.5C7.50006 36.837 7.76345 36.2011 8.23229 35.7322C8.70113 35.2634 9.33702 35 10.0001 35H25.0001C25.6631 35 26.299 35.2634 26.7678 35.7322C27.2367 36.2011 27.5001 36.837 27.5001 37.5C27.5001 38.1631 27.2367 38.7989 26.7678 39.2678C26.299 39.7366 25.6631 40 25.0001 40H10.0001C9.33702 40 8.70113 39.7366 8.23229 39.2678C7.76345 38.7989 7.50006 38.1631 7.50006 37.5Z" fill="white"/>
</svg>
