<svg xmlns="http://www.w3.org/2000/svg" viewBox="0 0 320.34 453.84"><defs><style>.cls-1{fill:#f8efd7;}.cls-2{fill:none;stroke:#00558f;stroke-miterlimit:10;}.cls-3{fill:#00558f;}</style></defs><g id="Layer_2" data-name="Layer 2"><g id="cards"><rect class="cls-1" width="320.34" height="453.84" rx="13.45"/><path class="cls-2" d="M13.45,10A3.46,3.46,0,0,0,10,13.45V440.39a3.46,3.46,0,0,0,3.45,3.45H306.89a3.46,3.46,0,0,0,3.45-3.45V13.45A3.46,3.46,0,0,0,306.89,10Z"/><path class="cls-3" d="M243.6,60.06l-8.35-8.35-8.34,8.35,8.34,8.34Zm16.68-16.69L251.94,35l-8.34,8.34,8.34,8.34ZM85.09,268.63,76.74,277l8.35,8.34L93.43,277Zm116.79,83.42,8.35-8.34-8.35-8.34-8.34,8.34ZM13.45,10A3.47,3.47,0,0,0,11,11l7.33,7.33L26.69,10ZM85.09,68.4l-8.35,8.34,8.35,8.34,8.34-8.34Zm66.74,100.11-8.35,8.35,8.35,8.34,8.34-8.34Zm75.08-91.77-8.34-8.34-8.34,8.34,8.34,8.34Zm-75.08,58.4-8.35,8.34,8.35,8.35,8.34-8.35Zm-33.37-33.37-8.35,8.34,8.35,8.35,8.34-8.35ZM309.33,11a3.47,3.47,0,0,0-2.44-1H293.65L302,18.34ZM85.09,185.2l-8.35,8.34,8.35,8.34,8.34-8.34Zm133.48-33.37,8.34-8.35-8.34-8.34-8.34,8.34Zm-66.74,0-8.35,8.34,8.35,8.34,8.34-8.34ZM85.09,85.08l-8.35,8.35,8.35,8.34,8.34-8.34ZM218.57,185.2l8.34-8.34-8.34-8.35-8.34,8.35ZM160.17,76.74l-8.34-8.34-8.35,8.34,8.35,8.34Zm-8.34,141.83-8.35,8.34,8.35,8.34,8.34-8.34ZM85.09,135.14l-8.35,8.34,8.35,8.35,8.34-8.35ZM76.74,377.08l8.35,8.34,8.34-8.34-8.34-8.34Zm-25-342-8.34,8.34,8.34,8.34,8.35-8.34ZM307,443.82a3.45,3.45,0,0,0,2.29-1L302,435.48l-8.35,8.34Zm-71.79-58.4,8.35-8.34-8.35-8.34-8.34,8.34ZM218.57,201.88l8.34-8.34-8.34-8.34-8.34,8.34ZM151.83,185.2l-8.35,8.34,8.35,8.34,8.34-8.34Zm66.74-16.69,8.34-8.34-8.34-8.34-8.34,8.34ZM110.11,343.71l8.35,8.34,8.34-8.34-8.34-8.34ZM11,442.82a3.43,3.43,0,0,0,2.29,1H26.69l-8.35-8.34ZM151.83,201.88l-8.35,8.35,8.35,8.34,8.34-8.34ZM85.09,285.31l-8.35,8.34L85.09,302l8.34-8.35Zm0-183.54-8.35,8.34,8.35,8.35,8.34-8.35Zm0,16.69-8.35,8.34,8.35,8.34,8.34-8.34ZM293.65,26.69l-8.34-8.35L277,26.69,285.31,35ZM193.54,110.11l-8.34-8.34-8.34,8.34,8.34,8.35ZM85.09,151.83l-8.35,8.34,8.35,8.34,8.34-8.34Zm50-33.37-8.34,8.34,8.34,8.34,8.34-8.34Zm-50,100.11-8.35,8.34,8.35,8.34,8.34-8.34ZM35,18.34l-8.34,8.35L35,35l8.34-8.34ZM93.43,360.4l8.34,8.34,8.34-8.34-8.34-8.35ZM60.06,393.77l8.34,8.34,8.34-8.34-8.34-8.35ZM218.57,135.14l8.34-8.34-8.34-8.34-8.34,8.34ZM185.2,335.37l8.34-8.34-8.34-8.35L176.86,327ZM85.09,201.88l-8.35,8.35,8.35,8.34,8.34-8.34ZM210.23,76.74l-8.35-8.34-8.34,8.34,8.34,8.34Zm0,16.69-8.35-8.35-8.34,8.35,8.34,8.34Zm8.34,8.34,8.34-8.34-8.34-8.35-8.34,8.35Zm33.37,300.34,8.34-8.34-8.34-8.35-8.34,8.35Zm-150.17-317-8.34,8.35,8.34,8.34,8.34-8.34Zm25-8.34-8.34-8.34-8.35,8.34,8.35,8.34Zm0,250.29,8.34,8.34,8.34-8.34-8.34-8.35ZM193.54,76.74,185.2,68.4l-8.34,8.34,8.34,8.34ZM68.4,51.71l-8.34,8.35L68.4,68.4l8.34-8.34Zm75.08,258.63,8.35,8.34,8.34-8.34L151.83,302ZM285.31,435.48l8.34-8.34-8.34-8.34L277,427.14Zm-66.74-66.74,8.34-8.34-8.34-8.35-8.34,8.35ZM151.83,235.25l-8.35,8.35,8.35,8.34,8.34-8.34ZM85.09,251.94l-8.35,8.34,8.35,8.35,8.34-8.35Zm91.77-175.2-8.35-8.34-8.34,8.34,8.34,8.34Zm0,50.06-8.35-8.34-8.34,8.34,8.34,8.34Zm41.71-8.34,8.34-8.35-8.34-8.34-8.34,8.34ZM143.48,76.74l-8.34-8.34-8.34,8.34,8.34,8.34ZM85.09,235.25l-8.35,8.35,8.35,8.34,8.34-8.34ZM43.37,410.45l8.34,8.35,8.35-8.35-8.35-8.34ZM110.11,76.74l-8.34-8.34-8.34,8.34,8.34,8.34Zm-25,91.77-8.35,8.35,8.35,8.34,8.34-8.34Zm83.42,150.17,8.35-8.34L168.51,302l-8.34,8.34ZM26.69,427.14,35,435.48l8.34-8.34L35,418.8Zm241.94-8.34,8.34-8.35-8.34-8.34-8.35,8.34ZM201.88,201.88l8.35-8.34-8.35-8.34-8.34,8.34ZM185.2,251.94l8.34-8.34-8.34-8.35-8.34,8.35Zm16.68-33.37,8.35-8.34-8.35-8.35-8.34,8.35Zm0-33.37,8.35-8.34-8.35-8.35-8.34,8.35ZM185.2,268.63l8.34-8.35-8.34-8.34-8.34,8.34Zm0-33.38,8.34-8.34-8.34-8.34-8.34,8.34Zm16.68,33.38,8.35-8.35-8.35-8.34-8.34,8.34Zm0-100.12,8.35-8.34-8.35-8.34-8.34,8.34ZM185.2,201.88l8.34-8.34-8.34-8.34-8.34,8.34Zm16.68,33.37,8.35-8.34-8.35-8.34-8.34,8.34Zm-50,16.69-8.35,8.34,8.35,8.35,8.34-8.35Zm50,0,8.35-8.34-8.35-8.35-8.34,8.35ZM185.2,218.57l8.34-8.34-8.34-8.35-8.34,8.35ZM143.48,93.43l-8.34-8.35-8.34,8.35,8.34,8.34ZM185.2,285.31l8.34-8.34-8.34-8.34L176.86,277ZM143.48,327l8.35,8.34,8.34-8.34-8.34-8.35Zm33.38-233.6-8.35-8.35-8.34,8.35,8.34,8.34Zm-16.69,0-8.34-8.35-8.35,8.35,8.35,8.34Zm25,91.77,8.34-8.34-8.34-8.35-8.34,8.35ZM135.14,302l-8.34,8.34,8.34,8.34,8.34-8.34Zm25,25,8.34,8.34,8.35-8.34-8.35-8.35Zm41.71-191.89,8.35-8.34-8.35-8.34-8.34,8.34Zm-8.34-41.71-8.34-8.35-8.34,8.35,8.34,8.34ZM185.2,302l8.34-8.35-8.34-8.34-8.34,8.34Zm16.68-150.17,8.35-8.35-8.35-8.34-8.34,8.34Zm0-33.37,8.35-8.35-8.35-8.34-8.34,8.34ZM185.2,318.68l8.34-8.34L185.2,302l-8.34,8.34Zm16.68-33.37,8.35-8.34-8.35-8.34L193.54,277Zm-83.42-33.37-8.35,8.34,8.35,8.35,8.34-8.35Zm0,33.37-8.35,8.34,8.35,8.35,8.34-8.35Zm0-16.68L110.11,277l8.35,8.34L126.8,277Zm0-133.49-8.35,8.34,8.35,8.35,8.34-8.35ZM201.88,302l8.35-8.35-8.35-8.34-8.34,8.34ZM118.46,118.46l-8.35,8.34,8.35,8.34,8.34-8.34Zm0,183.54-8.35,8.34,8.35,8.34,8.34-8.34Zm0-150.17-8.35,8.34,8.35,8.34,8.34-8.34Zm0,33.37-8.35,8.34,8.35,8.34,8.34-8.34Zm0,16.68-8.35,8.35,8.35,8.34,8.34-8.34Zm0,16.69-8.35,8.34,8.35,8.34,8.34-8.34Zm0,16.68-8.35,8.35,8.35,8.34,8.34-8.34Zm0-66.74-8.35,8.35,8.35,8.34,8.34-8.34Zm25-58.4-8.34-8.34-8.34,8.34,8.34,8.35Zm-25,208.57L110.11,327l8.35,8.34L126.8,327Zm83.42,16.69,8.35-8.34-8.35-8.35L193.54,327ZM185.2,135.14l8.34-8.34-8.34-8.34-8.34,8.34Zm-8.34,208.57,8.34,8.34,8.34-8.34-8.34-8.34Zm25-25,8.35-8.34L201.88,302l-8.34,8.34ZM185.2,168.51l8.34-8.34-8.34-8.34-8.34,8.34Zm0-16.68,8.34-8.35-8.34-8.34-8.34,8.34ZM126.8,343.71l8.34,8.34,8.34-8.34-8.34-8.34Zm33.37-233.6-8.34-8.34-8.35,8.34,8.35,8.35Zm16.69,0-8.35-8.34-8.34,8.34,8.34,8.35Zm-16.69,233.6,8.34,8.34,8.35-8.34-8.35-8.34Zm-16.69,0,8.35,8.34,8.34-8.34-8.34-8.34ZM126.8,93.43l-8.34-8.35-8.35,8.35,8.35,8.34Zm41.71,141.82,8.35-8.34-8.35-8.34-8.34,8.34Zm50.06,83.43,8.34-8.34L218.57,302l-8.34,8.34Zm0,33.37,8.34-8.34-8.34-8.34-8.34,8.34Zm0-16.68,8.34-8.34-8.34-8.35L210.23,327Zm-50.06-83.43,8.35-8.34-8.35-8.35-8.34,8.35Zm0-33.37,8.35-8.34-8.35-8.35-8.34,8.35Zm25,141.83,8.34,8.34,8.35-8.34-8.35-8.35Zm-50.06,0,8.35,8.34,8.34-8.34-8.34-8.35Zm25-175.2,8.35-8.34-8.35-8.35-8.34,8.35ZM135.14,285.31l-8.34,8.34,8.34,8.35,8.34-8.35Zm41.72,75.09,8.34,8.34,8.34-8.34-8.34-8.35Zm-8.35-158.52,8.35-8.34-8.35-8.34-8.34,8.34ZM160.17,360.4l8.34,8.34,8.35-8.34-8.35-8.35Zm58.4-58.4,8.34-8.35-8.34-8.34-8.34,8.34Zm-66.74-16.69-8.35,8.34,8.35,8.35,8.34-8.35Zm16.68-16.68,8.35-8.35-8.35-8.34-8.34,8.34Zm0,33.37,8.35-8.35-8.35-8.34-8.34,8.34Zm50.06-50.06,8.34-8.34-8.34-8.35-8.34,8.35Zm0-33.37,8.34-8.34-8.34-8.35-8.34,8.35Zm-66.74,50.06L143.48,277l8.35,8.34,8.34-8.34Zm66.74-33.38,8.34-8.34-8.34-8.34-8.34,8.34Zm-50.06,50.06,8.35-8.34-8.35-8.34L160.17,277Zm0-116.8,8.35-8.34-8.35-8.34-8.34,8.34Zm50.06,100.12,8.34-8.35-8.34-8.34-8.34,8.34ZM85.09,302l-8.35,8.34,8.35,8.34,8.34-8.34Zm133.48-16.69,8.34-8.34-8.34-8.34L210.23,277ZM126.8,360.4l8.34,8.34,8.34-8.34-8.34-8.35Zm-16.69,0,8.35,8.34,8.34-8.34-8.34-8.35Zm25-125.15-8.34,8.35,8.34,8.34,8.34-8.34Zm-33.37-66.74-8.34,8.35,8.34,8.34,8.34-8.34Zm0,50.06-8.34,8.34,8.34,8.34,8.34-8.34Zm33.37-16.69-8.34,8.35,8.34,8.34,8.34-8.34Zm-33.37,0-8.34,8.35,8.34,8.34,8.34-8.34Zm33.37,16.69-8.34,8.34,8.34,8.34,8.34-8.34ZM101.77,118.46l-8.34,8.34,8.34,8.34,8.34-8.34Zm0-16.69-8.34,8.34,8.34,8.35,8.34-8.35Zm33.37,166.86L126.8,277l8.34,8.34,8.34-8.34Zm0-16.69-8.34,8.34,8.34,8.35,8.34-8.35Zm-33.37-116.8-8.34,8.34,8.34,8.35,8.34-8.35Zm0,16.69-8.34,8.34,8.34,8.34,8.34-8.34Zm0,33.37-8.34,8.34,8.34,8.34,8.34-8.34Zm0,116.8-8.34,8.34,8.34,8.34,8.34-8.34Zm0-16.69-8.34,8.34,8.34,8.35,8.34-8.35Zm0,33.37L93.43,327l8.34,8.34,8.34-8.34Zm33.37-183.54-8.34,8.34,8.34,8.35,8.34-8.35ZM101.77,335.37l-8.34,8.34,8.34,8.34,8.34-8.34ZM135.14,185.2l-8.34,8.34,8.34,8.34,8.34-8.34Zm25-58.4-8.34-8.34-8.35,8.34,8.35,8.34Zm-58.4,125.14-8.34,8.34,8.34,8.35,8.34-8.35Zm33.37-100.11-8.34,8.34,8.34,8.34,8.34-8.34Zm-33.37,83.42-8.34,8.35,8.34,8.34,8.34-8.34Zm33.37-66.74-8.34,8.35,8.34,8.34,8.34-8.34ZM101.77,268.63,93.43,277l8.34,8.34,8.34-8.34Zm66.74-116.8,8.35-8.35-8.35-8.34-8.34,8.34Zm116.8,216.91,8.34-8.34-8.34-8.35L277,360.4Zm0-16.69,8.34-8.34-8.34-8.34L277,343.71Zm0,66.75,8.34-8.35-8.34-8.34L277,410.45Zm0-16.69,8.34-8.34-8.34-8.35L277,393.77Zm0-16.69,8.34-8.34-8.34-8.34L277,377.08Zm0-100.11,8.34-8.34-8.34-8.34L277,277Zm0,16.69,8.34-8.35-8.34-8.34L277,293.65Zm0,16.68,8.34-8.34L285.31,302,277,310.34Zm0,16.69,8.34-8.34-8.34-8.35L277,327Zm-25,91.77,8.35,8.34,8.34-8.34-8.34-8.34Zm-100.11,0,8.34,8.34,8.35-8.34-8.35-8.34Zm-50.06,0,8.35,8.34,8.34-8.34-8.34-8.34Zm16.69,0,8.34,8.34,8.34-8.34-8.34-8.34ZM285.31,268.63l8.34-8.35-8.34-8.34L277,260.28ZM226.91,10H210.23l8.34,8.34ZM243.6,427.14l8.34,8.34,8.34-8.34-8.34-8.34Zm-16.69,0,8.34,8.34,8.35-8.34-8.35-8.34Zm-16.68,0,8.34,8.34,8.34-8.34-8.34-8.34Zm-16.69,0,8.34,8.34,8.35-8.34-8.35-8.34Zm-50.06,0,8.35,8.34,8.34-8.34-8.34-8.34ZM285.31,68.4l8.34-8.34-8.34-8.35L277,60.06Zm-8.34-25,8.34,8.34,8.34-8.34L285.31,35Zm8.34,41.71,8.34-8.34-8.34-8.34L277,76.74Zm0,16.69,8.34-8.34-8.34-8.35L277,93.43ZM302,35l8.34-8.34L302,18.34l-8.35,8.35ZM260.28,10H243.6l8.34,8.34ZM243.6,10H226.91l8.34,8.34ZM277,10H260.28l8.35,8.34Zm16.68,0H277l8.34,8.34Zm-8.34,191.88,8.34-8.34-8.34-8.34L277,193.54Zm0,16.69,8.34-8.34-8.34-8.35L277,210.23Zm0,33.37,8.34-8.34-8.34-8.35L277,243.6Zm0-133.48,8.34-8.35-8.34-8.34L277,110.11Zm0,116.79,8.34-8.34-8.34-8.34L277,226.91Zm0-50.05,8.34-8.34-8.34-8.35L277,176.86Zm0-50.06,8.34-8.34-8.34-8.34L277,126.8Zm0,33.37,8.34-8.34-8.34-8.34L277,160.17Zm0-16.68,8.34-8.35-8.34-8.34L277,143.48ZM176.86,427.14l8.34,8.34,8.34-8.34-8.34-8.34ZM76.74,26.69,68.4,18.34l-8.34,8.35L68.4,35ZM35,68.4l-8.34,8.34L35,85.08l8.34-8.34Zm0-16.69-8.34,8.35L35,68.4l8.34-8.34Zm0,100.12-8.34,8.34L35,168.51l8.34-8.34ZM35,35l-8.34,8.34L35,51.71l8.34-8.34Zm0,83.43-8.34,8.34L35,135.14l8.34-8.34Zm0-33.38-8.34,8.35L35,101.77l8.34-8.34Zm0,50.06-8.34,8.34L35,151.83l8.34-8.35Zm0-33.37-8.34,8.34L35,118.46l8.34-8.35Zm25-75.08-8.35-8.35-8.34,8.35L51.71,35Zm133.48,0-8.34-8.35-8.34,8.35L185.2,35Zm-16.68,0-8.35-8.35-8.34,8.35L168.51,35Zm33.37,0-8.35-8.35-8.34,8.35L201.88,35Zm-116.8,0-8.34-8.35-8.35,8.35L85.09,35Zm133.48,0-8.34-8.35-8.34,8.35L218.57,35Zm-66.74,0-8.34-8.35-8.35,8.35L151.83,35Zm-50.06,0-8.34-8.35-8.34,8.35L101.77,35Zm16.69,0-8.34-8.35-8.35,8.35L118.46,35Zm16.68,0-8.34-8.35-8.34,8.35L135.14,35ZM35,335.37l-8.34,8.34L35,352.05l8.34-8.34Zm0,33.37-8.34,8.34L35,385.42l8.34-8.34Zm0,16.68-8.34,8.35L35,402.11l8.34-8.34Zm0-33.37-8.34,8.35L35,368.74l8.34-8.34Zm58.4,75.09,8.34,8.34,8.34-8.34-8.34-8.34ZM35,318.68,26.69,327,35,335.37,43.37,327ZM76.74,427.14l8.35,8.34,8.34-8.34-8.34-8.34Zm-16.68,0,8.34,8.34,8.34-8.34L68.4,418.8ZM35,168.51l-8.34,8.35L35,185.2l8.34-8.34Zm0,233.6-8.34,8.34L35,418.8l8.34-8.35Zm8.34,25,8.34,8.34,8.35-8.34-8.35-8.34ZM35,302l-8.34,8.34L35,318.68l8.34-8.34Zm0-100.12-8.34,8.35L35,218.57l8.34-8.34Zm0,33.37-8.34,8.35L35,251.94l8.34-8.34Zm0-50.05-8.34,8.34L35,201.88l8.34-8.34Zm0,33.37-8.34,8.34L35,235.25l8.34-8.34Zm0,66.74-8.34,8.34L35,302l8.34-8.35Zm0-33.37-8.34,8.34L35,268.63l8.34-8.35Zm0,16.69L26.69,277,35,285.31,43.37,277ZM226.91,443.82H243.6l-8.35-8.34Zm33.37,0H277l-8.34-8.34Zm16.69,0h16.68l-8.34-8.34Zm-33.37,0h16.68l-8.34-8.34Zm0-417.13-8.35-8.35-8.34,8.35L235.25,35ZM302,435.48l8.34-8.34L302,418.8l-8.35,8.34Zm0-50.06,8.34-8.34L302,368.74l-8.35,8.34Zm0,33.38,8.34-8.35L302,402.11l-8.35,8.34Zm-241.94,25H76.74l-8.34-8.34ZM302,402.11l8.34-8.34L302,385.42l-8.35,8.35ZM160.17,443.82h16.69l-8.35-8.34Zm-66.74,0h16.68l-8.34-8.34Zm33.37,0h16.68l-8.34-8.34Zm-16.69,0H126.8l-8.34-8.34Zm-33.37,0H93.43l-8.34-8.34Zm100.12,0h16.68l-8.34-8.34Zm33.37,0h16.68l-8.34-8.34Zm-66.75,0h16.69l-8.34-8.34Zm50.06,0h16.69l-8.35-8.34ZM302,352.05l8.34-8.34L302,335.37l-8.35,8.34Zm0,16.69,8.34-8.34L302,352.05l-8.35,8.35Zm0-183.54,8.34-8.34L302,168.51l-8.35,8.35Zm0,150.17,8.34-8.34L302,318.68,293.65,327Zm0-183.54,8.34-8.35L302,135.14l-8.35,8.34Zm0,16.68,8.34-8.34L302,151.83l-8.35,8.34Zm0-50,8.34-8.35L302,101.77l-8.35,8.34ZM302,35l-8.35,8.34L302,51.71l8.34-8.34Zm0,66.74,8.34-8.34L302,85.08l-8.35,8.35Zm0-33.37,8.34-8.34L302,51.71l-8.35,8.35Zm0,16.68,8.34-8.34L302,68.4l-8.35,8.34ZM85.09,318.68,76.74,327l8.35,8.34L93.43,327ZM302,285.31l8.34-8.34L302,268.63,293.65,277ZM302,302l8.34-8.35L302,285.31l-8.35,8.34Zm0,16.68,8.34-8.34L302,302l-8.35,8.34Zm0-50.05,8.34-8.35L302,251.94l-8.35,8.34Zm0-33.38,8.34-8.34L302,218.57l-8.35,8.34Zm0-16.68,8.34-8.34L302,201.88l-8.35,8.35Zm0-16.69,8.34-8.34L302,185.2l-8.35,8.34Zm0,50.06,8.34-8.34L302,235.25l-8.35,8.35ZM18.34,51.71,10,60.06l8.34,8.34,8.35-8.34ZM60.06,10H43.37l8.34,8.34Zm150.17,0H193.54l8.34,8.34ZM43.37,443.82H60.06l-8.35-8.34ZM43.37,10H26.69L35,18.34Zm-25,25L10,43.37l8.34,8.34,8.35-8.34Zm0,66.74L10,110.11l8.34,8.35,8.35-8.35Zm0,16.69L10,126.8l8.34,8.34,8.35-8.34Zm0-33.38L10,93.43l8.34,8.34,8.35-8.34Zm0-16.68L10,76.74l8.34,8.34,8.35-8.34ZM110.11,10H93.43l8.34,8.34Zm50.06,0H143.48l8.35,8.34Zm16.69,0H160.17l8.34,8.34Zm-33.38,0H126.8l8.34,8.34ZM76.74,10H60.06l8.34,8.34Zm116.8,0H176.86l8.34,8.34ZM93.43,10H76.74l8.35,8.34ZM18.34,135.14,10,143.48l8.34,8.35,8.35-8.35ZM126.8,10H110.11l8.35,8.34ZM18.34,18.34,10,26.69,18.34,35l8.35-8.34Zm0,317L10,343.71l8.34,8.34,8.35-8.34Zm0-183.54L10,160.17l8.34,8.34,8.35-8.34Zm0,200.22L10,360.4l8.34,8.34,8.35-8.34Zm0-33.37L10,327l8.34,8.34L26.69,327Zm0,66.74L10,393.77l8.34,8.34,8.35-8.34Zm8.35,58.4H43.37L35,435.48ZM18.34,302,10,310.34l8.34,8.34,8.35-8.34Zm0,116.8L10,427.14l8.34,8.34,8.35-8.34Zm0-16.69L10,410.45l8.34,8.35,8.35-8.35Zm0-33.37L10,377.08l8.34,8.34,8.35-8.34Zm0-183.54L10,193.54l8.34,8.34,8.35-8.34Zm0,33.37L10,226.91l8.34,8.34,8.35-8.34Zm0-16.69L10,210.23l8.34,8.34,8.35-8.34Zm0-33.37L10,176.86l8.34,8.34,8.35-8.34Zm0,100.12L10,277l8.34,8.34L26.69,277Zm0-33.38L10,243.6l8.34,8.34,8.35-8.34Zm0,50.06L10,293.65,18.34,302l8.35-8.35Zm0-33.37L10,260.28l8.34,8.35,8.35-8.35ZM302,135.14l8.34-8.34L302,118.46l-8.35,8.34ZM68.4,285.31l-8.34,8.34L68.4,302l8.34-8.35Zm0,33.37L60.06,327l8.34,8.34L76.74,327Zm0-16.68-8.34,8.34,8.34,8.34,8.34-8.34Zm0-33.37L60.06,277l8.34,8.34L76.74,277Zm0-16.69-8.34,8.34,8.34,8.35,8.34-8.35Zm0,116.8-8.34,8.34,8.34,8.34,8.34-8.34Zm8.34,25,8.35,8.34,8.34-8.34-8.34-8.35Zm-8.34-58.4-8.34,8.34,8.34,8.34,8.34-8.34Zm0,16.68-8.34,8.35,8.34,8.34,8.34-8.34Zm0-183.54-8.34,8.35,8.34,8.34,8.34-8.34Zm0-33.37-8.34,8.34,8.34,8.35,8.34-8.35Zm0-16.68-8.34,8.34,8.34,8.34,8.34-8.34Zm0-16.69-8.34,8.34,8.34,8.35,8.34-8.35Zm0,50.06-8.34,8.34,8.34,8.34,8.34-8.34Zm25,241.94,8.34,8.34,8.34-8.34-8.34-8.35Zm-25-191.89-8.34,8.35,8.34,8.34,8.34-8.34Zm0,16.69-8.34,8.34,8.34,8.34,8.34-8.34Zm0,16.68-8.34,8.35,8.34,8.34,8.34-8.34Zm0-150.17-8.34,8.35,8.34,8.34,8.34-8.34Zm0,100.12-8.34,8.34,8.34,8.34,8.34-8.34ZM251.94,318.68l8.34-8.34L251.94,302l-8.34,8.34Zm0,50.06,8.34-8.34-8.34-8.35-8.34,8.35Zm0-16.69,8.34-8.34-8.34-8.34-8.34,8.34Zm0-50.05,8.34-8.35-8.34-8.34-8.34,8.34Zm0,33.37,8.34-8.34-8.34-8.35L243.6,327Zm0-83.43,8.34-8.34-8.34-8.35-8.34,8.35Zm0-16.69,8.34-8.34-8.34-8.34-8.34,8.34Zm0,50.06,8.34-8.34-8.34-8.34L243.6,277Zm0-16.68,8.34-8.35-8.34-8.34-8.34,8.34ZM210.23,393.77l8.34,8.34,8.34-8.34-8.34-8.35Zm-66.75,0,8.35,8.34,8.34-8.34-8.34-8.35Zm16.69,0,8.34,8.34,8.35-8.34-8.35-8.35Zm-33.37,0,8.34,8.34,8.34-8.34-8.34-8.35Zm50.06,0,8.34,8.34,8.34-8.34-8.34-8.35Zm50,0,8.34,8.34,8.35-8.34-8.35-8.35Zm-33.37,0,8.34,8.34,8.35-8.34-8.35-8.35Zm58.4-8.35,8.34-8.34-8.34-8.34-8.34,8.34Zm-141.83,8.35,8.35,8.34,8.34-8.34-8.34-8.35Zm0-16.69,8.35,8.34,8.34-8.34-8.34-8.34ZM235.25,235.25l8.35-8.34-8.35-8.34-8.34,8.34Zm0,100.12L243.6,327l-8.35-8.35L226.91,327Zm-25,41.71,8.34,8.34,8.34-8.34-8.34-8.34Zm25-8.34,8.35-8.34-8.35-8.35-8.34,8.35Zm0-50.06,8.35-8.34L235.25,302l-8.34,8.34Zm0-66.74,8.35-8.34-8.35-8.35-8.34,8.35Zm0,50.06,8.35-8.35-8.35-8.34-8.34,8.34Zm0-33.37,8.35-8.35-8.35-8.34-8.34,8.34Zm0,16.68L243.6,277l-8.35-8.34L226.91,277Zm0,66.74,8.35-8.34-8.35-8.34-8.34,8.34Zm-150.16,0-8.35,8.35,8.35,8.34,8.34-8.34ZM251.94,218.57l8.34-8.34-8.34-8.35-8.34,8.35ZM93.43,377.08l8.34,8.34,8.34-8.34-8.34-8.34Zm-8.34-41.71-8.35,8.34,8.35,8.34,8.34-8.34Zm91.77,41.71,8.34,8.34,8.34-8.34-8.34-8.34Zm16.68,0,8.34,8.34,8.35-8.34-8.35-8.34Zm-33.37,0,8.34,8.34,8.35-8.34-8.35-8.34Zm-33.37,0,8.34,8.34,8.34-8.34-8.34-8.34Zm16.68,0,8.35,8.34,8.34-8.34-8.34-8.34Zm91.77-275.31,8.35-8.34-8.35-8.35-8.34,8.35ZM193.54,60.06l-8.34-8.35-8.34,8.35,8.34,8.34Zm41.71,158.51,8.35-8.34-8.35-8.35-8.34,8.35ZM226.91,60.06l-8.34-8.35-8.34,8.35,8.34,8.34Zm-16.68,0-8.35-8.35-8.34,8.35,8.34,8.34Zm-33.37,0-8.35-8.35-8.34,8.35,8.34,8.34Zm-33.38,0-8.34-8.35-8.34,8.35,8.34,8.34Zm-50,0-8.34-8.35-8.35,8.35,8.35,8.34Zm16.68,0-8.34-8.35-8.34,8.35,8.34,8.34Zm16.69,0-8.34-8.35-8.35,8.35,8.35,8.34Zm33.37,0-8.34-8.35-8.35,8.35,8.35,8.34Zm75.08,108.45,8.35-8.34-8.35-8.34-8.34,8.34Zm0-16.68,8.35-8.35-8.35-8.34-8.34,8.34Zm0,33.37,8.35-8.34-8.35-8.35-8.34,8.35Zm0,16.68,8.35-8.34-8.35-8.34-8.34,8.34Zm0-66.74,8.35-8.34-8.35-8.34-8.34,8.34Zm0-50.06,8.35-8.34-8.35-8.34-8.34,8.34ZM68.4,68.4l-8.34,8.34,8.34,8.34,8.34-8.34Zm166.85,50.06,8.35-8.35-8.35-8.34-8.34,8.34ZM51.71,68.4l-8.34,8.34,8.34,8.34,8.35-8.34Zm158.52,342,8.34,8.35,8.34-8.35-8.34-8.34Zm16.68,0,8.34,8.35,8.35-8.35-8.35-8.34Zm16.69,0,8.34,8.35,8.34-8.35-8.34-8.34Zm-66.74,0,8.34,8.35,8.34-8.35-8.34-8.34Zm16.68,0,8.34,8.35,8.35-8.35-8.35-8.34Zm75.09-41.71L277,360.4l-8.34-8.35-8.35,8.35Zm0-33.37L277,327l-8.34-8.35L260.28,327Zm0,16.68,8.34-8.34-8.34-8.34-8.35,8.34Zm0,33.37,8.34-8.34-8.34-8.34-8.35,8.34Zm0,16.69,8.34-8.34-8.34-8.35-8.35,8.35ZM60.06,410.45l8.34,8.35,8.34-8.35-8.34-8.34Zm16.68,0,8.35,8.35,8.34-8.35-8.34-8.34Zm-25-25-8.34,8.35,8.34,8.34,8.35-8.34Zm0-16.68-8.34,8.34,8.34,8.34,8.35-8.34Zm41.72,41.71,8.34,8.35,8.34-8.35-8.34-8.34Zm66.74,0,8.34,8.35,8.35-8.35-8.35-8.34Zm-33.37,0,8.34,8.35,8.34-8.35-8.34-8.34Zm16.68,0,8.35,8.35,8.34-8.35-8.34-8.34Zm-33.37,0,8.35,8.35,8.34-8.35-8.34-8.34ZM268.63,218.57l8.34-8.34-8.34-8.35-8.35,8.35Zm0-100.11,8.34-8.35-8.34-8.34-8.35,8.34Zm0,16.68L277,126.8l-8.34-8.34-8.35,8.34Zm0,16.69,8.34-8.35-8.34-8.34-8.35,8.34Zm0-50.06L277,93.43l-8.34-8.35-8.35,8.35ZM277,26.69l-8.34-8.35-8.35,8.35L268.63,35Zm-8.34,141.82,8.34-8.34-8.34-8.34-8.35,8.34Zm0-83.43L277,76.74l-8.34-8.34-8.35,8.34Zm-8.35-41.71,8.35,8.34L277,43.37,268.63,35Zm8.35,275.31,8.34-8.34L268.63,302l-8.35,8.34Zm0-250.28L277,60.06l-8.34-8.35-8.35,8.35Zm0,183.54L277,243.6l-8.34-8.35-8.35,8.35Zm0,16.69,8.34-8.35-8.34-8.34-8.35,8.34Zm0,16.68L277,277l-8.34-8.34L260.28,277Zm0,16.69,8.34-8.35-8.34-8.34-8.35,8.34ZM51.71,352.05l-8.34,8.35,8.34,8.34,8.35-8.34ZM268.63,201.88l8.34-8.34-8.34-8.34-8.35,8.34Zm0-16.68,8.34-8.34-8.34-8.35-8.35,8.35Zm0,50.05,8.34-8.34-8.34-8.34-8.35,8.34ZM51.71,285.31l-8.34,8.34L51.71,302l8.35-8.35ZM193.54,43.37,185.2,35l-8.34,8.34,8.34,8.34Zm16.69,0L201.88,35l-8.34,8.34,8.34,8.34Zm16.68,0L218.57,35l-8.34,8.34,8.34,8.34Zm16.69,0L235.25,35l-8.34,8.34,8.34,8.34Zm-66.74,0L168.51,35l-8.34,8.34,8.34,8.34Zm-50.06,0L118.46,35l-8.35,8.34,8.35,8.34Zm-16.69,0L101.77,35l-8.34,8.34,8.34,8.34Zm33.37,0L135.14,35l-8.34,8.34,8.34,8.34Zm16.69,0L151.83,35l-8.35,8.34,8.35,8.34Zm91.77,91.77,8.34-8.34-8.34-8.34-8.34,8.34ZM51.71,335.37l-8.34,8.34,8.34,8.34,8.35-8.34ZM251.94,168.51l8.34-8.34-8.34-8.34-8.34,8.34Zm0-16.68,8.34-8.35-8.34-8.34-8.34,8.34Zm0-83.43,8.34-8.34-8.34-8.35-8.34,8.35Zm0,116.8,8.34-8.34-8.34-8.35-8.34,8.35Zm0-100.12,8.34-8.34-8.34-8.34-8.34,8.34Zm0,16.69,8.34-8.34-8.34-8.35-8.34,8.35Zm0,16.69,8.34-8.35-8.34-8.34-8.34,8.34ZM93.43,43.37,85.09,35l-8.35,8.34,8.35,8.34ZM51.71,218.57l-8.34,8.34,8.34,8.34,8.35-8.34Zm0,33.37-8.34,8.34,8.34,8.35,8.35-8.35Zm0-16.69-8.34,8.35,8.34,8.34,8.35-8.34Zm0-50.05-8.34,8.34,8.34,8.34,8.35-8.34Zm0,16.68-8.34,8.35,8.34,8.34,8.35-8.34Zm0,116.8L43.37,327l8.34,8.34L60.06,327Zm0-50.05L43.37,277l8.34,8.34L60.06,277Zm0,33.37-8.34,8.34,8.34,8.34,8.35-8.34ZM251.94,201.88l8.34-8.34-8.34-8.34-8.34,8.34ZM51.71,51.71l-8.34,8.35,8.34,8.34,8.35-8.34Zm0,50.06-8.34,8.34,8.34,8.35,8.35-8.35ZM260.28,26.69l-8.34-8.35-8.34,8.35L251.94,35ZM51.71,85.08l-8.34,8.35,8.34,8.34,8.35-8.34Zm25-41.71L68.4,35l-8.34,8.34,8.34,8.34Zm-25,125.14-8.34,8.35,8.34,8.34,8.35-8.34Zm0-16.68-8.34,8.34,8.34,8.34,8.35-8.34Zm0-16.69-8.34,8.34,8.34,8.35,8.35-8.35Zm0-16.68-8.34,8.34,8.34,8.34,8.35-8.34Z"/></g></g></svg>