<svg xmlns="http://www.w3.org/2000/svg" xmlns:xlink="http://www.w3.org/1999/xlink" viewBox="0 0 320.34 453.84"><defs><style>.cls-1,.cls-3,.cls-5{fill:none;}.cls-2{fill:#f8efd7;}.cls-3{stroke:#58595b;}.cls-3,.cls-5{stroke-miterlimit:10;}.cls-4{clip-path:url(#clip-path);}.cls-5{stroke:#231f20;stroke-width:1.01px;}.cls-6{fill:#231f20;}</style><clipPath id="clip-path"><path class="cls-1" d="M13.45,10A3.46,3.46,0,0,0,10,13.45V440.39a3.46,3.46,0,0,0,3.45,3.45H306.89a3.46,3.46,0,0,0,3.45-3.45V13.45A3.46,3.46,0,0,0,306.89,10Z"/></clipPath></defs><g id="Layer_2" data-name="Layer 2"><g id="cards"><rect class="cls-2" width="320.34" height="453.84" rx="13.45"/><path class="cls-3" d="M13.45,10A3.46,3.46,0,0,0,10,13.45V440.39a3.46,3.46,0,0,0,3.45,3.45H306.89a3.46,3.46,0,0,0,3.45-3.45V13.45A3.46,3.46,0,0,0,306.89,10Z"/><g class="cls-4"><path class="cls-5" d="M22.51,1A12.51,12.51,0,0,1,10,13.51"/><path class="cls-5" d="M47.54,1a12.52,12.52,0,0,1-25,0"/><path class="cls-5" d="M72.57,1a12.52,12.52,0,0,1-25,0"/><path class="cls-5" d="M97.6,1a12.52,12.52,0,0,1-25,0"/><path class="cls-5" d="M122.63,1a12.52,12.52,0,0,1-25,0"/><path class="cls-5" d="M147.66,1a12.52,12.52,0,0,1-25,0"/><path class="cls-5" d="M172.68,1a12.51,12.51,0,0,1-25,0"/><path class="cls-5" d="M197.71,1a12.52,12.52,0,0,1-25,0"/><path class="cls-5" d="M222.74,1a12.52,12.52,0,0,1-25,0"/><path class="cls-5" d="M247.77,1a12.52,12.52,0,0,1-25,0"/><path class="cls-5" d="M272.8,1a12.52,12.52,0,0,1-25,0"/><path class="cls-5" d="M297.82,1a12.51,12.51,0,0,1-25,0"/><path class="cls-5" d="M310.34,13.51A12.52,12.52,0,0,1,297.82,1"/><path class="cls-5" d="M35,13.51A12.52,12.52,0,1,1,22.51,1,12.51,12.51,0,0,1,35,13.51Z"/><path class="cls-5" d="M60.06,13.51A12.52,12.52,0,1,1,47.54,1,12.52,12.52,0,0,1,60.06,13.51Z"/><path class="cls-5" d="M85.08,13.51A12.51,12.51,0,1,1,72.57,1,12.51,12.51,0,0,1,85.08,13.51Z"/><path class="cls-5" d="M110.11,13.51A12.52,12.52,0,1,1,97.6,1,12.51,12.51,0,0,1,110.11,13.51Z"/><path class="cls-5" d="M135.14,13.51A12.52,12.52,0,1,1,122.63,1,12.51,12.51,0,0,1,135.14,13.51Z"/><path class="cls-5" d="M160.17,13.51A12.52,12.52,0,1,1,147.66,1,12.51,12.51,0,0,1,160.17,13.51Z"/><path class="cls-5" d="M185.2,13.51A12.52,12.52,0,1,1,172.68,1,12.52,12.52,0,0,1,185.2,13.51Z"/><path class="cls-5" d="M210.23,13.51A12.52,12.52,0,1,1,197.71,1,12.52,12.52,0,0,1,210.23,13.51Z"/><path class="cls-5" d="M235.25,13.51A12.51,12.51,0,1,1,222.74,1,12.51,12.51,0,0,1,235.25,13.51Z"/><path class="cls-5" d="M260.28,13.51A12.52,12.52,0,1,1,247.77,1,12.51,12.51,0,0,1,260.28,13.51Z"/><circle class="cls-5" cx="272.8" cy="13.51" r="12.51" transform="translate(253.09 285.93) rotate(-88.7)"/><path class="cls-5" d="M310.34,13.51A12.52,12.52,0,1,1,297.82,1,12.51,12.51,0,0,1,310.34,13.51Z"/><path class="cls-5" d="M10,13.51a12.52,12.52,0,0,1,0,25"/><path class="cls-5" d="M47.54,26A12.52,12.52,0,1,1,35,13.51,12.51,12.51,0,0,1,47.54,26Z"/><path class="cls-5" d="M72.57,26A12.52,12.52,0,1,1,60.06,13.51,12.51,12.51,0,0,1,72.57,26Z"/><path class="cls-5" d="M97.6,26A12.52,12.52,0,1,1,85.08,13.51,12.51,12.51,0,0,1,97.6,26Z"/><path class="cls-5" d="M122.63,26a12.52,12.52,0,1,1-12.52-12.52A12.52,12.52,0,0,1,122.63,26Z"/><path class="cls-5" d="M147.66,26a12.52,12.52,0,1,1-12.52-12.52A12.52,12.52,0,0,1,147.66,26Z"/><path class="cls-5" d="M172.68,26a12.51,12.51,0,1,1-12.51-12.52A12.51,12.51,0,0,1,172.68,26Z"/><path class="cls-5" d="M197.71,26A12.52,12.52,0,1,1,185.2,13.51,12.51,12.51,0,0,1,197.71,26Z"/><path class="cls-5" d="M222.74,26a12.52,12.52,0,1,1-12.51-12.52A12.51,12.51,0,0,1,222.74,26Z"/><path class="cls-5" d="M247.77,26a12.52,12.52,0,1,1-12.52-12.52A12.51,12.51,0,0,1,247.77,26Z"/><path class="cls-5" d="M272.8,26a12.52,12.52,0,1,1-12.52-12.52A12.52,12.52,0,0,1,272.8,26Z"/><path class="cls-5" d="M297.82,26a12.51,12.51,0,1,1-12.51-12.52A12.51,12.51,0,0,1,297.82,26Z"/><path class="cls-5" d="M310.34,38.54a12.52,12.52,0,1,1,0-25"/><path class="cls-5" d="M35,38.54A12.52,12.52,0,1,1,22.51,26,12.52,12.52,0,0,1,35,38.54Z"/><path class="cls-5" d="M60.06,38.54A12.52,12.52,0,1,1,47.54,26,12.53,12.53,0,0,1,60.06,38.54Z"/><path class="cls-5" d="M85.08,38.54A12.51,12.51,0,1,1,72.57,26,12.52,12.52,0,0,1,85.08,38.54Z"/><path class="cls-5" d="M110.11,38.54A12.52,12.52,0,1,1,97.6,26,12.52,12.52,0,0,1,110.11,38.54Z"/><path class="cls-5" d="M135.14,38.54A12.52,12.52,0,1,1,122.63,26,12.52,12.52,0,0,1,135.14,38.54Z"/><path class="cls-5" d="M160.17,38.54A12.52,12.52,0,1,1,147.66,26,12.52,12.52,0,0,1,160.17,38.54Z"/><path class="cls-5" d="M185.2,38.54A12.52,12.52,0,1,1,172.68,26,12.53,12.53,0,0,1,185.2,38.54Z"/><path class="cls-5" d="M210.23,38.54A12.52,12.52,0,1,1,197.71,26,12.53,12.53,0,0,1,210.23,38.54Z"/><path class="cls-5" d="M235.25,38.54A12.51,12.51,0,1,1,222.74,26,12.52,12.52,0,0,1,235.25,38.54Z"/><path class="cls-5" d="M260.28,38.54A12.52,12.52,0,1,1,247.77,26,12.52,12.52,0,0,1,260.28,38.54Z"/><circle class="cls-5" cx="272.8" cy="38.54" r="12.51" transform="translate(-0.96 7.58) rotate(-1.59)"/><path class="cls-5" d="M310.34,38.54A12.52,12.52,0,1,1,297.82,26,12.52,12.52,0,0,1,310.34,38.54Z"/><path class="cls-5" d="M10,38.54a12.52,12.52,0,0,1,0,25"/><path class="cls-5" d="M47.54,51.06A12.52,12.52,0,1,1,35,38.54,12.51,12.51,0,0,1,47.54,51.06Z"/><path class="cls-5" d="M72.57,51.06A12.52,12.52,0,1,1,60.06,38.54,12.51,12.51,0,0,1,72.57,51.06Z"/><path class="cls-5" d="M97.6,51.06A12.52,12.52,0,1,1,85.08,38.54,12.51,12.51,0,0,1,97.6,51.06Z"/><path class="cls-5" d="M122.63,51.06a12.52,12.52,0,1,1-12.52-12.52A12.52,12.52,0,0,1,122.63,51.06Z"/><path class="cls-5" d="M147.66,51.06a12.52,12.52,0,1,1-12.52-12.52A12.52,12.52,0,0,1,147.66,51.06Z"/><path class="cls-5" d="M172.68,51.06a12.51,12.51,0,1,1-12.51-12.52A12.51,12.51,0,0,1,172.68,51.06Z"/><path class="cls-5" d="M197.71,51.06A12.52,12.52,0,1,1,185.2,38.54,12.51,12.51,0,0,1,197.71,51.06Z"/><path class="cls-5" d="M222.74,51.06a12.52,12.52,0,1,1-12.51-12.52A12.51,12.51,0,0,1,222.74,51.06Z"/><path class="cls-5" d="M247.77,51.06a12.52,12.52,0,1,1-12.52-12.52A12.51,12.51,0,0,1,247.77,51.06Z"/><path class="cls-5" d="M272.8,51.06a12.52,12.52,0,1,1-12.52-12.52A12.52,12.52,0,0,1,272.8,51.06Z"/><path class="cls-5" d="M297.82,51.06a12.51,12.51,0,1,1-12.51-12.52A12.51,12.51,0,0,1,297.82,51.06Z"/><path class="cls-5" d="M310.34,63.57a12.52,12.52,0,1,1,0-25"/><path class="cls-5" d="M35,63.57A12.52,12.52,0,1,1,22.51,51.06,12.52,12.52,0,0,1,35,63.57Z"/><path class="cls-5" d="M60.06,63.57A12.52,12.52,0,1,1,47.54,51.06,12.53,12.53,0,0,1,60.06,63.57Z"/><path class="cls-5" d="M85.08,63.57A12.51,12.51,0,1,1,72.57,51.06,12.52,12.52,0,0,1,85.08,63.57Z"/><path class="cls-5" d="M110.11,63.57A12.52,12.52,0,1,1,97.6,51.06,12.52,12.52,0,0,1,110.11,63.57Z"/><path class="cls-5" d="M135.14,63.57a12.52,12.52,0,1,1-12.51-12.51A12.52,12.52,0,0,1,135.14,63.57Z"/><path class="cls-5" d="M160.17,63.57a12.52,12.52,0,1,1-12.51-12.51A12.52,12.52,0,0,1,160.17,63.57Z"/><path class="cls-5" d="M185.2,63.57a12.52,12.52,0,1,1-12.52-12.51A12.53,12.53,0,0,1,185.2,63.57Z"/><path class="cls-5" d="M210.23,63.57a12.52,12.52,0,1,1-12.52-12.51A12.53,12.53,0,0,1,210.23,63.57Z"/><path class="cls-5" d="M235.25,63.57a12.51,12.51,0,1,1-12.51-12.51A12.52,12.52,0,0,1,235.25,63.57Z"/><path class="cls-5" d="M260.28,63.57a12.52,12.52,0,1,1-12.51-12.51A12.52,12.52,0,0,1,260.28,63.57Z"/><path class="cls-5" d="M285.31,63.57A12.52,12.52,0,1,1,272.8,51.06,12.52,12.52,0,0,1,285.31,63.57Z"/><path class="cls-5" d="M310.34,63.57a12.52,12.52,0,1,1-12.52-12.51A12.52,12.52,0,0,1,310.34,63.57Z"/><path class="cls-5" d="M10,63.57a12.52,12.52,0,0,1,0,25"/><path class="cls-5" d="M47.54,76.09A12.52,12.52,0,1,1,35,63.57,12.51,12.51,0,0,1,47.54,76.09Z"/><path class="cls-5" d="M72.57,76.09A12.52,12.52,0,1,1,60.06,63.57,12.51,12.51,0,0,1,72.57,76.09Z"/><path class="cls-5" d="M97.6,76.09A12.52,12.52,0,1,1,85.08,63.57,12.51,12.51,0,0,1,97.6,76.09Z"/><path class="cls-5" d="M122.63,76.09a12.52,12.52,0,1,1-12.52-12.52A12.52,12.52,0,0,1,122.63,76.09Z"/><path class="cls-5" d="M147.66,76.09a12.52,12.52,0,1,1-12.52-12.52A12.52,12.52,0,0,1,147.66,76.09Z"/><path class="cls-5" d="M172.68,76.09a12.51,12.51,0,1,1-12.51-12.52A12.51,12.51,0,0,1,172.68,76.09Z"/><path class="cls-5" d="M197.71,76.09A12.52,12.52,0,1,1,185.2,63.57,12.51,12.51,0,0,1,197.71,76.09Z"/><path class="cls-5" d="M222.74,76.09a12.52,12.52,0,1,1-12.51-12.52A12.51,12.51,0,0,1,222.74,76.09Z"/><path class="cls-5" d="M247.77,76.09a12.52,12.52,0,1,1-12.52-12.52A12.51,12.51,0,0,1,247.77,76.09Z"/><path class="cls-5" d="M272.8,76.09a12.52,12.52,0,1,1-12.52-12.52A12.52,12.52,0,0,1,272.8,76.09Z"/><path class="cls-5" d="M297.82,76.09a12.51,12.51,0,1,1-12.51-12.52A12.51,12.51,0,0,1,297.82,76.09Z"/><path class="cls-5" d="M310.34,88.6a12.52,12.52,0,1,1,0-25"/><path class="cls-5" d="M35,88.6A12.52,12.52,0,1,1,22.51,76.09,12.51,12.51,0,0,1,35,88.6Z"/><path class="cls-5" d="M60.06,88.6A12.52,12.52,0,1,1,47.54,76.09,12.52,12.52,0,0,1,60.06,88.6Z"/><path class="cls-5" d="M85.08,88.6A12.51,12.51,0,1,1,72.57,76.09,12.51,12.51,0,0,1,85.08,88.6Z"/><path class="cls-5" d="M110.11,88.6A12.52,12.52,0,1,1,97.6,76.09,12.51,12.51,0,0,1,110.11,88.6Z"/><path class="cls-5" d="M135.14,88.6a12.52,12.52,0,1,1-12.51-12.51A12.51,12.51,0,0,1,135.14,88.6Z"/><path class="cls-5" d="M160.17,88.6a12.52,12.52,0,1,1-12.51-12.51A12.51,12.51,0,0,1,160.17,88.6Z"/><path class="cls-5" d="M185.2,88.6a12.52,12.52,0,1,1-12.52-12.51A12.52,12.52,0,0,1,185.2,88.6Z"/><path class="cls-5" d="M210.23,88.6a12.52,12.52,0,1,1-12.52-12.51A12.52,12.52,0,0,1,210.23,88.6Z"/><path class="cls-5" d="M235.25,88.6a12.51,12.51,0,1,1-12.51-12.51A12.51,12.51,0,0,1,235.25,88.6Z"/><path class="cls-5" d="M260.28,88.6a12.52,12.52,0,1,1-12.51-12.51A12.51,12.51,0,0,1,260.28,88.6Z"/><circle class="cls-5" cx="272.8" cy="88.6" r="12.51" transform="translate(-2.13 6.85) rotate(-1.43)"/><path class="cls-5" d="M310.34,88.6a12.52,12.52,0,1,1-12.52-12.51A12.51,12.51,0,0,1,310.34,88.6Z"/><path class="cls-5" d="M10,88.6a12.52,12.52,0,0,1,0,25"/><path class="cls-5" d="M47.54,101.11A12.52,12.52,0,1,1,35,88.6,12.52,12.52,0,0,1,47.54,101.11Z"/><path class="cls-5" d="M72.57,101.11A12.52,12.52,0,1,1,60.06,88.6,12.52,12.52,0,0,1,72.57,101.11Z"/><path class="cls-5" d="M97.6,101.11A12.52,12.52,0,1,1,85.08,88.6,12.52,12.52,0,0,1,97.6,101.11Z"/><path class="cls-5" d="M122.63,101.11A12.52,12.52,0,1,1,110.11,88.6,12.53,12.53,0,0,1,122.63,101.11Z"/><path class="cls-5" d="M147.66,101.11A12.52,12.52,0,1,1,135.14,88.6,12.53,12.53,0,0,1,147.66,101.11Z"/><path class="cls-5" d="M172.68,101.11A12.51,12.51,0,1,1,160.17,88.6,12.52,12.52,0,0,1,172.68,101.11Z"/><path class="cls-5" d="M197.71,101.11A12.52,12.52,0,1,1,185.2,88.6,12.52,12.52,0,0,1,197.71,101.11Z"/><path class="cls-5" d="M222.74,101.11A12.52,12.52,0,1,1,210.23,88.6,12.52,12.52,0,0,1,222.74,101.11Z"/><path class="cls-5" d="M247.77,101.11A12.52,12.52,0,1,1,235.25,88.6,12.52,12.52,0,0,1,247.77,101.11Z"/><path class="cls-5" d="M272.8,101.11A12.52,12.52,0,1,1,260.28,88.6,12.53,12.53,0,0,1,272.8,101.11Z"/><path class="cls-5" d="M297.82,101.11A12.51,12.51,0,1,1,285.31,88.6,12.52,12.52,0,0,1,297.82,101.11Z"/><path class="cls-5" d="M310.34,113.63a12.52,12.52,0,1,1,0-25"/><path class="cls-5" d="M35,113.63a12.52,12.52,0,1,1-12.52-12.52A12.51,12.51,0,0,1,35,113.63Z"/><path class="cls-5" d="M60.06,113.63a12.52,12.52,0,1,1-12.52-12.52A12.52,12.52,0,0,1,60.06,113.63Z"/><path class="cls-5" d="M85.08,113.63a12.51,12.51,0,1,1-12.51-12.52A12.51,12.51,0,0,1,85.08,113.63Z"/><path class="cls-5" d="M110.11,113.63A12.52,12.52,0,1,1,97.6,101.11,12.51,12.51,0,0,1,110.11,113.63Z"/><path class="cls-5" d="M135.14,113.63a12.52,12.52,0,1,1-12.51-12.52A12.51,12.51,0,0,1,135.14,113.63Z"/><path class="cls-5" d="M160.17,113.63a12.52,12.52,0,1,1-12.51-12.52A12.51,12.51,0,0,1,160.17,113.63Z"/><path class="cls-5" d="M185.2,113.63a12.52,12.52,0,1,1-12.52-12.52A12.52,12.52,0,0,1,185.2,113.63Z"/><path class="cls-5" d="M210.23,113.63a12.52,12.52,0,1,1-12.52-12.52A12.52,12.52,0,0,1,210.23,113.63Z"/><path class="cls-5" d="M235.25,113.63a12.51,12.51,0,1,1-12.51-12.52A12.51,12.51,0,0,1,235.25,113.63Z"/><path class="cls-5" d="M260.28,113.63a12.52,12.52,0,1,1-12.51-12.52A12.51,12.51,0,0,1,260.28,113.63Z"/><path class="cls-5" d="M285.31,113.63a12.52,12.52,0,1,1-12.51-12.52A12.51,12.51,0,0,1,285.31,113.63Z"/><path class="cls-5" d="M310.34,113.63a12.52,12.52,0,1,1-12.52-12.52A12.51,12.51,0,0,1,310.34,113.63Z"/><path class="cls-5" d="M10,113.63a12.52,12.52,0,0,1,0,25"/><path class="cls-5" d="M47.54,126.14A12.52,12.52,0,1,1,35,113.63,12.52,12.52,0,0,1,47.54,126.14Z"/><path class="cls-5" d="M72.57,126.14a12.52,12.52,0,1,1-12.51-12.51A12.52,12.52,0,0,1,72.57,126.14Z"/><path class="cls-5" d="M97.6,126.14a12.52,12.52,0,1,1-12.52-12.51A12.52,12.52,0,0,1,97.6,126.14Z"/><path class="cls-5" d="M122.63,126.14a12.52,12.52,0,1,1-12.52-12.51A12.53,12.53,0,0,1,122.63,126.14Z"/><path class="cls-5" d="M147.66,126.14a12.52,12.52,0,1,1-12.52-12.51A12.53,12.53,0,0,1,147.66,126.14Z"/><path class="cls-5" d="M172.68,126.14a12.51,12.51,0,1,1-12.51-12.51A12.52,12.52,0,0,1,172.68,126.14Z"/><path class="cls-5" d="M197.71,126.14a12.52,12.52,0,1,1-12.51-12.51A12.52,12.52,0,0,1,197.71,126.14Z"/><path class="cls-5" d="M222.74,126.14a12.52,12.52,0,1,1-12.51-12.51A12.52,12.52,0,0,1,222.74,126.14Z"/><path class="cls-5" d="M247.77,126.14a12.52,12.52,0,1,1-12.52-12.51A12.52,12.52,0,0,1,247.77,126.14Z"/><path class="cls-5" d="M272.8,126.14a12.52,12.52,0,1,1-12.52-12.51A12.53,12.53,0,0,1,272.8,126.14Z"/><path class="cls-5" d="M297.82,126.14a12.51,12.51,0,1,1-12.51-12.51A12.52,12.52,0,0,1,297.82,126.14Z"/><path class="cls-5" d="M310.34,138.66a12.52,12.52,0,1,1,0-25"/><path class="cls-5" d="M35,138.66a12.52,12.52,0,1,1-12.52-12.52A12.51,12.51,0,0,1,35,138.66Z"/><path class="cls-5" d="M60.06,138.66a12.52,12.52,0,1,1-12.52-12.52A12.52,12.52,0,0,1,60.06,138.66Z"/><path class="cls-5" d="M85.08,138.66a12.51,12.51,0,1,1-12.51-12.52A12.51,12.51,0,0,1,85.08,138.66Z"/><path class="cls-5" d="M110.11,138.66A12.52,12.52,0,1,1,97.6,126.14,12.51,12.51,0,0,1,110.11,138.66Z"/><path class="cls-5" d="M135.14,138.66a12.52,12.52,0,1,1-12.51-12.52A12.51,12.51,0,0,1,135.14,138.66Z"/><path class="cls-5" d="M160.17,138.66a12.52,12.52,0,1,1-12.51-12.52A12.51,12.51,0,0,1,160.17,138.66Z"/><path class="cls-5" d="M185.2,138.66a12.52,12.52,0,1,1-12.52-12.52A12.52,12.52,0,0,1,185.2,138.66Z"/><path class="cls-5" d="M210.23,138.66a12.52,12.52,0,1,1-12.52-12.52A12.52,12.52,0,0,1,210.23,138.66Z"/><path class="cls-5" d="M235.25,138.66a12.51,12.51,0,1,1-12.51-12.52A12.51,12.51,0,0,1,235.25,138.66Z"/><path class="cls-5" d="M260.28,138.66a12.52,12.52,0,1,1-12.51-12.52A12.51,12.51,0,0,1,260.28,138.66Z"/><circle class="cls-5" cx="272.8" cy="138.66" r="12.51" transform="translate(-3.74 7.62) rotate(-1.59)"/><path class="cls-5" d="M310.34,138.66a12.52,12.52,0,1,1-12.52-12.52A12.51,12.51,0,0,1,310.34,138.66Z"/><path class="cls-5" d="M10,138.66a12.51,12.51,0,0,1,0,25"/><path class="cls-5" d="M47.54,151.17A12.52,12.52,0,1,1,35,138.66,12.51,12.51,0,0,1,47.54,151.17Z"/><path class="cls-5" d="M72.57,151.17a12.52,12.52,0,1,1-12.51-12.51A12.51,12.51,0,0,1,72.57,151.17Z"/><path class="cls-5" d="M97.6,151.17a12.52,12.52,0,1,1-12.52-12.51A12.51,12.51,0,0,1,97.6,151.17Z"/><path class="cls-5" d="M122.63,151.17a12.52,12.52,0,1,1-12.52-12.51A12.52,12.52,0,0,1,122.63,151.17Z"/><path class="cls-5" d="M147.66,151.17a12.52,12.52,0,1,1-12.52-12.51A12.52,12.52,0,0,1,147.66,151.17Z"/><path class="cls-5" d="M172.68,151.17a12.51,12.51,0,1,1-12.51-12.51A12.51,12.51,0,0,1,172.68,151.17Z"/><path class="cls-5" d="M197.71,151.17a12.52,12.52,0,1,1-12.51-12.51A12.51,12.51,0,0,1,197.71,151.17Z"/><path class="cls-5" d="M222.74,151.17a12.52,12.52,0,1,1-12.51-12.51A12.51,12.51,0,0,1,222.74,151.17Z"/><path class="cls-5" d="M247.77,151.17a12.52,12.52,0,1,1-12.52-12.51A12.51,12.51,0,0,1,247.77,151.17Z"/><path class="cls-5" d="M272.8,151.17a12.52,12.52,0,1,1-12.52-12.51A12.52,12.52,0,0,1,272.8,151.17Z"/><path class="cls-5" d="M297.82,151.17a12.51,12.51,0,1,1-12.51-12.51A12.51,12.51,0,0,1,297.82,151.17Z"/><path class="cls-5" d="M310.34,163.68a12.51,12.51,0,1,1,0-25"/><path class="cls-5" d="M35,163.68a12.52,12.52,0,1,1-12.52-12.51A12.52,12.52,0,0,1,35,163.68Z"/><path class="cls-5" d="M60.06,163.68a12.52,12.52,0,1,1-12.52-12.51A12.53,12.53,0,0,1,60.06,163.68Z"/><path class="cls-5" d="M85.08,163.68a12.51,12.51,0,1,1-12.51-12.51A12.52,12.52,0,0,1,85.08,163.68Z"/><path class="cls-5" d="M110.11,163.68A12.52,12.52,0,1,1,97.6,151.17,12.52,12.52,0,0,1,110.11,163.68Z"/><path class="cls-5" d="M135.14,163.68a12.52,12.52,0,1,1-12.51-12.51A12.52,12.52,0,0,1,135.14,163.68Z"/><path class="cls-5" d="M160.17,163.68a12.52,12.52,0,1,1-12.51-12.51A12.52,12.52,0,0,1,160.17,163.68Z"/><path class="cls-5" d="M185.2,163.68a12.52,12.52,0,1,1-12.52-12.51A12.53,12.53,0,0,1,185.2,163.68Z"/><path class="cls-5" d="M210.23,163.68a12.52,12.52,0,1,1-12.52-12.51A12.53,12.53,0,0,1,210.23,163.68Z"/><path class="cls-5" d="M235.25,163.68a12.51,12.51,0,1,1-12.51-12.51A12.52,12.52,0,0,1,235.25,163.68Z"/><path class="cls-5" d="M260.28,163.68a12.52,12.52,0,1,1-12.51-12.51A12.52,12.52,0,0,1,260.28,163.68Z"/><circle class="cls-5" cx="272.8" cy="163.68" r="12.51"/><path class="cls-5" d="M310.34,163.68a12.52,12.52,0,1,1-12.52-12.51A12.52,12.52,0,0,1,310.34,163.68Z"/><path class="cls-5" d="M10,163.68a12.52,12.52,0,0,1,0,25"/><path class="cls-5" d="M47.54,176.2A12.52,12.52,0,1,1,35,163.68,12.51,12.51,0,0,1,47.54,176.2Z"/><path class="cls-5" d="M72.57,176.2a12.52,12.52,0,1,1-12.51-12.52A12.51,12.51,0,0,1,72.57,176.2Z"/><path class="cls-5" d="M97.6,176.2a12.52,12.52,0,1,1-12.52-12.52A12.51,12.51,0,0,1,97.6,176.2Z"/><path class="cls-5" d="M122.63,176.2a12.52,12.52,0,1,1-12.52-12.52A12.52,12.52,0,0,1,122.63,176.2Z"/><path class="cls-5" d="M147.66,176.2a12.52,12.52,0,1,1-12.52-12.52A12.52,12.52,0,0,1,147.66,176.2Z"/><path class="cls-5" d="M172.68,176.2a12.51,12.51,0,1,1-12.51-12.52A12.51,12.51,0,0,1,172.68,176.2Z"/><path class="cls-5" d="M197.71,176.2a12.52,12.52,0,1,1-12.51-12.52A12.51,12.51,0,0,1,197.71,176.2Z"/><path class="cls-5" d="M222.74,176.2a12.52,12.52,0,1,1-12.51-12.52A12.51,12.51,0,0,1,222.74,176.2Z"/><path class="cls-5" d="M247.77,176.2a12.52,12.52,0,1,1-12.52-12.52A12.51,12.51,0,0,1,247.77,176.2Z"/><path class="cls-5" d="M272.8,176.2a12.52,12.52,0,1,1-12.52-12.52A12.52,12.52,0,0,1,272.8,176.2Z"/><path class="cls-5" d="M297.82,176.2a12.51,12.51,0,1,1-12.51-12.52A12.51,12.51,0,0,1,297.82,176.2Z"/><path class="cls-5" d="M310.34,188.71a12.52,12.52,0,1,1,0-25"/><path class="cls-5" d="M35,188.71A12.52,12.52,0,1,1,22.51,176.2,12.52,12.52,0,0,1,35,188.71Z"/><path class="cls-5" d="M60.06,188.71A12.52,12.52,0,1,1,47.54,176.2,12.53,12.53,0,0,1,60.06,188.71Z"/><path class="cls-5" d="M85.08,188.71A12.51,12.51,0,1,1,72.57,176.2,12.52,12.52,0,0,1,85.08,188.71Z"/><path class="cls-5" d="M110.11,188.71A12.52,12.52,0,1,1,97.6,176.2,12.52,12.52,0,0,1,110.11,188.71Z"/><path class="cls-5" d="M135.14,188.71a12.52,12.52,0,1,1-12.51-12.51A12.52,12.52,0,0,1,135.14,188.71Z"/><path class="cls-5" d="M160.17,188.71a12.52,12.52,0,1,1-12.51-12.51A12.52,12.52,0,0,1,160.17,188.71Z"/><path class="cls-5" d="M185.2,188.71a12.52,12.52,0,1,1-12.52-12.51A12.53,12.53,0,0,1,185.2,188.71Z"/><path class="cls-5" d="M210.23,188.71a12.52,12.52,0,1,1-12.52-12.51A12.53,12.53,0,0,1,210.23,188.71Z"/><path class="cls-5" d="M235.25,188.71a12.51,12.51,0,1,1-12.51-12.51A12.52,12.52,0,0,1,235.25,188.71Z"/><path class="cls-5" d="M260.28,188.71a12.52,12.52,0,1,1-12.51-12.51A12.52,12.52,0,0,1,260.28,188.71Z"/><path class="cls-5" d="M285.31,188.71A12.52,12.52,0,1,1,272.8,176.2,12.52,12.52,0,0,1,285.31,188.71Z"/><path class="cls-5" d="M310.34,188.71a12.52,12.52,0,1,1-12.52-12.51A12.52,12.52,0,0,1,310.34,188.71Z"/><path class="cls-5" d="M10,188.71a12.52,12.52,0,0,1,0,25"/><path class="cls-5" d="M47.54,201.23A12.52,12.52,0,1,1,35,188.71,12.51,12.51,0,0,1,47.54,201.23Z"/><path class="cls-5" d="M72.57,201.23a12.52,12.52,0,1,1-12.51-12.52A12.51,12.51,0,0,1,72.57,201.23Z"/><path class="cls-5" d="M97.6,201.23a12.52,12.52,0,1,1-12.52-12.52A12.51,12.51,0,0,1,97.6,201.23Z"/><path class="cls-5" d="M122.63,201.23a12.52,12.52,0,1,1-12.52-12.52A12.52,12.52,0,0,1,122.63,201.23Z"/><path class="cls-5" d="M147.66,201.23a12.52,12.52,0,1,1-12.52-12.52A12.52,12.52,0,0,1,147.66,201.23Z"/><path class="cls-5" d="M172.68,201.23a12.51,12.51,0,1,1-12.51-12.52A12.51,12.51,0,0,1,172.68,201.23Z"/><path class="cls-5" d="M197.71,201.23a12.52,12.52,0,1,1-12.51-12.52A12.51,12.51,0,0,1,197.71,201.23Z"/><path class="cls-5" d="M222.74,201.23a12.52,12.52,0,1,1-12.51-12.52A12.51,12.51,0,0,1,222.74,201.23Z"/><path class="cls-5" d="M247.77,201.23a12.52,12.52,0,1,1-12.52-12.52A12.51,12.51,0,0,1,247.77,201.23Z"/><path class="cls-5" d="M272.8,201.23a12.52,12.52,0,1,1-12.52-12.52A12.52,12.52,0,0,1,272.8,201.23Z"/><path class="cls-5" d="M297.82,201.23a12.51,12.51,0,1,1-12.51-12.52A12.51,12.51,0,0,1,297.82,201.23Z"/><path class="cls-5" d="M310.34,213.74a12.52,12.52,0,1,1,0-25"/><path class="cls-5" d="M35,213.74a12.52,12.52,0,1,1-12.52-12.51A12.51,12.51,0,0,1,35,213.74Z"/><path class="cls-5" d="M60.06,213.74a12.52,12.52,0,1,1-12.52-12.51A12.52,12.52,0,0,1,60.06,213.74Z"/><path class="cls-5" d="M85.08,213.74a12.51,12.51,0,1,1-12.51-12.51A12.51,12.51,0,0,1,85.08,213.74Z"/><path class="cls-5" d="M110.11,213.74A12.52,12.52,0,1,1,97.6,201.23,12.51,12.51,0,0,1,110.11,213.74Z"/><path class="cls-5" d="M135.14,213.74a12.52,12.52,0,1,1-12.51-12.51A12.51,12.51,0,0,1,135.14,213.74Z"/><path class="cls-5" d="M160.17,213.74a12.52,12.52,0,1,1-12.51-12.51A12.51,12.51,0,0,1,160.17,213.74Z"/><path class="cls-5" d="M185.2,213.74a12.52,12.52,0,1,1-12.52-12.51A12.52,12.52,0,0,1,185.2,213.74Z"/><path class="cls-5" d="M210.23,213.74a12.52,12.52,0,1,1-12.52-12.51A12.52,12.52,0,0,1,210.23,213.74Z"/><path class="cls-5" d="M235.25,213.74a12.51,12.51,0,1,1-12.51-12.51A12.51,12.51,0,0,1,235.25,213.74Z"/><path class="cls-5" d="M260.28,213.74a12.52,12.52,0,1,1-12.51-12.51A12.51,12.51,0,0,1,260.28,213.74Z"/><path class="cls-5" d="M285.31,213.74a12.52,12.52,0,1,1-12.51-12.51A12.51,12.51,0,0,1,285.31,213.74Z"/><path class="cls-5" d="M310.34,213.74a12.52,12.52,0,1,1-12.52-12.51A12.51,12.51,0,0,1,310.34,213.74Z"/><path class="cls-5" d="M10,213.74a12.52,12.52,0,0,1,0,25"/><path class="cls-5" d="M47.54,226.25A12.52,12.52,0,1,1,35,213.74,12.52,12.52,0,0,1,47.54,226.25Z"/><path class="cls-5" d="M72.57,226.25a12.52,12.52,0,1,1-12.51-12.51A12.52,12.52,0,0,1,72.57,226.25Z"/><path class="cls-5" d="M97.6,226.25a12.52,12.52,0,1,1-12.52-12.51A12.52,12.52,0,0,1,97.6,226.25Z"/><path class="cls-5" d="M122.63,226.25a12.52,12.52,0,1,1-12.52-12.51A12.53,12.53,0,0,1,122.63,226.25Z"/><path class="cls-5" d="M147.66,226.25a12.52,12.52,0,1,1-12.52-12.51A12.53,12.53,0,0,1,147.66,226.25Z"/><path class="cls-5" d="M172.68,226.25a12.51,12.51,0,1,1-12.51-12.51A12.52,12.52,0,0,1,172.68,226.25Z"/><path class="cls-5" d="M197.71,226.25a12.52,12.52,0,1,1-12.51-12.51A12.52,12.52,0,0,1,197.71,226.25Z"/><path class="cls-5" d="M222.74,226.25a12.52,12.52,0,1,1-12.51-12.51A12.52,12.52,0,0,1,222.74,226.25Z"/><path class="cls-5" d="M247.77,226.25a12.52,12.52,0,1,1-12.52-12.51A12.52,12.52,0,0,1,247.77,226.25Z"/><path class="cls-5" d="M272.8,226.25a12.52,12.52,0,1,1-12.52-12.51A12.53,12.53,0,0,1,272.8,226.25Z"/><path class="cls-5" d="M297.82,226.25a12.51,12.51,0,1,1-12.51-12.51A12.52,12.52,0,0,1,297.82,226.25Z"/><path class="cls-5" d="M310.34,238.77a12.52,12.52,0,1,1,0-25"/><path class="cls-5" d="M35,238.77a12.52,12.52,0,1,1-12.52-12.52A12.51,12.51,0,0,1,35,238.77Z"/><path class="cls-5" d="M60.06,238.77a12.52,12.52,0,1,1-12.52-12.52A12.52,12.52,0,0,1,60.06,238.77Z"/><path class="cls-5" d="M85.08,238.77a12.51,12.51,0,1,1-12.51-12.52A12.51,12.51,0,0,1,85.08,238.77Z"/><path class="cls-5" d="M110.11,238.77A12.52,12.52,0,1,1,97.6,226.25,12.51,12.51,0,0,1,110.11,238.77Z"/><path class="cls-5" d="M135.14,238.77a12.52,12.52,0,1,1-12.51-12.52A12.51,12.51,0,0,1,135.14,238.77Z"/><path class="cls-5" d="M160.17,238.77a12.52,12.52,0,1,1-12.51-12.52A12.51,12.51,0,0,1,160.17,238.77Z"/><path class="cls-5" d="M185.2,238.77a12.52,12.52,0,1,1-12.52-12.52A12.52,12.52,0,0,1,185.2,238.77Z"/><path class="cls-5" d="M210.23,238.77a12.52,12.52,0,1,1-12.52-12.52A12.52,12.52,0,0,1,210.23,238.77Z"/><path class="cls-5" d="M235.25,238.77a12.51,12.51,0,1,1-12.51-12.52A12.51,12.51,0,0,1,235.25,238.77Z"/><path class="cls-5" d="M260.28,238.77a12.52,12.52,0,1,1-12.51-12.52A12.51,12.51,0,0,1,260.28,238.77Z"/><path class="cls-5" d="M285.31,238.77a12.52,12.52,0,1,1-12.51-12.52A12.51,12.51,0,0,1,285.31,238.77Z"/><path class="cls-5" d="M310.34,238.77a12.52,12.52,0,1,1-12.52-12.52A12.51,12.51,0,0,1,310.34,238.77Z"/><path class="cls-5" d="M10,238.77a12.52,12.52,0,0,1,0,25"/><path class="cls-5" d="M47.54,251.28A12.52,12.52,0,1,1,35,238.77,12.52,12.52,0,0,1,47.54,251.28Z"/><path class="cls-5" d="M72.57,251.28a12.52,12.52,0,1,1-12.51-12.51A12.52,12.52,0,0,1,72.57,251.28Z"/><path class="cls-5" d="M97.6,251.28a12.52,12.52,0,1,1-12.52-12.51A12.52,12.52,0,0,1,97.6,251.28Z"/><path class="cls-5" d="M122.63,251.28a12.52,12.52,0,1,1-12.52-12.51A12.53,12.53,0,0,1,122.63,251.28Z"/><path class="cls-5" d="M147.66,251.28a12.52,12.52,0,1,1-12.52-12.51A12.53,12.53,0,0,1,147.66,251.28Z"/><path class="cls-5" d="M172.68,251.28a12.51,12.51,0,1,1-12.51-12.51A12.52,12.52,0,0,1,172.68,251.28Z"/><path class="cls-5" d="M197.71,251.28a12.52,12.52,0,1,1-12.51-12.51A12.52,12.52,0,0,1,197.71,251.28Z"/><path class="cls-5" d="M222.74,251.28a12.52,12.52,0,1,1-12.51-12.51A12.52,12.52,0,0,1,222.74,251.28Z"/><path class="cls-5" d="M247.77,251.28a12.52,12.52,0,1,1-12.52-12.51A12.52,12.52,0,0,1,247.77,251.28Z"/><path class="cls-5" d="M272.8,251.28a12.52,12.52,0,1,1-12.52-12.51A12.53,12.53,0,0,1,272.8,251.28Z"/><path class="cls-5" d="M297.82,251.28a12.51,12.51,0,1,1-12.51-12.51A12.52,12.52,0,0,1,297.82,251.28Z"/><path class="cls-5" d="M310.34,263.8a12.52,12.52,0,1,1,0-25"/><path class="cls-5" d="M35,263.8a12.52,12.52,0,1,1-12.52-12.52A12.51,12.51,0,0,1,35,263.8Z"/><path class="cls-5" d="M60.06,263.8a12.52,12.52,0,1,1-12.52-12.52A12.52,12.52,0,0,1,60.06,263.8Z"/><path class="cls-5" d="M85.08,263.8a12.51,12.51,0,1,1-12.51-12.52A12.51,12.51,0,0,1,85.08,263.8Z"/><path class="cls-5" d="M110.11,263.8A12.52,12.52,0,1,1,97.6,251.28,12.51,12.51,0,0,1,110.11,263.8Z"/><path class="cls-5" d="M135.14,263.8a12.52,12.52,0,1,1-12.51-12.52A12.51,12.51,0,0,1,135.14,263.8Z"/><path class="cls-5" d="M160.17,263.8a12.52,12.52,0,1,1-12.51-12.52A12.51,12.51,0,0,1,160.17,263.8Z"/><path class="cls-5" d="M185.2,263.8a12.52,12.52,0,1,1-12.52-12.52A12.52,12.52,0,0,1,185.2,263.8Z"/><path class="cls-5" d="M210.23,263.8a12.52,12.52,0,1,1-12.52-12.52A12.52,12.52,0,0,1,210.23,263.8Z"/><path class="cls-5" d="M235.25,263.8a12.51,12.51,0,1,1-12.51-12.52A12.51,12.51,0,0,1,235.25,263.8Z"/><path class="cls-5" d="M260.28,263.8a12.52,12.52,0,1,1-12.51-12.52A12.51,12.51,0,0,1,260.28,263.8Z"/><path class="cls-5" d="M285.31,263.8a12.52,12.52,0,1,1-12.51-12.52A12.51,12.51,0,0,1,285.31,263.8Z"/><path class="cls-5" d="M310.34,263.8a12.52,12.52,0,1,1-12.52-12.52A12.51,12.51,0,0,1,310.34,263.8Z"/><path class="cls-5" d="M10,263.8a12.52,12.52,0,0,1,0,25"/><path class="cls-5" d="M47.54,276.31A12.52,12.52,0,1,1,35,263.8,12.52,12.52,0,0,1,47.54,276.31Z"/><path class="cls-5" d="M72.57,276.31A12.52,12.52,0,1,1,60.06,263.8,12.52,12.52,0,0,1,72.57,276.31Z"/><path class="cls-5" d="M97.6,276.31A12.52,12.52,0,1,1,85.08,263.8,12.52,12.52,0,0,1,97.6,276.31Z"/><path class="cls-5" d="M122.63,276.31a12.52,12.52,0,1,1-12.52-12.51A12.53,12.53,0,0,1,122.63,276.31Z"/><path class="cls-5" d="M147.66,276.31a12.52,12.52,0,1,1-12.52-12.51A12.53,12.53,0,0,1,147.66,276.31Z"/><path class="cls-5" d="M172.68,276.31a12.51,12.51,0,1,1-12.51-12.51A12.52,12.52,0,0,1,172.68,276.31Z"/><path class="cls-5" d="M197.71,276.31A12.52,12.52,0,1,1,185.2,263.8,12.52,12.52,0,0,1,197.71,276.31Z"/><path class="cls-5" d="M222.74,276.31a12.52,12.52,0,1,1-12.51-12.51A12.52,12.52,0,0,1,222.74,276.31Z"/><path class="cls-5" d="M247.77,276.31a12.52,12.52,0,1,1-12.52-12.51A12.52,12.52,0,0,1,247.77,276.31Z"/><path class="cls-5" d="M272.8,276.31a12.52,12.52,0,1,1-12.52-12.51A12.53,12.53,0,0,1,272.8,276.31Z"/><path class="cls-5" d="M297.82,276.31a12.51,12.51,0,1,1-12.51-12.51A12.52,12.52,0,0,1,297.82,276.31Z"/><path class="cls-5" d="M310.34,288.83a12.52,12.52,0,1,1,0-25"/><path class="cls-5" d="M35,288.83a12.52,12.52,0,1,1-12.52-12.52A12.51,12.51,0,0,1,35,288.83Z"/><path class="cls-5" d="M60.06,288.83a12.52,12.52,0,1,1-12.52-12.52A12.52,12.52,0,0,1,60.06,288.83Z"/><path class="cls-5" d="M85.08,288.83a12.51,12.51,0,1,1-12.51-12.52A12.51,12.51,0,0,1,85.08,288.83Z"/><path class="cls-5" d="M110.11,288.83A12.52,12.52,0,1,1,97.6,276.31,12.51,12.51,0,0,1,110.11,288.83Z"/><path class="cls-5" d="M135.14,288.83a12.52,12.52,0,1,1-12.51-12.52A12.51,12.51,0,0,1,135.14,288.83Z"/><path class="cls-5" d="M160.17,288.83a12.52,12.52,0,1,1-12.51-12.52A12.51,12.51,0,0,1,160.17,288.83Z"/><path class="cls-5" d="M185.2,288.83a12.52,12.52,0,1,1-12.52-12.52A12.52,12.52,0,0,1,185.2,288.83Z"/><path class="cls-5" d="M210.23,288.83a12.52,12.52,0,1,1-12.52-12.52A12.52,12.52,0,0,1,210.23,288.83Z"/><path class="cls-5" d="M235.25,288.83a12.51,12.51,0,1,1-12.51-12.52A12.51,12.51,0,0,1,235.25,288.83Z"/><path class="cls-5" d="M260.28,288.83a12.52,12.52,0,1,1-12.51-12.52A12.51,12.51,0,0,1,260.28,288.83Z"/><path class="cls-5" d="M285.31,288.83a12.52,12.52,0,1,1-12.51-12.52A12.51,12.51,0,0,1,285.31,288.83Z"/><path class="cls-5" d="M310.34,288.83a12.52,12.52,0,1,1-12.52-12.52A12.51,12.51,0,0,1,310.34,288.83Z"/><path class="cls-5" d="M10,288.83a12.51,12.51,0,0,1,0,25"/><path class="cls-5" d="M47.54,301.34A12.52,12.52,0,1,1,35,288.83,12.51,12.51,0,0,1,47.54,301.34Z"/><path class="cls-5" d="M72.57,301.34a12.52,12.52,0,1,1-12.51-12.51A12.51,12.51,0,0,1,72.57,301.34Z"/><path class="cls-5" d="M97.6,301.34a12.52,12.52,0,1,1-12.52-12.51A12.51,12.51,0,0,1,97.6,301.34Z"/><path class="cls-5" d="M122.63,301.34a12.52,12.52,0,1,1-12.52-12.51A12.52,12.52,0,0,1,122.63,301.34Z"/><path class="cls-5" d="M147.66,301.34a12.52,12.52,0,1,1-12.52-12.51A12.52,12.52,0,0,1,147.66,301.34Z"/><path class="cls-5" d="M172.68,301.34a12.51,12.51,0,1,1-12.51-12.51A12.51,12.51,0,0,1,172.68,301.34Z"/><path class="cls-5" d="M197.71,301.34a12.52,12.52,0,1,1-12.51-12.51A12.51,12.51,0,0,1,197.71,301.34Z"/><path class="cls-5" d="M222.74,301.34a12.52,12.52,0,1,1-12.51-12.51A12.51,12.51,0,0,1,222.74,301.34Z"/><path class="cls-5" d="M247.77,301.34a12.52,12.52,0,1,1-12.52-12.51A12.51,12.51,0,0,1,247.77,301.34Z"/><path class="cls-5" d="M272.8,301.34a12.52,12.52,0,1,1-12.52-12.51A12.52,12.52,0,0,1,272.8,301.34Z"/><path class="cls-5" d="M297.82,301.34a12.51,12.51,0,1,1-12.51-12.51A12.51,12.51,0,0,1,297.82,301.34Z"/><path class="cls-5" d="M310.34,313.85a12.51,12.51,0,1,1,0-25"/><path class="cls-5" d="M35,313.85a12.52,12.52,0,1,1-12.52-12.51A12.52,12.52,0,0,1,35,313.85Z"/><path class="cls-5" d="M60.06,313.85a12.52,12.52,0,1,1-12.52-12.51A12.53,12.53,0,0,1,60.06,313.85Z"/><path class="cls-5" d="M85.08,313.85a12.51,12.51,0,1,1-12.51-12.51A12.52,12.52,0,0,1,85.08,313.85Z"/><path class="cls-5" d="M110.11,313.85A12.52,12.52,0,1,1,97.6,301.34,12.52,12.52,0,0,1,110.11,313.85Z"/><path class="cls-5" d="M135.14,313.85a12.52,12.52,0,1,1-12.51-12.51A12.52,12.52,0,0,1,135.14,313.85Z"/><path class="cls-5" d="M160.17,313.85a12.52,12.52,0,1,1-12.51-12.51A12.52,12.52,0,0,1,160.17,313.85Z"/><path class="cls-5" d="M185.2,313.85a12.52,12.52,0,1,1-12.52-12.51A12.53,12.53,0,0,1,185.2,313.85Z"/><path class="cls-5" d="M210.23,313.85a12.52,12.52,0,1,1-12.52-12.51A12.53,12.53,0,0,1,210.23,313.85Z"/><path class="cls-5" d="M235.25,313.85a12.51,12.51,0,1,1-12.51-12.51A12.52,12.52,0,0,1,235.25,313.85Z"/><path class="cls-5" d="M260.28,313.85a12.52,12.52,0,1,1-12.51-12.51A12.52,12.52,0,0,1,260.28,313.85Z"/><circle class="cls-5" cx="272.8" cy="313.85" r="12.51" transform="translate(-7.76 6.92) rotate(-1.43)"/><path class="cls-5" d="M310.34,313.85a12.52,12.52,0,1,1-12.52-12.51A12.52,12.52,0,0,1,310.34,313.85Z"/><path class="cls-5" d="M10,313.85a12.52,12.52,0,0,1,0,25"/><path class="cls-5" d="M47.54,326.37A12.52,12.52,0,1,1,35,313.85,12.51,12.51,0,0,1,47.54,326.37Z"/><path class="cls-5" d="M72.57,326.37a12.52,12.52,0,1,1-12.51-12.52A12.51,12.51,0,0,1,72.57,326.37Z"/><path class="cls-5" d="M97.6,326.37a12.52,12.52,0,1,1-12.52-12.52A12.51,12.51,0,0,1,97.6,326.37Z"/><path class="cls-5" d="M122.63,326.37a12.52,12.52,0,1,1-12.52-12.52A12.52,12.52,0,0,1,122.63,326.37Z"/><path class="cls-5" d="M147.66,326.37a12.52,12.52,0,1,1-12.52-12.52A12.52,12.52,0,0,1,147.66,326.37Z"/><path class="cls-5" d="M172.68,326.37a12.51,12.51,0,1,1-12.51-12.52A12.51,12.51,0,0,1,172.68,326.37Z"/><path class="cls-5" d="M197.71,326.37a12.52,12.52,0,1,1-12.51-12.52A12.51,12.51,0,0,1,197.71,326.37Z"/><path class="cls-5" d="M222.74,326.37a12.52,12.52,0,1,1-12.51-12.52A12.51,12.51,0,0,1,222.74,326.37Z"/><path class="cls-5" d="M247.77,326.37a12.52,12.52,0,1,1-12.52-12.52A12.51,12.51,0,0,1,247.77,326.37Z"/><path class="cls-5" d="M272.8,326.37a12.52,12.52,0,1,1-12.52-12.52A12.52,12.52,0,0,1,272.8,326.37Z"/><path class="cls-5" d="M297.82,326.37a12.51,12.51,0,1,1-12.51-12.52A12.51,12.51,0,0,1,297.82,326.37Z"/><path class="cls-5" d="M310.34,338.88a12.52,12.52,0,1,1,0-25"/><path class="cls-5" d="M35,338.88a12.52,12.52,0,1,1-12.52-12.51A12.52,12.52,0,0,1,35,338.88Z"/><path class="cls-5" d="M60.06,338.88a12.52,12.52,0,1,1-12.52-12.51A12.53,12.53,0,0,1,60.06,338.88Z"/><path class="cls-5" d="M85.08,338.88a12.51,12.51,0,1,1-12.51-12.51A12.52,12.52,0,0,1,85.08,338.88Z"/><path class="cls-5" d="M110.11,338.88A12.52,12.52,0,1,1,97.6,326.37,12.52,12.52,0,0,1,110.11,338.88Z"/><path class="cls-5" d="M135.14,338.88a12.52,12.52,0,1,1-12.51-12.51A12.52,12.52,0,0,1,135.14,338.88Z"/><path class="cls-5" d="M160.17,338.88a12.52,12.52,0,1,1-12.51-12.51A12.52,12.52,0,0,1,160.17,338.88Z"/><path class="cls-5" d="M185.2,338.88a12.52,12.52,0,1,1-12.52-12.51A12.53,12.53,0,0,1,185.2,338.88Z"/><path class="cls-5" d="M210.23,338.88a12.52,12.52,0,1,1-12.52-12.51A12.53,12.53,0,0,1,210.23,338.88Z"/><path class="cls-5" d="M235.25,338.88a12.51,12.51,0,1,1-12.51-12.51A12.52,12.52,0,0,1,235.25,338.88Z"/><path class="cls-5" d="M260.28,338.88a12.52,12.52,0,1,1-12.51-12.51A12.52,12.52,0,0,1,260.28,338.88Z"/><circle class="cls-5" cx="272.8" cy="338.88" r="12.51" transform="translate(-9.29 7.69) rotate(-1.59)"/><path class="cls-5" d="M310.34,338.88a12.52,12.52,0,1,1-12.52-12.51A12.52,12.52,0,0,1,310.34,338.88Z"/><path class="cls-5" d="M10,338.88a12.52,12.52,0,0,1,0,25"/><path class="cls-5" d="M47.54,351.4A12.52,12.52,0,1,1,35,338.88,12.51,12.51,0,0,1,47.54,351.4Z"/><path class="cls-5" d="M72.57,351.4a12.52,12.52,0,1,1-12.51-12.52A12.51,12.51,0,0,1,72.57,351.4Z"/><path class="cls-5" d="M97.6,351.4a12.52,12.52,0,1,1-12.52-12.52A12.51,12.51,0,0,1,97.6,351.4Z"/><path class="cls-5" d="M122.63,351.4a12.52,12.52,0,1,1-12.52-12.52A12.52,12.52,0,0,1,122.63,351.4Z"/><path class="cls-5" d="M147.66,351.4a12.52,12.52,0,1,1-12.52-12.52A12.52,12.52,0,0,1,147.66,351.4Z"/><path class="cls-5" d="M172.68,351.4a12.51,12.51,0,1,1-12.51-12.52A12.51,12.51,0,0,1,172.68,351.4Z"/><path class="cls-5" d="M197.71,351.4a12.52,12.52,0,1,1-12.51-12.52A12.51,12.51,0,0,1,197.71,351.4Z"/><path class="cls-5" d="M222.74,351.4a12.52,12.52,0,1,1-12.51-12.52A12.51,12.51,0,0,1,222.74,351.4Z"/><path class="cls-5" d="M247.77,351.4a12.52,12.52,0,1,1-12.52-12.52A12.51,12.51,0,0,1,247.77,351.4Z"/><path class="cls-5" d="M272.8,351.4a12.52,12.52,0,1,1-12.52-12.52A12.52,12.52,0,0,1,272.8,351.4Z"/><path class="cls-5" d="M297.82,351.4a12.51,12.51,0,1,1-12.51-12.52A12.51,12.51,0,0,1,297.82,351.4Z"/><path class="cls-5" d="M310.34,363.91a12.52,12.52,0,1,1,0-25"/><path class="cls-5" d="M35,363.91A12.52,12.52,0,1,1,22.51,351.4,12.51,12.51,0,0,1,35,363.91Z"/><path class="cls-5" d="M60.06,363.91A12.52,12.52,0,1,1,47.54,351.4,12.52,12.52,0,0,1,60.06,363.91Z"/><path class="cls-5" d="M85.08,363.91A12.51,12.51,0,1,1,72.57,351.4,12.51,12.51,0,0,1,85.08,363.91Z"/><path class="cls-5" d="M110.11,363.91A12.52,12.52,0,1,1,97.6,351.4,12.51,12.51,0,0,1,110.11,363.91Z"/><path class="cls-5" d="M135.14,363.91a12.52,12.52,0,1,1-12.51-12.51A12.51,12.51,0,0,1,135.14,363.91Z"/><path class="cls-5" d="M160.17,363.91a12.52,12.52,0,1,1-12.51-12.51A12.51,12.51,0,0,1,160.17,363.91Z"/><path class="cls-5" d="M185.2,363.91a12.52,12.52,0,1,1-12.52-12.51A12.52,12.52,0,0,1,185.2,363.91Z"/><path class="cls-5" d="M210.23,363.91a12.52,12.52,0,1,1-12.52-12.51A12.52,12.52,0,0,1,210.23,363.91Z"/><path class="cls-5" d="M235.25,363.91a12.51,12.51,0,1,1-12.51-12.51A12.51,12.51,0,0,1,235.25,363.91Z"/><path class="cls-5" d="M260.28,363.91a12.52,12.52,0,1,1-12.51-12.51A12.51,12.51,0,0,1,260.28,363.91Z"/><path class="cls-5" d="M285.31,363.91A12.52,12.52,0,1,1,272.8,351.4,12.51,12.51,0,0,1,285.31,363.91Z"/><path class="cls-5" d="M310.34,363.91a12.52,12.52,0,1,1-12.52-12.51A12.51,12.51,0,0,1,310.34,363.91Z"/><path class="cls-5" d="M10,363.91a12.52,12.52,0,0,1,0,25"/><path class="cls-5" d="M47.54,376.42A12.52,12.52,0,1,1,35,363.91,12.51,12.51,0,0,1,47.54,376.42Z"/><path class="cls-5" d="M72.57,376.42a12.52,12.52,0,1,1-12.51-12.51A12.51,12.51,0,0,1,72.57,376.42Z"/><path class="cls-5" d="M97.6,376.42a12.52,12.52,0,1,1-12.52-12.51A12.51,12.51,0,0,1,97.6,376.42Z"/><path class="cls-5" d="M122.63,376.42a12.52,12.52,0,1,1-12.52-12.51A12.52,12.52,0,0,1,122.63,376.42Z"/><path class="cls-5" d="M147.66,376.42a12.52,12.52,0,1,1-12.52-12.51A12.52,12.52,0,0,1,147.66,376.42Z"/><path class="cls-5" d="M172.68,376.42a12.51,12.51,0,1,1-12.51-12.51A12.51,12.51,0,0,1,172.68,376.42Z"/><path class="cls-5" d="M197.71,376.42a12.52,12.52,0,1,1-12.51-12.51A12.51,12.51,0,0,1,197.71,376.42Z"/><path class="cls-5" d="M222.74,376.42a12.52,12.52,0,1,1-12.51-12.51A12.51,12.51,0,0,1,222.74,376.42Z"/><path class="cls-5" d="M247.77,376.42a12.52,12.52,0,1,1-12.52-12.51A12.51,12.51,0,0,1,247.77,376.42Z"/><path class="cls-5" d="M272.8,376.42a12.52,12.52,0,1,1-12.52-12.51A12.52,12.52,0,0,1,272.8,376.42Z"/><path class="cls-5" d="M297.82,376.42a12.51,12.51,0,1,1-12.51-12.51A12.51,12.51,0,0,1,297.82,376.42Z"/><path class="cls-5" d="M310.34,388.94a12.52,12.52,0,1,1,0-25"/><path class="cls-5" d="M35,388.94a12.52,12.52,0,1,1-12.52-12.52A12.51,12.51,0,0,1,35,388.94Z"/><path class="cls-5" d="M60.06,388.94a12.52,12.52,0,1,1-12.52-12.52A12.52,12.52,0,0,1,60.06,388.94Z"/><path class="cls-5" d="M85.08,388.94a12.51,12.51,0,1,1-12.51-12.52A12.51,12.51,0,0,1,85.08,388.94Z"/><path class="cls-5" d="M110.11,388.94A12.52,12.52,0,1,1,97.6,376.42,12.51,12.51,0,0,1,110.11,388.94Z"/><path class="cls-5" d="M135.14,388.94a12.52,12.52,0,1,1-12.51-12.52A12.51,12.51,0,0,1,135.14,388.94Z"/><path class="cls-5" d="M160.17,388.94a12.52,12.52,0,1,1-12.51-12.52A12.51,12.51,0,0,1,160.17,388.94Z"/><path class="cls-5" d="M185.2,388.94a12.52,12.52,0,1,1-12.52-12.52A12.52,12.52,0,0,1,185.2,388.94Z"/><path class="cls-5" d="M210.23,388.94a12.52,12.52,0,1,1-12.52-12.52A12.52,12.52,0,0,1,210.23,388.94Z"/><path class="cls-5" d="M235.25,388.94a12.51,12.51,0,1,1-12.51-12.52A12.51,12.51,0,0,1,235.25,388.94Z"/><path class="cls-5" d="M260.28,388.94a12.52,12.52,0,1,1-12.51-12.52A12.51,12.51,0,0,1,260.28,388.94Z"/><circle class="cls-5" cx="272.8" cy="388.94" r="12.51"/><path class="cls-5" d="M310.34,388.94a12.52,12.52,0,1,1-12.52-12.52A12.51,12.51,0,0,1,310.34,388.94Z"/><path class="cls-5" d="M10,388.94a12.52,12.52,0,0,1,0,25"/><path class="cls-5" d="M47.54,401.45A12.52,12.52,0,1,1,35,388.94,12.52,12.52,0,0,1,47.54,401.45Z"/><path class="cls-5" d="M72.57,401.45a12.52,12.52,0,1,1-12.51-12.51A12.52,12.52,0,0,1,72.57,401.45Z"/><path class="cls-5" d="M97.6,401.45a12.52,12.52,0,1,1-12.52-12.51A12.52,12.52,0,0,1,97.6,401.45Z"/><path class="cls-5" d="M122.63,401.45a12.52,12.52,0,1,1-12.52-12.51A12.53,12.53,0,0,1,122.63,401.45Z"/><path class="cls-5" d="M147.66,401.45a12.52,12.52,0,1,1-12.52-12.51A12.53,12.53,0,0,1,147.66,401.45Z"/><path class="cls-5" d="M172.68,401.45a12.51,12.51,0,1,1-12.51-12.51A12.52,12.52,0,0,1,172.68,401.45Z"/><path class="cls-5" d="M197.71,401.45a12.52,12.52,0,1,1-12.51-12.51A12.52,12.52,0,0,1,197.71,401.45Z"/><path class="cls-5" d="M222.74,401.45a12.52,12.52,0,1,1-12.51-12.51A12.52,12.52,0,0,1,222.74,401.45Z"/><path class="cls-5" d="M247.77,401.45a12.52,12.52,0,1,1-12.52-12.51A12.52,12.52,0,0,1,247.77,401.45Z"/><path class="cls-5" d="M272.8,401.45a12.52,12.52,0,1,1-12.52-12.51A12.53,12.53,0,0,1,272.8,401.45Z"/><path class="cls-5" d="M297.82,401.45a12.51,12.51,0,1,1-12.51-12.51A12.52,12.52,0,0,1,297.82,401.45Z"/><path class="cls-5" d="M310.34,414a12.52,12.52,0,1,1,0-25"/><path class="cls-5" d="M35,414a12.52,12.52,0,1,1-12.52-12.52A12.51,12.51,0,0,1,35,414Z"/><path class="cls-5" d="M60.06,414a12.52,12.52,0,1,1-12.52-12.52A12.52,12.52,0,0,1,60.06,414Z"/><path class="cls-5" d="M85.08,414a12.51,12.51,0,1,1-12.51-12.52A12.51,12.51,0,0,1,85.08,414Z"/><path class="cls-5" d="M110.11,414A12.52,12.52,0,1,1,97.6,401.45,12.51,12.51,0,0,1,110.11,414Z"/><path class="cls-5" d="M135.14,414a12.52,12.52,0,1,1-12.51-12.52A12.51,12.51,0,0,1,135.14,414Z"/><path class="cls-5" d="M160.17,414a12.52,12.52,0,1,1-12.51-12.52A12.51,12.51,0,0,1,160.17,414Z"/><path class="cls-5" d="M185.2,414a12.52,12.52,0,1,1-12.52-12.52A12.52,12.52,0,0,1,185.2,414Z"/><path class="cls-5" d="M210.23,414a12.52,12.52,0,1,1-12.52-12.52A12.52,12.52,0,0,1,210.23,414Z"/><path class="cls-5" d="M235.25,414a12.51,12.51,0,1,1-12.51-12.52A12.51,12.51,0,0,1,235.25,414Z"/><path class="cls-5" d="M260.28,414a12.52,12.52,0,1,1-12.51-12.52A12.51,12.51,0,0,1,260.28,414Z"/><path class="cls-5" d="M285.31,414a12.52,12.52,0,1,1-12.51-12.52A12.51,12.51,0,0,1,285.31,414Z"/><path class="cls-5" d="M310.34,414a12.52,12.52,0,1,1-12.52-12.52A12.51,12.51,0,0,1,310.34,414Z"/><path class="cls-5" d="M10,414a12.51,12.51,0,0,1,0,25"/><path class="cls-5" d="M47.54,426.48A12.52,12.52,0,1,1,35,414,12.51,12.51,0,0,1,47.54,426.48Z"/><path class="cls-5" d="M72.57,426.48A12.52,12.52,0,1,1,60.06,414,12.51,12.51,0,0,1,72.57,426.48Z"/><path class="cls-5" d="M97.6,426.48A12.52,12.52,0,1,1,85.08,414,12.51,12.51,0,0,1,97.6,426.48Z"/><path class="cls-5" d="M122.63,426.48A12.52,12.52,0,1,1,110.11,414,12.52,12.52,0,0,1,122.63,426.48Z"/><path class="cls-5" d="M147.66,426.48A12.52,12.52,0,1,1,135.14,414,12.52,12.52,0,0,1,147.66,426.48Z"/><path class="cls-5" d="M172.68,426.48A12.51,12.51,0,1,1,160.17,414,12.51,12.51,0,0,1,172.68,426.48Z"/><path class="cls-5" d="M197.71,426.48A12.52,12.52,0,1,1,185.2,414,12.51,12.51,0,0,1,197.71,426.48Z"/><path class="cls-5" d="M222.74,426.48A12.52,12.52,0,1,1,210.23,414,12.51,12.51,0,0,1,222.74,426.48Z"/><path class="cls-5" d="M247.77,426.48A12.52,12.52,0,1,1,235.25,414,12.51,12.51,0,0,1,247.77,426.48Z"/><path class="cls-5" d="M272.8,426.48A12.52,12.52,0,1,1,260.28,414,12.52,12.52,0,0,1,272.8,426.48Z"/><path class="cls-5" d="M297.82,426.48A12.51,12.51,0,1,1,285.31,414,12.51,12.51,0,0,1,297.82,426.48Z"/><path class="cls-5" d="M310.34,439a12.51,12.51,0,1,1,0-25"/><path class="cls-5" d="M35,439a12.52,12.52,0,1,1-12.52-12.51A12.51,12.51,0,0,1,35,439Z"/><path class="cls-5" d="M60.06,439a12.52,12.52,0,1,1-12.52-12.51A12.52,12.52,0,0,1,60.06,439Z"/><path class="cls-5" d="M85.08,439a12.51,12.51,0,1,1-12.51-12.51A12.51,12.51,0,0,1,85.08,439Z"/><path class="cls-5" d="M110.11,439A12.52,12.52,0,1,1,97.6,426.48,12.51,12.51,0,0,1,110.11,439Z"/><path class="cls-5" d="M135.14,439a12.52,12.52,0,1,1-12.51-12.51A12.51,12.51,0,0,1,135.14,439Z"/><path class="cls-5" d="M160.17,439a12.52,12.52,0,1,1-12.51-12.51A12.51,12.51,0,0,1,160.17,439Z"/><path class="cls-5" d="M185.2,439a12.52,12.52,0,1,1-12.52-12.51A12.52,12.52,0,0,1,185.2,439Z"/><path class="cls-5" d="M210.23,439a12.52,12.52,0,1,1-12.52-12.51A12.52,12.52,0,0,1,210.23,439Z"/><path class="cls-5" d="M235.25,439a12.51,12.51,0,1,1-12.51-12.51A12.51,12.51,0,0,1,235.25,439Z"/><path class="cls-5" d="M260.28,439a12.52,12.52,0,1,1-12.51-12.51A12.51,12.51,0,0,1,260.28,439Z"/><circle class="cls-5" cx="272.8" cy="438.99" r="12.51" transform="translate(-172.87 700.75) rotate(-88.57)"/><path class="cls-5" d="M310.34,439a12.52,12.52,0,1,1-12.52-12.51A12.51,12.51,0,0,1,310.34,439Z"/><path class="cls-5" d="M10,439a12.52,12.52,0,0,1,0,25"/><path class="cls-5" d="M47.54,451.51A12.52,12.52,0,1,1,35,439,12.51,12.51,0,0,1,47.54,451.51Z"/><path class="cls-5" d="M72.57,451.51A12.52,12.52,0,1,1,60.06,439,12.51,12.51,0,0,1,72.57,451.51Z"/><path class="cls-5" d="M97.6,451.51A12.52,12.52,0,1,1,85.08,439,12.51,12.51,0,0,1,97.6,451.51Z"/><path class="cls-5" d="M122.63,451.51A12.52,12.52,0,1,1,110.11,439,12.52,12.52,0,0,1,122.63,451.51Z"/><path class="cls-5" d="M147.66,451.51A12.52,12.52,0,1,1,135.14,439,12.52,12.52,0,0,1,147.66,451.51Z"/><path class="cls-5" d="M172.68,451.51A12.51,12.51,0,1,1,160.17,439,12.51,12.51,0,0,1,172.68,451.51Z"/><path class="cls-5" d="M197.71,451.51A12.52,12.52,0,1,1,185.2,439,12.51,12.51,0,0,1,197.71,451.51Z"/><path class="cls-5" d="M222.74,451.51A12.52,12.52,0,1,1,210.23,439,12.51,12.51,0,0,1,222.74,451.51Z"/><path class="cls-5" d="M247.77,451.51A12.52,12.52,0,1,1,235.25,439,12.51,12.51,0,0,1,247.77,451.51Z"/><path class="cls-5" d="M272.8,451.51A12.52,12.52,0,1,1,260.28,439,12.52,12.52,0,0,1,272.8,451.51Z"/><path class="cls-5" d="M297.82,451.51A12.51,12.51,0,1,1,285.31,439,12.51,12.51,0,0,1,297.82,451.51Z"/><path class="cls-5" d="M310.34,464a12.52,12.52,0,1,1,0-25"/><path class="cls-5" d="M35,464a12.52,12.52,0,1,1-12.52-12.51A12.52,12.52,0,0,1,35,464Z"/><path class="cls-5" d="M60.06,464a12.52,12.52,0,1,1-12.52-12.51A12.53,12.53,0,0,1,60.06,464Z"/><path class="cls-5" d="M85.08,464a12.51,12.51,0,1,1-12.51-12.51A12.52,12.52,0,0,1,85.08,464Z"/><path class="cls-5" d="M110.11,464A12.52,12.52,0,1,1,97.6,451.51,12.52,12.52,0,0,1,110.11,464Z"/><path class="cls-5" d="M135.14,464a12.52,12.52,0,1,1-12.51-12.51A12.52,12.52,0,0,1,135.14,464Z"/><path class="cls-5" d="M160.17,464a12.52,12.52,0,1,1-12.51-12.51A12.52,12.52,0,0,1,160.17,464Z"/><path class="cls-5" d="M185.2,464a12.52,12.52,0,1,1-12.52-12.51A12.53,12.53,0,0,1,185.2,464Z"/><path class="cls-5" d="M210.23,464a12.52,12.52,0,1,1-12.52-12.51A12.53,12.53,0,0,1,210.23,464Z"/><path class="cls-5" d="M235.25,464a12.51,12.51,0,1,1-12.51-12.51A12.52,12.52,0,0,1,235.25,464Z"/><path class="cls-5" d="M260.28,464a12.52,12.52,0,1,1-12.51-12.51A12.52,12.52,0,0,1,260.28,464Z"/><circle class="cls-5" cx="272.8" cy="464.02" r="12.51" transform="translate(-197.31 726.2) rotate(-88.7)"/><path class="cls-5" d="M310.34,464a12.52,12.52,0,1,1-12.52-12.51A12.52,12.52,0,0,1,310.34,464Z"/><path class="cls-5" d="M10,464a12.52,12.52,0,0,1,0,25"/><path class="cls-5" d="M47.54,476.54A12.52,12.52,0,1,1,35,464,12.51,12.51,0,0,1,47.54,476.54Z"/><path class="cls-5" d="M72.57,476.54A12.52,12.52,0,1,1,60.06,464,12.51,12.51,0,0,1,72.57,476.54Z"/><path class="cls-5" d="M97.6,476.54A12.52,12.52,0,1,1,85.08,464,12.51,12.51,0,0,1,97.6,476.54Z"/><path class="cls-5" d="M122.63,476.54A12.52,12.52,0,1,1,110.11,464,12.52,12.52,0,0,1,122.63,476.54Z"/><path class="cls-5" d="M147.66,476.54A12.52,12.52,0,1,1,135.14,464,12.52,12.52,0,0,1,147.66,476.54Z"/><path class="cls-5" d="M172.68,476.54A12.51,12.51,0,1,1,160.17,464,12.51,12.51,0,0,1,172.68,476.54Z"/><path class="cls-5" d="M197.71,476.54A12.52,12.52,0,1,1,185.2,464,12.51,12.51,0,0,1,197.71,476.54Z"/><path class="cls-5" d="M222.74,476.54A12.52,12.52,0,1,1,210.23,464,12.51,12.51,0,0,1,222.74,476.54Z"/><path class="cls-5" d="M247.77,476.54A12.52,12.52,0,1,1,235.25,464,12.51,12.51,0,0,1,247.77,476.54Z"/><path class="cls-5" d="M272.8,476.54A12.52,12.52,0,1,1,260.28,464,12.52,12.52,0,0,1,272.8,476.54Z"/><path class="cls-5" d="M297.82,476.54A12.51,12.51,0,1,1,285.31,464,12.51,12.51,0,0,1,297.82,476.54Z"/><path class="cls-5" d="M310.34,489.05a12.52,12.52,0,1,1,0-25"/><path class="cls-5" d="M35,489.05a12.52,12.52,0,1,1-12.52-12.51A12.51,12.51,0,0,1,35,489.05Z"/><path class="cls-5" d="M60.06,489.05a12.52,12.52,0,1,1-12.52-12.51A12.52,12.52,0,0,1,60.06,489.05Z"/><path class="cls-5" d="M85.08,489.05a12.51,12.51,0,1,1-12.51-12.51A12.51,12.51,0,0,1,85.08,489.05Z"/><path class="cls-5" d="M110.11,489.05A12.52,12.52,0,1,1,97.6,476.54,12.51,12.51,0,0,1,110.11,489.05Z"/><path class="cls-5" d="M135.14,489.05a12.52,12.52,0,1,1-12.51-12.51A12.51,12.51,0,0,1,135.14,489.05Z"/><path class="cls-5" d="M160.17,489.05a12.52,12.52,0,1,1-12.51-12.51A12.51,12.51,0,0,1,160.17,489.05Z"/><path class="cls-5" d="M185.2,489.05a12.52,12.52,0,1,1-12.52-12.51A12.52,12.52,0,0,1,185.2,489.05Z"/><path class="cls-5" d="M210.23,489.05a12.52,12.52,0,1,1-12.52-12.51A12.52,12.52,0,0,1,210.23,489.05Z"/><path class="cls-5" d="M235.25,489.05a12.51,12.51,0,1,1-12.51-12.51A12.51,12.51,0,0,1,235.25,489.05Z"/><path class="cls-5" d="M260.28,489.05a12.52,12.52,0,1,1-12.51-12.51A12.51,12.51,0,0,1,260.28,489.05Z"/><path class="cls-5" d="M285.31,489.05a12.52,12.52,0,1,1-12.51-12.51A12.51,12.51,0,0,1,285.31,489.05Z"/><path class="cls-5" d="M310.34,489.05a12.52,12.52,0,1,1-12.52-12.51A12.51,12.51,0,0,1,310.34,489.05Z"/><path class="cls-5" d="M10,489.05a12.52,12.52,0,0,1,0,25"/><path class="cls-5" d="M47.54,501.56A12.52,12.52,0,1,1,35,489.05,12.51,12.51,0,0,1,47.54,501.56Z"/><path class="cls-5" d="M72.57,501.56a12.52,12.52,0,1,1-12.51-12.51A12.51,12.51,0,0,1,72.57,501.56Z"/><path class="cls-5" d="M97.6,501.56a12.52,12.52,0,1,1-12.52-12.51A12.51,12.51,0,0,1,97.6,501.56Z"/><path class="cls-5" d="M122.63,501.56a12.52,12.52,0,1,1-12.52-12.51A12.52,12.52,0,0,1,122.63,501.56Z"/><path class="cls-5" d="M147.66,501.56a12.52,12.52,0,1,1-12.52-12.51A12.52,12.52,0,0,1,147.66,501.56Z"/><path class="cls-5" d="M172.68,501.56a12.51,12.51,0,1,1-12.51-12.51A12.51,12.51,0,0,1,172.68,501.56Z"/><path class="cls-5" d="M197.71,501.56a12.52,12.52,0,1,1-12.51-12.51A12.51,12.51,0,0,1,197.71,501.56Z"/><path class="cls-5" d="M222.74,501.56a12.52,12.52,0,1,1-12.51-12.51A12.51,12.51,0,0,1,222.74,501.56Z"/><path class="cls-5" d="M247.77,501.56a12.52,12.52,0,1,1-12.52-12.51A12.51,12.51,0,0,1,247.77,501.56Z"/><path class="cls-5" d="M272.8,501.56a12.52,12.52,0,1,1-12.52-12.51A12.52,12.52,0,0,1,272.8,501.56Z"/><path class="cls-5" d="M297.82,501.56a12.51,12.51,0,1,1-12.51-12.51A12.51,12.51,0,0,1,297.82,501.56Z"/><path class="cls-5" d="M310.34,514.08a12.52,12.52,0,1,1,0-25"/><path class="cls-5" d="M10,514.08a12.52,12.52,0,1,1,25,0"/><path class="cls-5" d="M35,514.08a12.52,12.52,0,1,1,25,0"/><path class="cls-5" d="M60.06,514.08a12.51,12.51,0,1,1,25,0"/><path class="cls-5" d="M85.08,514.08a12.52,12.52,0,1,1,25,0"/><path class="cls-5" d="M110.11,514.08a12.52,12.52,0,1,1,25,0"/><path class="cls-5" d="M135.14,514.08a12.52,12.52,0,1,1,25,0"/><path class="cls-5" d="M160.17,514.08a12.52,12.52,0,1,1,25,0"/><path class="cls-5" d="M185.2,514.08a12.52,12.52,0,1,1,25,0"/><path class="cls-5" d="M210.23,514.08a12.51,12.51,0,1,1,25,0"/><path class="cls-5" d="M235.25,514.08a12.52,12.52,0,1,1,25,0"/><path class="cls-5" d="M260.28,514.08a12.52,12.52,0,1,1,25,0"/><path class="cls-5" d="M285.31,514.08a12.52,12.52,0,1,1,25,0"/><path class="cls-6" d="M36.57,26a1.51,1.51,0,1,1-1.51-1.51A1.52,1.52,0,0,1,36.57,26Z"/><path class="cls-6" d="M61.59,26a1.51,1.51,0,1,1-1.51-1.51A1.51,1.51,0,0,1,61.59,26Z"/><path class="cls-6" d="M86.62,26a1.51,1.51,0,1,1-1.51-1.51A1.51,1.51,0,0,1,86.62,26Z"/><path class="cls-6" d="M111.65,26a1.51,1.51,0,1,1-1.51-1.51A1.51,1.51,0,0,1,111.65,26Z"/><path class="cls-6" d="M136.68,26a1.51,1.51,0,1,1-1.51-1.51A1.52,1.52,0,0,1,136.68,26Z"/><path class="cls-6" d="M161.71,26a1.51,1.51,0,1,1-1.51-1.51A1.52,1.52,0,0,1,161.71,26Z"/><path class="cls-6" d="M186.74,26a1.52,1.52,0,1,1-1.51-1.51A1.52,1.52,0,0,1,186.74,26Z"/><path class="cls-6" d="M211.76,26a1.51,1.51,0,1,1-1.51-1.51A1.51,1.51,0,0,1,211.76,26Z"/><path class="cls-6" d="M236.79,26a1.51,1.51,0,1,1-1.51-1.51A1.51,1.51,0,0,1,236.79,26Z"/><path class="cls-6" d="M261.82,26a1.51,1.51,0,1,1-1.51-1.51A1.52,1.52,0,0,1,261.82,26Z"/><path class="cls-6" d="M286.85,26a1.51,1.51,0,1,1-1.51-1.51A1.52,1.52,0,0,1,286.85,26Z"/><path class="cls-6" d="M36.57,51.06a1.51,1.51,0,1,1-1.51-1.51A1.52,1.52,0,0,1,36.57,51.06Z"/><path class="cls-6" d="M61.59,51.06a1.51,1.51,0,1,1-1.51-1.51A1.51,1.51,0,0,1,61.59,51.06Z"/><path class="cls-6" d="M86.62,51.06a1.51,1.51,0,1,1-1.51-1.51A1.51,1.51,0,0,1,86.62,51.06Z"/><path class="cls-6" d="M111.65,51.06a1.51,1.51,0,1,1-1.51-1.51A1.51,1.51,0,0,1,111.65,51.06Z"/><path class="cls-6" d="M136.68,51.06a1.51,1.51,0,1,1-1.51-1.51A1.52,1.52,0,0,1,136.68,51.06Z"/><path class="cls-6" d="M161.71,51.06a1.51,1.51,0,1,1-1.51-1.51A1.52,1.52,0,0,1,161.71,51.06Z"/><path class="cls-6" d="M186.74,51.06a1.52,1.52,0,1,1-1.51-1.51A1.52,1.52,0,0,1,186.74,51.06Z"/><path class="cls-6" d="M211.76,51.06a1.51,1.51,0,1,1-1.51-1.51A1.51,1.51,0,0,1,211.76,51.06Z"/><path class="cls-6" d="M236.79,51.06a1.51,1.51,0,1,1-1.51-1.51A1.51,1.51,0,0,1,236.79,51.06Z"/><path class="cls-6" d="M261.82,51.06a1.51,1.51,0,1,1-1.51-1.51A1.52,1.52,0,0,1,261.82,51.06Z"/><path class="cls-6" d="M286.85,51.06a1.51,1.51,0,1,1-1.51-1.51A1.52,1.52,0,0,1,286.85,51.06Z"/><path class="cls-6" d="M36.57,76.09a1.51,1.51,0,1,1-1.51-1.52A1.51,1.51,0,0,1,36.57,76.09Z"/><path class="cls-6" d="M61.59,76.09a1.51,1.51,0,0,1-3,0,1.51,1.51,0,1,1,3,0Z"/><path class="cls-6" d="M86.62,76.09a1.51,1.51,0,0,1-3,0,1.51,1.51,0,1,1,3,0Z"/><path class="cls-6" d="M111.65,76.09a1.51,1.51,0,0,1-3,0,1.51,1.51,0,1,1,3,0Z"/><path class="cls-6" d="M136.68,76.09a1.51,1.51,0,1,1-1.51-1.52A1.51,1.51,0,0,1,136.68,76.09Z"/><path class="cls-6" d="M161.71,76.09a1.51,1.51,0,1,1-1.51-1.52A1.51,1.51,0,0,1,161.71,76.09Z"/><path class="cls-6" d="M186.74,76.09a1.52,1.52,0,1,1-1.51-1.52A1.51,1.51,0,0,1,186.74,76.09Z"/><path class="cls-6" d="M211.76,76.09a1.51,1.51,0,0,1-3,0,1.51,1.51,0,1,1,3,0Z"/><path class="cls-6" d="M236.79,76.09a1.51,1.51,0,0,1-3,0,1.51,1.51,0,1,1,3,0Z"/><path class="cls-6" d="M261.82,76.09a1.51,1.51,0,1,1-1.51-1.52A1.51,1.51,0,0,1,261.82,76.09Z"/><path class="cls-6" d="M286.85,76.09a1.51,1.51,0,1,1-1.51-1.52A1.51,1.51,0,0,1,286.85,76.09Z"/><path class="cls-6" d="M36.57,101.11a1.51,1.51,0,1,1-1.51-1.51A1.51,1.51,0,0,1,36.57,101.11Z"/><path class="cls-6" d="M61.59,101.11a1.51,1.51,0,1,1-1.51-1.51A1.5,1.5,0,0,1,61.59,101.11Z"/><path class="cls-6" d="M86.62,101.11a1.51,1.51,0,1,1-1.51-1.51A1.5,1.5,0,0,1,86.62,101.11Z"/><path class="cls-6" d="M111.65,101.11a1.51,1.51,0,1,1-1.51-1.51A1.5,1.5,0,0,1,111.65,101.11Z"/><path class="cls-6" d="M136.68,101.11a1.51,1.51,0,1,1-1.51-1.51A1.51,1.51,0,0,1,136.68,101.11Z"/><path class="cls-6" d="M161.71,101.11a1.51,1.51,0,1,1-1.51-1.51A1.51,1.51,0,0,1,161.71,101.11Z"/><path class="cls-6" d="M186.74,101.11a1.52,1.52,0,1,1-1.51-1.51A1.51,1.51,0,0,1,186.74,101.11Z"/><path class="cls-6" d="M211.76,101.11a1.51,1.51,0,1,1-1.51-1.51A1.5,1.5,0,0,1,211.76,101.11Z"/><path class="cls-6" d="M236.79,101.11a1.51,1.51,0,1,1-1.51-1.51A1.5,1.5,0,0,1,236.79,101.11Z"/><path class="cls-6" d="M261.82,101.11a1.51,1.51,0,1,1-1.51-1.51A1.51,1.51,0,0,1,261.82,101.11Z"/><path class="cls-6" d="M286.85,101.11a1.51,1.51,0,1,1-1.51-1.51A1.51,1.51,0,0,1,286.85,101.11Z"/><path class="cls-6" d="M36.57,126.14a1.51,1.51,0,1,1-1.51-1.51A1.51,1.51,0,0,1,36.57,126.14Z"/><path class="cls-6" d="M61.59,126.14a1.51,1.51,0,1,1-1.51-1.51A1.5,1.5,0,0,1,61.59,126.14Z"/><path class="cls-6" d="M86.62,126.14a1.51,1.51,0,1,1-1.51-1.51A1.5,1.5,0,0,1,86.62,126.14Z"/><path class="cls-6" d="M111.65,126.14a1.51,1.51,0,1,1-1.51-1.51A1.5,1.5,0,0,1,111.65,126.14Z"/><path class="cls-6" d="M136.68,126.14a1.51,1.51,0,1,1-1.51-1.51A1.51,1.51,0,0,1,136.68,126.14Z"/><path class="cls-6" d="M161.71,126.14a1.51,1.51,0,1,1-1.51-1.51A1.51,1.51,0,0,1,161.71,126.14Z"/><path class="cls-6" d="M186.74,126.14a1.52,1.52,0,1,1-1.51-1.51A1.51,1.51,0,0,1,186.74,126.14Z"/><path class="cls-6" d="M211.76,126.14a1.51,1.51,0,1,1-1.51-1.51A1.5,1.5,0,0,1,211.76,126.14Z"/><path class="cls-6" d="M236.79,126.14a1.51,1.51,0,1,1-1.51-1.51A1.5,1.5,0,0,1,236.79,126.14Z"/><path class="cls-6" d="M261.82,126.14a1.51,1.51,0,1,1-1.51-1.51A1.51,1.51,0,0,1,261.82,126.14Z"/><path class="cls-6" d="M286.85,126.14a1.51,1.51,0,1,1-1.51-1.51A1.51,1.51,0,0,1,286.85,126.14Z"/><path class="cls-6" d="M36.57,151.17a1.51,1.51,0,1,1-1.51-1.51A1.52,1.52,0,0,1,36.57,151.17Z"/><path class="cls-6" d="M61.59,151.17a1.51,1.51,0,1,1-1.51-1.51A1.51,1.51,0,0,1,61.59,151.17Z"/><path class="cls-6" d="M86.62,151.17a1.51,1.51,0,1,1-1.51-1.51A1.51,1.51,0,0,1,86.62,151.17Z"/><path class="cls-6" d="M111.65,151.17a1.51,1.51,0,1,1-1.51-1.51A1.51,1.51,0,0,1,111.65,151.17Z"/><path class="cls-6" d="M136.68,151.17a1.51,1.51,0,1,1-1.51-1.51A1.52,1.52,0,0,1,136.68,151.17Z"/><path class="cls-6" d="M161.71,151.17a1.51,1.51,0,1,1-1.51-1.51A1.52,1.52,0,0,1,161.71,151.17Z"/><path class="cls-6" d="M186.74,151.17a1.52,1.52,0,1,1-1.51-1.51A1.52,1.52,0,0,1,186.74,151.17Z"/><path class="cls-6" d="M211.76,151.17a1.51,1.51,0,1,1-1.51-1.51A1.51,1.51,0,0,1,211.76,151.17Z"/><path class="cls-6" d="M236.79,151.17a1.51,1.51,0,1,1-1.51-1.51A1.51,1.51,0,0,1,236.79,151.17Z"/><path class="cls-6" d="M261.82,151.17a1.51,1.51,0,1,1-1.51-1.51A1.52,1.52,0,0,1,261.82,151.17Z"/><path class="cls-6" d="M286.85,151.17a1.51,1.51,0,1,1-1.51-1.51A1.52,1.52,0,0,1,286.85,151.17Z"/><path class="cls-6" d="M36.57,176.2a1.51,1.51,0,1,1-1.51-1.51A1.52,1.52,0,0,1,36.57,176.2Z"/><path class="cls-6" d="M61.59,176.2a1.51,1.51,0,1,1-1.51-1.51A1.51,1.51,0,0,1,61.59,176.2Z"/><path class="cls-6" d="M86.62,176.2a1.51,1.51,0,1,1-1.51-1.51A1.51,1.51,0,0,1,86.62,176.2Z"/><path class="cls-6" d="M111.65,176.2a1.51,1.51,0,1,1-1.51-1.51A1.51,1.51,0,0,1,111.65,176.2Z"/><path class="cls-6" d="M136.68,176.2a1.51,1.51,0,1,1-1.51-1.51A1.52,1.52,0,0,1,136.68,176.2Z"/><path class="cls-6" d="M161.71,176.2a1.51,1.51,0,1,1-1.51-1.51A1.52,1.52,0,0,1,161.71,176.2Z"/><path class="cls-6" d="M186.74,176.2a1.52,1.52,0,1,1-1.51-1.51A1.52,1.52,0,0,1,186.74,176.2Z"/><path class="cls-6" d="M211.76,176.2a1.51,1.51,0,1,1-1.51-1.51A1.51,1.51,0,0,1,211.76,176.2Z"/><path class="cls-6" d="M236.79,176.2a1.51,1.51,0,1,1-1.51-1.51A1.51,1.51,0,0,1,236.79,176.2Z"/><path class="cls-6" d="M261.82,176.2a1.51,1.51,0,1,1-1.51-1.51A1.52,1.52,0,0,1,261.82,176.2Z"/><path class="cls-6" d="M286.85,176.2a1.51,1.51,0,1,1-1.51-1.51A1.52,1.52,0,0,1,286.85,176.2Z"/><path class="cls-6" d="M36.57,201.23a1.51,1.51,0,1,1-1.51-1.52A1.52,1.52,0,0,1,36.57,201.23Z"/><path class="cls-6" d="M61.59,201.23a1.51,1.51,0,1,1-1.51-1.52A1.51,1.51,0,0,1,61.59,201.23Z"/><path class="cls-6" d="M86.62,201.23a1.51,1.51,0,1,1-1.51-1.52A1.51,1.51,0,0,1,86.62,201.23Z"/><path class="cls-6" d="M111.65,201.23a1.51,1.51,0,1,1-1.51-1.52A1.51,1.51,0,0,1,111.65,201.23Z"/><path class="cls-6" d="M136.68,201.23a1.51,1.51,0,1,1-1.51-1.52A1.52,1.52,0,0,1,136.68,201.23Z"/><path class="cls-6" d="M161.71,201.23a1.51,1.51,0,1,1-1.51-1.52A1.52,1.52,0,0,1,161.71,201.23Z"/><path class="cls-6" d="M186.74,201.23a1.52,1.52,0,1,1-1.51-1.52A1.52,1.52,0,0,1,186.74,201.23Z"/><path class="cls-6" d="M211.76,201.23a1.51,1.51,0,1,1-1.51-1.52A1.51,1.51,0,0,1,211.76,201.23Z"/><path class="cls-6" d="M236.79,201.23a1.51,1.51,0,1,1-1.51-1.52A1.51,1.51,0,0,1,236.79,201.23Z"/><path class="cls-6" d="M261.82,201.23a1.51,1.51,0,1,1-1.51-1.52A1.52,1.52,0,0,1,261.82,201.23Z"/><path class="cls-6" d="M286.85,201.23a1.51,1.51,0,1,1-1.51-1.52A1.52,1.52,0,0,1,286.85,201.23Z"/><path class="cls-6" d="M36.57,226.25a1.51,1.51,0,1,1-1.51-1.51A1.51,1.51,0,0,1,36.57,226.25Z"/><path class="cls-6" d="M61.59,226.25a1.51,1.51,0,1,1-1.51-1.51A1.5,1.5,0,0,1,61.59,226.25Z"/><path class="cls-6" d="M86.62,226.25a1.51,1.51,0,1,1-1.51-1.51A1.5,1.5,0,0,1,86.62,226.25Z"/><path class="cls-6" d="M111.65,226.25a1.51,1.51,0,1,1-1.51-1.51A1.5,1.5,0,0,1,111.65,226.25Z"/><path class="cls-6" d="M136.68,226.25a1.51,1.51,0,1,1-1.51-1.51A1.51,1.51,0,0,1,136.68,226.25Z"/><path class="cls-6" d="M161.71,226.25a1.51,1.51,0,1,1-1.51-1.51A1.51,1.51,0,0,1,161.71,226.25Z"/><path class="cls-6" d="M186.74,226.25a1.52,1.52,0,1,1-1.51-1.51A1.51,1.51,0,0,1,186.74,226.25Z"/><path class="cls-6" d="M211.76,226.25a1.51,1.51,0,1,1-1.51-1.51A1.5,1.5,0,0,1,211.76,226.25Z"/><path class="cls-6" d="M236.79,226.25a1.51,1.51,0,1,1-1.51-1.51A1.5,1.5,0,0,1,236.79,226.25Z"/><path class="cls-6" d="M261.82,226.25a1.51,1.51,0,1,1-1.51-1.51A1.51,1.51,0,0,1,261.82,226.25Z"/><path class="cls-6" d="M286.85,226.25a1.51,1.51,0,1,1-1.51-1.51A1.51,1.51,0,0,1,286.85,226.25Z"/><path class="cls-6" d="M36.57,251.28a1.51,1.51,0,1,1-1.51-1.51A1.51,1.51,0,0,1,36.57,251.28Z"/><path class="cls-6" d="M61.59,251.28a1.51,1.51,0,1,1-1.51-1.51A1.5,1.5,0,0,1,61.59,251.28Z"/><path class="cls-6" d="M86.62,251.28a1.51,1.51,0,1,1-1.51-1.51A1.5,1.5,0,0,1,86.62,251.28Z"/><path class="cls-6" d="M111.65,251.28a1.51,1.51,0,1,1-1.51-1.51A1.5,1.5,0,0,1,111.65,251.28Z"/><path class="cls-6" d="M136.68,251.28a1.51,1.51,0,1,1-1.51-1.51A1.51,1.51,0,0,1,136.68,251.28Z"/><path class="cls-6" d="M161.71,251.28a1.51,1.51,0,1,1-1.51-1.51A1.51,1.51,0,0,1,161.71,251.28Z"/><path class="cls-6" d="M186.74,251.28a1.52,1.52,0,1,1-1.51-1.51A1.51,1.51,0,0,1,186.74,251.28Z"/><path class="cls-6" d="M211.76,251.28a1.51,1.51,0,1,1-1.51-1.51A1.5,1.5,0,0,1,211.76,251.28Z"/><path class="cls-6" d="M236.79,251.28a1.51,1.51,0,1,1-1.51-1.51A1.5,1.5,0,0,1,236.79,251.28Z"/><path class="cls-6" d="M261.82,251.28a1.51,1.51,0,1,1-1.51-1.51A1.51,1.51,0,0,1,261.82,251.28Z"/><path class="cls-6" d="M286.85,251.28a1.51,1.51,0,1,1-1.51-1.51A1.51,1.51,0,0,1,286.85,251.28Z"/><path class="cls-6" d="M36.57,276.31a1.51,1.51,0,1,1-1.51-1.51A1.52,1.52,0,0,1,36.57,276.31Z"/><path class="cls-6" d="M61.59,276.31a1.51,1.51,0,1,1-1.51-1.51A1.51,1.51,0,0,1,61.59,276.31Z"/><path class="cls-6" d="M86.62,276.31a1.51,1.51,0,1,1-1.51-1.51A1.51,1.51,0,0,1,86.62,276.31Z"/><path class="cls-6" d="M111.65,276.31a1.51,1.51,0,1,1-1.51-1.51A1.51,1.51,0,0,1,111.65,276.31Z"/><path class="cls-6" d="M136.68,276.31a1.51,1.51,0,1,1-1.51-1.51A1.52,1.52,0,0,1,136.68,276.31Z"/><path class="cls-6" d="M161.71,276.31a1.51,1.51,0,1,1-1.51-1.51A1.52,1.52,0,0,1,161.71,276.31Z"/><path class="cls-6" d="M186.74,276.31a1.52,1.52,0,1,1-1.51-1.51A1.52,1.52,0,0,1,186.74,276.31Z"/><path class="cls-6" d="M211.76,276.31a1.51,1.51,0,1,1-1.51-1.51A1.51,1.51,0,0,1,211.76,276.31Z"/><path class="cls-6" d="M236.79,276.31a1.51,1.51,0,1,1-1.51-1.51A1.51,1.51,0,0,1,236.79,276.31Z"/><path class="cls-6" d="M261.82,276.31a1.51,1.51,0,1,1-1.51-1.51A1.52,1.52,0,0,1,261.82,276.31Z"/><path class="cls-6" d="M286.85,276.31a1.51,1.51,0,1,1-1.51-1.51A1.52,1.52,0,0,1,286.85,276.31Z"/><path class="cls-6" d="M36.57,301.34a1.51,1.51,0,1,1-1.51-1.51A1.52,1.52,0,0,1,36.57,301.34Z"/><path class="cls-6" d="M61.59,301.34a1.51,1.51,0,1,1-1.51-1.51A1.51,1.51,0,0,1,61.59,301.34Z"/><path class="cls-6" d="M86.62,301.34a1.51,1.51,0,1,1-1.51-1.51A1.51,1.51,0,0,1,86.62,301.34Z"/><path class="cls-6" d="M111.65,301.34a1.51,1.51,0,1,1-1.51-1.51A1.51,1.51,0,0,1,111.65,301.34Z"/><path class="cls-6" d="M136.68,301.34a1.51,1.51,0,1,1-1.51-1.51A1.52,1.52,0,0,1,136.68,301.34Z"/><path class="cls-6" d="M161.71,301.34a1.51,1.51,0,1,1-1.51-1.51A1.52,1.52,0,0,1,161.71,301.34Z"/><path class="cls-6" d="M186.74,301.34a1.52,1.52,0,1,1-1.51-1.51A1.52,1.52,0,0,1,186.74,301.34Z"/><path class="cls-6" d="M211.76,301.34a1.51,1.51,0,1,1-1.51-1.51A1.51,1.51,0,0,1,211.76,301.34Z"/><path class="cls-6" d="M236.79,301.34a1.51,1.51,0,1,1-1.51-1.51A1.51,1.51,0,0,1,236.79,301.34Z"/><path class="cls-6" d="M261.82,301.34a1.51,1.51,0,1,1-1.51-1.51A1.52,1.52,0,0,1,261.82,301.34Z"/><path class="cls-6" d="M286.85,301.34a1.51,1.51,0,1,1-1.51-1.51A1.52,1.52,0,0,1,286.85,301.34Z"/><path class="cls-6" d="M36.57,326.37a1.51,1.51,0,1,1-1.51-1.51A1.52,1.52,0,0,1,36.57,326.37Z"/><path class="cls-6" d="M61.59,326.37a1.51,1.51,0,1,1-1.51-1.51A1.51,1.51,0,0,1,61.59,326.37Z"/><path class="cls-6" d="M86.62,326.37a1.51,1.51,0,1,1-1.51-1.51A1.51,1.51,0,0,1,86.62,326.37Z"/><path class="cls-6" d="M111.65,326.37a1.51,1.51,0,1,1-1.51-1.51A1.51,1.51,0,0,1,111.65,326.37Z"/><path class="cls-6" d="M136.68,326.37a1.51,1.51,0,1,1-1.51-1.51A1.52,1.52,0,0,1,136.68,326.37Z"/><path class="cls-6" d="M161.71,326.37a1.51,1.51,0,1,1-1.51-1.51A1.52,1.52,0,0,1,161.71,326.37Z"/><path class="cls-6" d="M186.74,326.37a1.52,1.52,0,1,1-1.51-1.51A1.52,1.52,0,0,1,186.74,326.37Z"/><path class="cls-6" d="M211.76,326.37a1.51,1.51,0,1,1-1.51-1.51A1.51,1.51,0,0,1,211.76,326.37Z"/><path class="cls-6" d="M236.79,326.37a1.51,1.51,0,1,1-1.51-1.51A1.51,1.51,0,0,1,236.79,326.37Z"/><path class="cls-6" d="M261.82,326.37a1.51,1.51,0,1,1-1.51-1.51A1.52,1.52,0,0,1,261.82,326.37Z"/><path class="cls-6" d="M286.85,326.37a1.51,1.51,0,1,1-1.51-1.51A1.52,1.52,0,0,1,286.85,326.37Z"/><path class="cls-6" d="M36.57,351.4a1.51,1.51,0,1,1-1.51-1.52A1.52,1.52,0,0,1,36.57,351.4Z"/><path class="cls-6" d="M61.59,351.4a1.51,1.51,0,1,1-1.51-1.52A1.51,1.51,0,0,1,61.59,351.4Z"/><path class="cls-6" d="M86.62,351.4a1.51,1.51,0,1,1-1.51-1.52A1.51,1.51,0,0,1,86.62,351.4Z"/><path class="cls-6" d="M111.65,351.4a1.51,1.51,0,1,1-1.51-1.52A1.51,1.51,0,0,1,111.65,351.4Z"/><path class="cls-6" d="M136.68,351.4a1.51,1.51,0,1,1-1.51-1.52A1.52,1.52,0,0,1,136.68,351.4Z"/><path class="cls-6" d="M161.71,351.4a1.51,1.51,0,1,1-1.51-1.52A1.52,1.52,0,0,1,161.71,351.4Z"/><path class="cls-6" d="M186.74,351.4a1.52,1.52,0,1,1-1.51-1.52A1.52,1.52,0,0,1,186.74,351.4Z"/><path class="cls-6" d="M211.76,351.4a1.51,1.51,0,1,1-1.51-1.52A1.51,1.51,0,0,1,211.76,351.4Z"/><path class="cls-6" d="M236.79,351.4a1.51,1.51,0,1,1-1.51-1.52A1.51,1.51,0,0,1,236.79,351.4Z"/><path class="cls-6" d="M261.82,351.4a1.51,1.51,0,1,1-1.51-1.52A1.52,1.52,0,0,1,261.82,351.4Z"/><path class="cls-6" d="M286.85,351.4a1.51,1.51,0,1,1-1.51-1.52A1.52,1.52,0,0,1,286.85,351.4Z"/><path class="cls-6" d="M36.57,376.42a1.51,1.51,0,1,1-1.51-1.51A1.51,1.51,0,0,1,36.57,376.42Z"/><path class="cls-6" d="M61.59,376.42a1.51,1.51,0,1,1-1.51-1.51A1.5,1.5,0,0,1,61.59,376.42Z"/><path class="cls-6" d="M86.62,376.42a1.51,1.51,0,1,1-1.51-1.51A1.5,1.5,0,0,1,86.62,376.42Z"/><path class="cls-6" d="M111.65,376.42a1.51,1.51,0,1,1-1.51-1.51A1.5,1.5,0,0,1,111.65,376.42Z"/><path class="cls-6" d="M136.68,376.42a1.51,1.51,0,1,1-1.51-1.51A1.51,1.51,0,0,1,136.68,376.42Z"/><path class="cls-6" d="M161.71,376.42a1.51,1.51,0,1,1-1.51-1.51A1.51,1.51,0,0,1,161.71,376.42Z"/><path class="cls-6" d="M186.74,376.42a1.52,1.52,0,1,1-1.51-1.51A1.51,1.51,0,0,1,186.74,376.42Z"/><path class="cls-6" d="M211.76,376.42a1.51,1.51,0,1,1-1.51-1.51A1.5,1.5,0,0,1,211.76,376.42Z"/><path class="cls-6" d="M236.79,376.42a1.51,1.51,0,1,1-1.51-1.51A1.5,1.5,0,0,1,236.79,376.42Z"/><path class="cls-6" d="M261.82,376.42a1.51,1.51,0,1,1-1.51-1.51A1.51,1.51,0,0,1,261.82,376.42Z"/><path class="cls-6" d="M286.85,376.42a1.51,1.51,0,1,1-1.51-1.51A1.51,1.51,0,0,1,286.85,376.42Z"/><path class="cls-6" d="M36.57,401.45a1.51,1.51,0,1,1-1.51-1.51A1.51,1.51,0,0,1,36.57,401.45Z"/><path class="cls-6" d="M61.59,401.45a1.51,1.51,0,1,1-1.51-1.51A1.5,1.5,0,0,1,61.59,401.45Z"/><path class="cls-6" d="M86.62,401.45a1.51,1.51,0,1,1-1.51-1.51A1.5,1.5,0,0,1,86.62,401.45Z"/><path class="cls-6" d="M111.65,401.45a1.51,1.51,0,1,1-1.51-1.51A1.5,1.5,0,0,1,111.65,401.45Z"/><path class="cls-6" d="M136.68,401.45a1.51,1.51,0,1,1-1.51-1.51A1.51,1.51,0,0,1,136.68,401.45Z"/><path class="cls-6" d="M161.71,401.45a1.51,1.51,0,1,1-1.51-1.51A1.51,1.51,0,0,1,161.71,401.45Z"/><path class="cls-6" d="M186.74,401.45a1.52,1.52,0,1,1-1.51-1.51A1.51,1.51,0,0,1,186.74,401.45Z"/><path class="cls-6" d="M211.76,401.45a1.51,1.51,0,1,1-1.51-1.51A1.5,1.5,0,0,1,211.76,401.45Z"/><path class="cls-6" d="M236.79,401.45a1.51,1.51,0,1,1-1.51-1.51A1.5,1.5,0,0,1,236.79,401.45Z"/><path class="cls-6" d="M261.82,401.45a1.51,1.51,0,1,1-1.51-1.51A1.51,1.51,0,0,1,261.82,401.45Z"/><path class="cls-6" d="M286.85,401.45a1.51,1.51,0,1,1-1.51-1.51A1.51,1.51,0,0,1,286.85,401.45Z"/><path class="cls-6" d="M36.57,426.48A1.51,1.51,0,1,1,35.06,425,1.52,1.52,0,0,1,36.57,426.48Z"/><path class="cls-6" d="M61.59,426.48A1.51,1.51,0,1,1,60.08,425,1.51,1.51,0,0,1,61.59,426.48Z"/><path class="cls-6" d="M86.62,426.48A1.51,1.51,0,1,1,85.11,425,1.51,1.51,0,0,1,86.62,426.48Z"/><path class="cls-6" d="M111.65,426.48a1.51,1.51,0,1,1-1.51-1.51A1.51,1.51,0,0,1,111.65,426.48Z"/><path class="cls-6" d="M136.68,426.48a1.51,1.51,0,1,1-1.51-1.51A1.52,1.52,0,0,1,136.68,426.48Z"/><path class="cls-6" d="M161.71,426.48A1.51,1.51,0,1,1,160.2,425,1.52,1.52,0,0,1,161.71,426.48Z"/><path class="cls-6" d="M186.74,426.48a1.52,1.52,0,1,1-1.51-1.51A1.52,1.52,0,0,1,186.74,426.48Z"/><path class="cls-6" d="M211.76,426.48a1.51,1.51,0,1,1-1.51-1.51A1.51,1.51,0,0,1,211.76,426.48Z"/><path class="cls-6" d="M236.79,426.48a1.51,1.51,0,1,1-1.51-1.51A1.51,1.51,0,0,1,236.79,426.48Z"/><path class="cls-6" d="M261.82,426.48a1.51,1.51,0,1,1-1.51-1.51A1.52,1.52,0,0,1,261.82,426.48Z"/><path class="cls-6" d="M286.85,426.48a1.51,1.51,0,1,1-1.51-1.51A1.52,1.52,0,0,1,286.85,426.48Z"/><path class="cls-6" d="M36.57,451.51A1.51,1.51,0,1,1,35.06,450,1.52,1.52,0,0,1,36.57,451.51Z"/><path class="cls-6" d="M61.59,451.51A1.51,1.51,0,1,1,60.08,450,1.51,1.51,0,0,1,61.59,451.51Z"/><path class="cls-6" d="M86.62,451.51A1.51,1.51,0,1,1,85.11,450,1.51,1.51,0,0,1,86.62,451.51Z"/><path class="cls-6" d="M111.65,451.51a1.51,1.51,0,1,1-1.51-1.51A1.51,1.51,0,0,1,111.65,451.51Z"/><path class="cls-6" d="M136.68,451.51a1.51,1.51,0,1,1-1.51-1.51A1.52,1.52,0,0,1,136.68,451.51Z"/><path class="cls-6" d="M161.71,451.51A1.51,1.51,0,1,1,160.2,450,1.52,1.52,0,0,1,161.71,451.51Z"/><path class="cls-6" d="M186.74,451.51a1.52,1.52,0,1,1-1.51-1.51A1.52,1.52,0,0,1,186.74,451.51Z"/><path class="cls-6" d="M211.76,451.51a1.51,1.51,0,1,1-1.51-1.51A1.51,1.51,0,0,1,211.76,451.51Z"/><path class="cls-6" d="M236.79,451.51a1.51,1.51,0,1,1-1.51-1.51A1.51,1.51,0,0,1,236.79,451.51Z"/><path class="cls-6" d="M261.82,451.51a1.51,1.51,0,1,1-1.51-1.51A1.52,1.52,0,0,1,261.82,451.51Z"/><path class="cls-6" d="M286.85,451.51a1.51,1.51,0,1,1-1.51-1.51A1.52,1.52,0,0,1,286.85,451.51Z"/><path class="cls-6" d="M36.57,476.54A1.51,1.51,0,1,1,35.06,475,1.52,1.52,0,0,1,36.57,476.54Z"/><path class="cls-6" d="M61.59,476.54A1.51,1.51,0,1,1,60.08,475,1.51,1.51,0,0,1,61.59,476.54Z"/><path class="cls-6" d="M86.62,476.54A1.51,1.51,0,1,1,85.11,475,1.51,1.51,0,0,1,86.62,476.54Z"/><path class="cls-6" d="M111.65,476.54a1.51,1.51,0,1,1-1.51-1.51A1.51,1.51,0,0,1,111.65,476.54Z"/><path class="cls-6" d="M136.68,476.54a1.51,1.51,0,1,1-1.51-1.51A1.52,1.52,0,0,1,136.68,476.54Z"/><path class="cls-6" d="M161.71,476.54A1.51,1.51,0,1,1,160.2,475,1.52,1.52,0,0,1,161.71,476.54Z"/><path class="cls-6" d="M186.74,476.54a1.52,1.52,0,1,1-1.51-1.51A1.52,1.52,0,0,1,186.74,476.54Z"/><path class="cls-6" d="M211.76,476.54a1.51,1.51,0,1,1-1.51-1.51A1.51,1.51,0,0,1,211.76,476.54Z"/><path class="cls-6" d="M236.79,476.54a1.51,1.51,0,1,1-1.51-1.51A1.51,1.51,0,0,1,236.79,476.54Z"/><path class="cls-6" d="M261.82,476.54a1.51,1.51,0,1,1-1.51-1.51A1.52,1.52,0,0,1,261.82,476.54Z"/><path class="cls-6" d="M286.85,476.54a1.51,1.51,0,1,1-1.51-1.51A1.52,1.52,0,0,1,286.85,476.54Z"/><path class="cls-6" d="M36.57,501.56a1.51,1.51,0,1,1-1.51-1.51A1.52,1.52,0,0,1,36.57,501.56Z"/><path class="cls-6" d="M61.59,501.56a1.51,1.51,0,1,1-1.51-1.51A1.51,1.51,0,0,1,61.59,501.56Z"/><path class="cls-6" d="M86.62,501.56a1.51,1.51,0,1,1-1.51-1.51A1.51,1.51,0,0,1,86.62,501.56Z"/><path class="cls-6" d="M111.65,501.56a1.51,1.51,0,1,1-1.51-1.51A1.51,1.51,0,0,1,111.65,501.56Z"/><path class="cls-6" d="M136.68,501.56a1.51,1.51,0,1,1-1.51-1.51A1.52,1.52,0,0,1,136.68,501.56Z"/><path class="cls-6" d="M161.71,501.56a1.51,1.51,0,1,1-1.51-1.51A1.52,1.52,0,0,1,161.71,501.56Z"/><path class="cls-6" d="M186.74,501.56a1.52,1.52,0,1,1-1.51-1.51A1.52,1.52,0,0,1,186.74,501.56Z"/><path class="cls-6" d="M211.76,501.56a1.51,1.51,0,1,1-1.51-1.51A1.51,1.51,0,0,1,211.76,501.56Z"/><path class="cls-6" d="M236.79,501.56a1.51,1.51,0,1,1-1.51-1.51A1.51,1.51,0,0,1,236.79,501.56Z"/><path class="cls-6" d="M261.82,501.56a1.51,1.51,0,1,1-1.51-1.51A1.52,1.52,0,0,1,261.82,501.56Z"/><path class="cls-6" d="M286.85,501.56a1.51,1.51,0,1,1-1.51-1.51A1.52,1.52,0,0,1,286.85,501.56Z"/><path class="cls-6" d="M24.05,13.51A1.51,1.51,0,1,1,22.54,12,1.5,1.5,0,0,1,24.05,13.51Z"/><path class="cls-6" d="M49.08,13.51A1.51,1.51,0,1,1,47.57,12,1.51,1.51,0,0,1,49.08,13.51Z"/><path class="cls-6" d="M74.11,13.51A1.51,1.51,0,1,1,72.6,12,1.51,1.51,0,0,1,74.11,13.51Z"/><path class="cls-6" d="M99.14,13.51A1.51,1.51,0,1,1,97.63,12,1.51,1.51,0,0,1,99.14,13.51Z"/><path class="cls-6" d="M124.17,13.51A1.52,1.52,0,1,1,122.65,12,1.51,1.51,0,0,1,124.17,13.51Z"/><path class="cls-6" d="M149.19,13.51A1.51,1.51,0,1,1,147.68,12,1.5,1.5,0,0,1,149.19,13.51Z"/><path class="cls-6" d="M174.22,13.51A1.51,1.51,0,1,1,172.71,12,1.5,1.5,0,0,1,174.22,13.51Z"/><path class="cls-6" d="M199.25,13.51A1.51,1.51,0,1,1,197.74,12,1.51,1.51,0,0,1,199.25,13.51Z"/><path class="cls-6" d="M224.28,13.51A1.51,1.51,0,1,1,222.77,12,1.51,1.51,0,0,1,224.28,13.51Z"/><path class="cls-6" d="M249.31,13.51A1.51,1.51,0,1,1,247.8,12,1.51,1.51,0,0,1,249.31,13.51Z"/><path class="cls-6" d="M274.33,13.51A1.51,1.51,0,1,1,272.82,12,1.5,1.5,0,0,1,274.33,13.51Z"/><path class="cls-6" d="M299.36,13.51A1.51,1.51,0,1,1,297.85,12,1.5,1.5,0,0,1,299.36,13.51Z"/><path class="cls-6" d="M24.05,38.54A1.51,1.51,0,1,1,22.54,37,1.5,1.5,0,0,1,24.05,38.54Z"/><path class="cls-6" d="M49.08,38.54A1.51,1.51,0,1,1,47.57,37,1.51,1.51,0,0,1,49.08,38.54Z"/><path class="cls-6" d="M74.11,38.54A1.51,1.51,0,1,1,72.6,37,1.51,1.51,0,0,1,74.11,38.54Z"/><path class="cls-6" d="M99.14,38.54A1.51,1.51,0,1,1,97.63,37,1.51,1.51,0,0,1,99.14,38.54Z"/><path class="cls-6" d="M124.17,38.54A1.52,1.52,0,1,1,122.65,37,1.51,1.51,0,0,1,124.17,38.54Z"/><path class="cls-6" d="M149.19,38.54A1.51,1.51,0,1,1,147.68,37,1.5,1.5,0,0,1,149.19,38.54Z"/><path class="cls-6" d="M174.22,38.54A1.51,1.51,0,1,1,172.71,37,1.5,1.5,0,0,1,174.22,38.54Z"/><path class="cls-6" d="M199.25,38.54A1.51,1.51,0,1,1,197.74,37,1.51,1.51,0,0,1,199.25,38.54Z"/><path class="cls-6" d="M224.28,38.54A1.51,1.51,0,1,1,222.77,37,1.51,1.51,0,0,1,224.28,38.54Z"/><path class="cls-6" d="M249.31,38.54A1.51,1.51,0,1,1,247.8,37,1.51,1.51,0,0,1,249.31,38.54Z"/><path class="cls-6" d="M274.33,38.54A1.51,1.51,0,1,1,272.82,37,1.5,1.5,0,0,1,274.33,38.54Z"/><path class="cls-6" d="M299.36,38.54A1.51,1.51,0,1,1,297.85,37,1.5,1.5,0,0,1,299.36,38.54Z"/><path class="cls-6" d="M24.05,63.57a1.51,1.51,0,1,1-1.51-1.51A1.51,1.51,0,0,1,24.05,63.57Z"/><path class="cls-6" d="M49.08,63.57a1.51,1.51,0,1,1-1.51-1.51A1.52,1.52,0,0,1,49.08,63.57Z"/><path class="cls-6" d="M74.11,63.57a1.51,1.51,0,1,1-1.51-1.51A1.52,1.52,0,0,1,74.11,63.57Z"/><path class="cls-6" d="M99.14,63.57a1.51,1.51,0,1,1-1.51-1.51A1.52,1.52,0,0,1,99.14,63.57Z"/><path class="cls-6" d="M124.17,63.57a1.52,1.52,0,1,1-1.52-1.51A1.52,1.52,0,0,1,124.17,63.57Z"/><path class="cls-6" d="M149.19,63.57a1.51,1.51,0,1,1-1.51-1.51A1.51,1.51,0,0,1,149.19,63.57Z"/><path class="cls-6" d="M174.22,63.57a1.51,1.51,0,1,1-1.51-1.51A1.51,1.51,0,0,1,174.22,63.57Z"/><path class="cls-6" d="M199.25,63.57a1.51,1.51,0,1,1-1.51-1.51A1.52,1.52,0,0,1,199.25,63.57Z"/><path class="cls-6" d="M224.28,63.57a1.51,1.51,0,1,1-1.51-1.51A1.52,1.52,0,0,1,224.28,63.57Z"/><path class="cls-6" d="M249.31,63.57a1.51,1.51,0,1,1-1.51-1.51A1.52,1.52,0,0,1,249.31,63.57Z"/><path class="cls-6" d="M274.33,63.57a1.51,1.51,0,1,1-1.51-1.51A1.51,1.51,0,0,1,274.33,63.57Z"/><path class="cls-6" d="M299.36,63.57a1.51,1.51,0,1,1-1.51-1.51A1.51,1.51,0,0,1,299.36,63.57Z"/><path class="cls-6" d="M24.05,88.6a1.51,1.51,0,1,1-1.51-1.51A1.51,1.51,0,0,1,24.05,88.6Z"/><path class="cls-6" d="M49.08,88.6a1.51,1.51,0,1,1-1.51-1.51A1.52,1.52,0,0,1,49.08,88.6Z"/><path class="cls-6" d="M74.11,88.6a1.51,1.51,0,1,1-1.51-1.51A1.52,1.52,0,0,1,74.11,88.6Z"/><path class="cls-6" d="M99.14,88.6a1.51,1.51,0,1,1-1.51-1.51A1.52,1.52,0,0,1,99.14,88.6Z"/><path class="cls-6" d="M124.17,88.6a1.52,1.52,0,1,1-1.52-1.51A1.52,1.52,0,0,1,124.17,88.6Z"/><path class="cls-6" d="M149.19,88.6a1.51,1.51,0,1,1-1.51-1.51A1.51,1.51,0,0,1,149.19,88.6Z"/><path class="cls-6" d="M174.22,88.6a1.51,1.51,0,1,1-1.51-1.51A1.51,1.51,0,0,1,174.22,88.6Z"/><path class="cls-6" d="M199.25,88.6a1.51,1.51,0,1,1-1.51-1.51A1.52,1.52,0,0,1,199.25,88.6Z"/><path class="cls-6" d="M224.28,88.6a1.51,1.51,0,1,1-1.51-1.51A1.52,1.52,0,0,1,224.28,88.6Z"/><path class="cls-6" d="M249.31,88.6a1.51,1.51,0,1,1-1.51-1.51A1.52,1.52,0,0,1,249.31,88.6Z"/><path class="cls-6" d="M274.33,88.6a1.51,1.51,0,1,1-1.51-1.51A1.51,1.51,0,0,1,274.33,88.6Z"/><path class="cls-6" d="M299.36,88.6a1.51,1.51,0,1,1-1.51-1.51A1.51,1.51,0,0,1,299.36,88.6Z"/><path class="cls-6" d="M24.05,113.63a1.51,1.51,0,1,1-1.51-1.51A1.51,1.51,0,0,1,24.05,113.63Z"/><path class="cls-6" d="M49.08,113.63a1.51,1.51,0,1,1-1.51-1.51A1.52,1.52,0,0,1,49.08,113.63Z"/><path class="cls-6" d="M74.11,113.63a1.51,1.51,0,1,1-1.51-1.51A1.52,1.52,0,0,1,74.11,113.63Z"/><path class="cls-6" d="M99.14,113.63a1.51,1.51,0,1,1-1.51-1.51A1.52,1.52,0,0,1,99.14,113.63Z"/><path class="cls-6" d="M124.17,113.63a1.52,1.52,0,1,1-1.52-1.51A1.52,1.52,0,0,1,124.17,113.63Z"/><path class="cls-6" d="M149.19,113.63a1.51,1.51,0,1,1-1.51-1.51A1.51,1.51,0,0,1,149.19,113.63Z"/><path class="cls-6" d="M174.22,113.63a1.51,1.51,0,1,1-1.51-1.51A1.51,1.51,0,0,1,174.22,113.63Z"/><path class="cls-6" d="M199.25,113.63a1.51,1.51,0,1,1-1.51-1.51A1.52,1.52,0,0,1,199.25,113.63Z"/><path class="cls-6" d="M224.28,113.63a1.51,1.51,0,1,1-1.51-1.51A1.52,1.52,0,0,1,224.28,113.63Z"/><path class="cls-6" d="M249.31,113.63a1.51,1.51,0,1,1-1.51-1.51A1.52,1.52,0,0,1,249.31,113.63Z"/><path class="cls-6" d="M274.33,113.63a1.51,1.51,0,1,1-1.51-1.51A1.51,1.51,0,0,1,274.33,113.63Z"/><path class="cls-6" d="M299.36,113.63a1.51,1.51,0,1,1-1.51-1.51A1.51,1.51,0,0,1,299.36,113.63Z"/><path class="cls-6" d="M24.05,138.66a1.51,1.51,0,0,1-3,0,1.51,1.51,0,1,1,3,0Z"/><path class="cls-6" d="M49.08,138.66a1.51,1.51,0,1,1-1.51-1.52A1.51,1.51,0,0,1,49.08,138.66Z"/><path class="cls-6" d="M74.11,138.66a1.51,1.51,0,1,1-1.51-1.52A1.51,1.51,0,0,1,74.11,138.66Z"/><path class="cls-6" d="M99.14,138.66a1.51,1.51,0,1,1-1.51-1.52A1.51,1.51,0,0,1,99.14,138.66Z"/><path class="cls-6" d="M124.17,138.66a1.52,1.52,0,1,1-1.52-1.52A1.51,1.51,0,0,1,124.17,138.66Z"/><path class="cls-6" d="M149.19,138.66a1.51,1.51,0,0,1-3,0,1.51,1.51,0,1,1,3,0Z"/><path class="cls-6" d="M174.22,138.66a1.51,1.51,0,0,1-3,0,1.51,1.51,0,1,1,3,0Z"/><path class="cls-6" d="M199.25,138.66a1.51,1.51,0,1,1-1.51-1.52A1.51,1.51,0,0,1,199.25,138.66Z"/><path class="cls-6" d="M224.28,138.66a1.51,1.51,0,1,1-1.51-1.52A1.51,1.51,0,0,1,224.28,138.66Z"/><path class="cls-6" d="M249.31,138.66a1.51,1.51,0,1,1-1.51-1.52A1.51,1.51,0,0,1,249.31,138.66Z"/><path class="cls-6" d="M274.33,138.66a1.51,1.51,0,0,1-3,0,1.51,1.51,0,1,1,3,0Z"/><path class="cls-6" d="M299.36,138.66a1.51,1.51,0,0,1-3,0,1.51,1.51,0,1,1,3,0Z"/><path class="cls-6" d="M24.05,163.68a1.51,1.51,0,1,1-1.51-1.51A1.5,1.5,0,0,1,24.05,163.68Z"/><path class="cls-6" d="M49.08,163.68a1.51,1.51,0,1,1-1.51-1.51A1.51,1.51,0,0,1,49.08,163.68Z"/><path class="cls-6" d="M74.11,163.68a1.51,1.51,0,1,1-1.51-1.51A1.51,1.51,0,0,1,74.11,163.68Z"/><path class="cls-6" d="M99.14,163.68a1.51,1.51,0,1,1-1.51-1.51A1.51,1.51,0,0,1,99.14,163.68Z"/><path class="cls-6" d="M124.17,163.68a1.52,1.52,0,1,1-1.52-1.51A1.51,1.51,0,0,1,124.17,163.68Z"/><path class="cls-6" d="M149.19,163.68a1.51,1.51,0,1,1-1.51-1.51A1.5,1.5,0,0,1,149.19,163.68Z"/><path class="cls-6" d="M174.22,163.68a1.51,1.51,0,1,1-1.51-1.51A1.5,1.5,0,0,1,174.22,163.68Z"/><path class="cls-6" d="M199.25,163.68a1.51,1.51,0,1,1-1.51-1.51A1.51,1.51,0,0,1,199.25,163.68Z"/><path class="cls-6" d="M224.28,163.68a1.51,1.51,0,1,1-1.51-1.51A1.51,1.51,0,0,1,224.28,163.68Z"/><path class="cls-6" d="M249.31,163.68a1.51,1.51,0,1,1-1.51-1.51A1.51,1.51,0,0,1,249.31,163.68Z"/><path class="cls-6" d="M274.33,163.68a1.51,1.51,0,1,1-1.51-1.51A1.5,1.5,0,0,1,274.33,163.68Z"/><path class="cls-6" d="M299.36,163.68a1.51,1.51,0,1,1-1.51-1.51A1.5,1.5,0,0,1,299.36,163.68Z"/><path class="cls-6" d="M24.05,188.71a1.51,1.51,0,1,1-1.51-1.51A1.5,1.5,0,0,1,24.05,188.71Z"/><path class="cls-6" d="M49.08,188.71a1.51,1.51,0,1,1-1.51-1.51A1.51,1.51,0,0,1,49.08,188.71Z"/><path class="cls-6" d="M74.11,188.71a1.51,1.51,0,1,1-1.51-1.51A1.51,1.51,0,0,1,74.11,188.71Z"/><path class="cls-6" d="M99.14,188.71a1.51,1.51,0,1,1-1.51-1.51A1.51,1.51,0,0,1,99.14,188.71Z"/><path class="cls-6" d="M124.17,188.71a1.52,1.52,0,1,1-1.52-1.51A1.51,1.51,0,0,1,124.17,188.71Z"/><path class="cls-6" d="M149.19,188.71a1.51,1.51,0,1,1-1.51-1.51A1.5,1.5,0,0,1,149.19,188.71Z"/><path class="cls-6" d="M174.22,188.71a1.51,1.51,0,1,1-1.51-1.51A1.5,1.5,0,0,1,174.22,188.71Z"/><path class="cls-6" d="M199.25,188.71a1.51,1.51,0,1,1-1.51-1.51A1.51,1.51,0,0,1,199.25,188.71Z"/><path class="cls-6" d="M224.28,188.71a1.51,1.51,0,1,1-1.51-1.51A1.51,1.51,0,0,1,224.28,188.71Z"/><path class="cls-6" d="M249.31,188.71a1.51,1.51,0,1,1-1.51-1.51A1.51,1.51,0,0,1,249.31,188.71Z"/><path class="cls-6" d="M274.33,188.71a1.51,1.51,0,1,1-1.51-1.51A1.5,1.5,0,0,1,274.33,188.71Z"/><path class="cls-6" d="M299.36,188.71a1.51,1.51,0,1,1-1.51-1.51A1.5,1.5,0,0,1,299.36,188.71Z"/><path class="cls-6" d="M24.05,213.74a1.51,1.51,0,1,1-1.51-1.51A1.51,1.51,0,0,1,24.05,213.74Z"/><path class="cls-6" d="M49.08,213.74a1.51,1.51,0,1,1-1.51-1.51A1.52,1.52,0,0,1,49.08,213.74Z"/><path class="cls-6" d="M74.11,213.74a1.51,1.51,0,1,1-1.51-1.51A1.52,1.52,0,0,1,74.11,213.74Z"/><path class="cls-6" d="M99.14,213.74a1.51,1.51,0,1,1-1.51-1.51A1.52,1.52,0,0,1,99.14,213.74Z"/><path class="cls-6" d="M124.17,213.74a1.52,1.52,0,1,1-1.52-1.51A1.52,1.52,0,0,1,124.17,213.74Z"/><path class="cls-6" d="M149.19,213.74a1.51,1.51,0,1,1-1.51-1.51A1.51,1.51,0,0,1,149.19,213.74Z"/><path class="cls-6" d="M174.22,213.74a1.51,1.51,0,1,1-1.51-1.51A1.51,1.51,0,0,1,174.22,213.74Z"/><path class="cls-6" d="M199.25,213.74a1.51,1.51,0,1,1-1.51-1.51A1.52,1.52,0,0,1,199.25,213.74Z"/><path class="cls-6" d="M224.28,213.74a1.51,1.51,0,1,1-1.51-1.51A1.52,1.52,0,0,1,224.28,213.74Z"/><path class="cls-6" d="M249.31,213.74a1.51,1.51,0,1,1-1.51-1.51A1.52,1.52,0,0,1,249.31,213.74Z"/><path class="cls-6" d="M274.33,213.74a1.51,1.51,0,1,1-1.51-1.51A1.51,1.51,0,0,1,274.33,213.74Z"/><path class="cls-6" d="M299.36,213.74a1.51,1.51,0,1,1-1.51-1.51A1.51,1.51,0,0,1,299.36,213.74Z"/><path class="cls-6" d="M24.05,238.77a1.51,1.51,0,1,1-1.51-1.51A1.51,1.51,0,0,1,24.05,238.77Z"/><path class="cls-6" d="M49.08,238.77a1.51,1.51,0,1,1-1.51-1.51A1.52,1.52,0,0,1,49.08,238.77Z"/><path class="cls-6" d="M74.11,238.77a1.51,1.51,0,1,1-1.51-1.51A1.52,1.52,0,0,1,74.11,238.77Z"/><path class="cls-6" d="M99.14,238.77a1.51,1.51,0,1,1-1.51-1.51A1.52,1.52,0,0,1,99.14,238.77Z"/><path class="cls-6" d="M124.17,238.77a1.52,1.52,0,1,1-1.52-1.51A1.52,1.52,0,0,1,124.17,238.77Z"/><path class="cls-6" d="M149.19,238.77a1.51,1.51,0,1,1-1.51-1.51A1.51,1.51,0,0,1,149.19,238.77Z"/><path class="cls-6" d="M174.22,238.77a1.51,1.51,0,1,1-1.51-1.51A1.51,1.51,0,0,1,174.22,238.77Z"/><path class="cls-6" d="M199.25,238.77a1.51,1.51,0,1,1-1.51-1.51A1.52,1.52,0,0,1,199.25,238.77Z"/><path class="cls-6" d="M224.28,238.77a1.51,1.51,0,1,1-1.51-1.51A1.52,1.52,0,0,1,224.28,238.77Z"/><path class="cls-6" d="M249.31,238.77a1.51,1.51,0,1,1-1.51-1.51A1.52,1.52,0,0,1,249.31,238.77Z"/><path class="cls-6" d="M274.33,238.77a1.51,1.51,0,1,1-1.51-1.51A1.51,1.51,0,0,1,274.33,238.77Z"/><path class="cls-6" d="M299.36,238.77a1.51,1.51,0,1,1-1.51-1.51A1.51,1.51,0,0,1,299.36,238.77Z"/><path class="cls-6" d="M24.05,263.8a1.51,1.51,0,1,1-1.51-1.51A1.51,1.51,0,0,1,24.05,263.8Z"/><path class="cls-6" d="M49.08,263.8a1.51,1.51,0,1,1-1.51-1.51A1.52,1.52,0,0,1,49.08,263.8Z"/><path class="cls-6" d="M74.11,263.8a1.51,1.51,0,1,1-1.51-1.51A1.52,1.52,0,0,1,74.11,263.8Z"/><path class="cls-6" d="M99.14,263.8a1.51,1.51,0,1,1-1.51-1.51A1.52,1.52,0,0,1,99.14,263.8Z"/><path class="cls-6" d="M124.17,263.8a1.52,1.52,0,1,1-1.52-1.51A1.52,1.52,0,0,1,124.17,263.8Z"/><path class="cls-6" d="M149.19,263.8a1.51,1.51,0,1,1-1.51-1.51A1.51,1.51,0,0,1,149.19,263.8Z"/><path class="cls-6" d="M174.22,263.8a1.51,1.51,0,1,1-1.51-1.51A1.51,1.51,0,0,1,174.22,263.8Z"/><path class="cls-6" d="M199.25,263.8a1.51,1.51,0,1,1-1.51-1.51A1.52,1.52,0,0,1,199.25,263.8Z"/><path class="cls-6" d="M224.28,263.8a1.51,1.51,0,1,1-1.51-1.51A1.52,1.52,0,0,1,224.28,263.8Z"/><path class="cls-6" d="M249.31,263.8a1.51,1.51,0,1,1-1.51-1.51A1.52,1.52,0,0,1,249.31,263.8Z"/><path class="cls-6" d="M274.33,263.8a1.51,1.51,0,1,1-1.51-1.51A1.51,1.51,0,0,1,274.33,263.8Z"/><path class="cls-6" d="M299.36,263.8a1.51,1.51,0,1,1-1.51-1.51A1.51,1.51,0,0,1,299.36,263.8Z"/><path class="cls-6" d="M24.05,288.83a1.51,1.51,0,0,1-3,0,1.51,1.51,0,1,1,3,0Z"/><path class="cls-6" d="M49.08,288.83a1.51,1.51,0,1,1-1.51-1.52A1.51,1.51,0,0,1,49.08,288.83Z"/><path class="cls-6" d="M74.11,288.83a1.51,1.51,0,1,1-1.51-1.52A1.51,1.51,0,0,1,74.11,288.83Z"/><path class="cls-6" d="M99.14,288.83a1.51,1.51,0,1,1-1.51-1.52A1.51,1.51,0,0,1,99.14,288.83Z"/><path class="cls-6" d="M124.17,288.83a1.52,1.52,0,1,1-1.52-1.52A1.51,1.51,0,0,1,124.17,288.83Z"/><path class="cls-6" d="M149.19,288.83a1.51,1.51,0,0,1-3,0,1.51,1.51,0,1,1,3,0Z"/><path class="cls-6" d="M174.22,288.83a1.51,1.51,0,0,1-3,0,1.51,1.51,0,1,1,3,0Z"/><path class="cls-6" d="M199.25,288.83a1.51,1.51,0,1,1-1.51-1.52A1.51,1.51,0,0,1,199.25,288.83Z"/><path class="cls-6" d="M224.28,288.83a1.51,1.51,0,1,1-1.51-1.52A1.51,1.51,0,0,1,224.28,288.83Z"/><path class="cls-6" d="M249.31,288.83a1.51,1.51,0,1,1-1.51-1.52A1.51,1.51,0,0,1,249.31,288.83Z"/><path class="cls-6" d="M274.33,288.83a1.51,1.51,0,0,1-3,0,1.51,1.51,0,1,1,3,0Z"/><path class="cls-6" d="M299.36,288.83a1.51,1.51,0,0,1-3,0,1.51,1.51,0,1,1,3,0Z"/><path class="cls-6" d="M24.05,313.85a1.51,1.51,0,1,1-1.51-1.51A1.5,1.5,0,0,1,24.05,313.85Z"/><path class="cls-6" d="M49.08,313.85a1.51,1.51,0,1,1-1.51-1.51A1.51,1.51,0,0,1,49.08,313.85Z"/><path class="cls-6" d="M74.11,313.85a1.51,1.51,0,1,1-1.51-1.51A1.51,1.51,0,0,1,74.11,313.85Z"/><path class="cls-6" d="M99.14,313.85a1.51,1.51,0,1,1-1.51-1.51A1.51,1.51,0,0,1,99.14,313.85Z"/><path class="cls-6" d="M124.17,313.85a1.52,1.52,0,1,1-1.52-1.51A1.51,1.51,0,0,1,124.17,313.85Z"/><path class="cls-6" d="M149.19,313.85a1.51,1.51,0,1,1-1.51-1.51A1.5,1.5,0,0,1,149.19,313.85Z"/><path class="cls-6" d="M174.22,313.85a1.51,1.51,0,1,1-1.51-1.51A1.5,1.5,0,0,1,174.22,313.85Z"/><path class="cls-6" d="M199.25,313.85a1.51,1.51,0,1,1-1.51-1.51A1.51,1.51,0,0,1,199.25,313.85Z"/><path class="cls-6" d="M224.28,313.85a1.51,1.51,0,1,1-1.51-1.51A1.51,1.51,0,0,1,224.28,313.85Z"/><path class="cls-6" d="M249.31,313.85a1.51,1.51,0,1,1-1.51-1.51A1.51,1.51,0,0,1,249.31,313.85Z"/><path class="cls-6" d="M274.33,313.85a1.51,1.51,0,1,1-1.51-1.51A1.5,1.5,0,0,1,274.33,313.85Z"/><path class="cls-6" d="M299.36,313.85a1.51,1.51,0,1,1-1.51-1.51A1.5,1.5,0,0,1,299.36,313.85Z"/><path class="cls-6" d="M24.05,338.88a1.51,1.51,0,1,1-1.51-1.51A1.51,1.51,0,0,1,24.05,338.88Z"/><path class="cls-6" d="M49.08,338.88a1.51,1.51,0,1,1-1.51-1.51A1.52,1.52,0,0,1,49.08,338.88Z"/><path class="cls-6" d="M74.11,338.88a1.51,1.51,0,1,1-1.51-1.51A1.52,1.52,0,0,1,74.11,338.88Z"/><path class="cls-6" d="M99.14,338.88a1.51,1.51,0,1,1-1.51-1.51A1.52,1.52,0,0,1,99.14,338.88Z"/><path class="cls-6" d="M124.17,338.88a1.52,1.52,0,1,1-1.52-1.51A1.52,1.52,0,0,1,124.17,338.88Z"/><path class="cls-6" d="M149.19,338.88a1.51,1.51,0,1,1-1.51-1.51A1.51,1.51,0,0,1,149.19,338.88Z"/><path class="cls-6" d="M174.22,338.88a1.51,1.51,0,1,1-1.51-1.51A1.51,1.51,0,0,1,174.22,338.88Z"/><path class="cls-6" d="M199.25,338.88a1.51,1.51,0,1,1-1.51-1.51A1.52,1.52,0,0,1,199.25,338.88Z"/><path class="cls-6" d="M224.28,338.88a1.51,1.51,0,1,1-1.51-1.51A1.52,1.52,0,0,1,224.28,338.88Z"/><path class="cls-6" d="M249.31,338.88a1.51,1.51,0,1,1-1.51-1.51A1.52,1.52,0,0,1,249.31,338.88Z"/><path class="cls-6" d="M274.33,338.88a1.51,1.51,0,1,1-1.51-1.51A1.51,1.51,0,0,1,274.33,338.88Z"/><path class="cls-6" d="M299.36,338.88a1.51,1.51,0,1,1-1.51-1.51A1.51,1.51,0,0,1,299.36,338.88Z"/><path class="cls-6" d="M24.05,363.91a1.51,1.51,0,1,1-1.51-1.51A1.51,1.51,0,0,1,24.05,363.91Z"/><path class="cls-6" d="M49.08,363.91a1.51,1.51,0,1,1-1.51-1.51A1.52,1.52,0,0,1,49.08,363.91Z"/><path class="cls-6" d="M74.11,363.91a1.51,1.51,0,1,1-1.51-1.51A1.52,1.52,0,0,1,74.11,363.91Z"/><path class="cls-6" d="M99.14,363.91a1.51,1.51,0,1,1-1.51-1.51A1.52,1.52,0,0,1,99.14,363.91Z"/><path class="cls-6" d="M124.17,363.91a1.52,1.52,0,1,1-1.52-1.51A1.52,1.52,0,0,1,124.17,363.91Z"/><path class="cls-6" d="M149.19,363.91a1.51,1.51,0,1,1-1.51-1.51A1.51,1.51,0,0,1,149.19,363.91Z"/><path class="cls-6" d="M174.22,363.91a1.51,1.51,0,1,1-1.51-1.51A1.51,1.51,0,0,1,174.22,363.91Z"/><path class="cls-6" d="M199.25,363.91a1.51,1.51,0,1,1-1.51-1.51A1.52,1.52,0,0,1,199.25,363.91Z"/><path class="cls-6" d="M224.28,363.91a1.51,1.51,0,1,1-1.51-1.51A1.52,1.52,0,0,1,224.28,363.91Z"/><path class="cls-6" d="M249.31,363.91a1.51,1.51,0,1,1-1.51-1.51A1.52,1.52,0,0,1,249.31,363.91Z"/><path class="cls-6" d="M274.33,363.91a1.51,1.51,0,1,1-1.51-1.51A1.51,1.51,0,0,1,274.33,363.91Z"/><path class="cls-6" d="M299.36,363.91a1.51,1.51,0,1,1-1.51-1.51A1.51,1.51,0,0,1,299.36,363.91Z"/><path class="cls-6" d="M24.05,388.94a1.51,1.51,0,1,1-1.51-1.51A1.51,1.51,0,0,1,24.05,388.94Z"/><path class="cls-6" d="M49.08,388.94a1.51,1.51,0,1,1-1.51-1.51A1.52,1.52,0,0,1,49.08,388.94Z"/><path class="cls-6" d="M74.11,388.94a1.51,1.51,0,1,1-1.51-1.51A1.52,1.52,0,0,1,74.11,388.94Z"/><path class="cls-6" d="M99.14,388.94a1.51,1.51,0,1,1-1.51-1.51A1.52,1.52,0,0,1,99.14,388.94Z"/><path class="cls-6" d="M124.17,388.94a1.52,1.52,0,1,1-1.52-1.51A1.52,1.52,0,0,1,124.17,388.94Z"/><path class="cls-6" d="M149.19,388.94a1.51,1.51,0,1,1-1.51-1.51A1.51,1.51,0,0,1,149.19,388.94Z"/><path class="cls-6" d="M174.22,388.94a1.51,1.51,0,1,1-1.51-1.51A1.51,1.51,0,0,1,174.22,388.94Z"/><path class="cls-6" d="M199.25,388.94a1.51,1.51,0,1,1-1.51-1.51A1.52,1.52,0,0,1,199.25,388.94Z"/><path class="cls-6" d="M224.28,388.94a1.51,1.51,0,1,1-1.51-1.51A1.52,1.52,0,0,1,224.28,388.94Z"/><path class="cls-6" d="M249.31,388.94a1.51,1.51,0,1,1-1.51-1.51A1.52,1.52,0,0,1,249.31,388.94Z"/><path class="cls-6" d="M274.33,388.94a1.51,1.51,0,1,1-1.51-1.51A1.51,1.51,0,0,1,274.33,388.94Z"/><path class="cls-6" d="M299.36,388.94a1.51,1.51,0,1,1-1.51-1.51A1.51,1.51,0,0,1,299.36,388.94Z"/><path class="cls-6" d="M24.05,414a1.51,1.51,0,1,1-1.51-1.51A1.51,1.51,0,0,1,24.05,414Z"/><path class="cls-6" d="M49.08,414a1.51,1.51,0,1,1-1.51-1.51A1.52,1.52,0,0,1,49.08,414Z"/><path class="cls-6" d="M74.11,414a1.51,1.51,0,1,1-1.51-1.51A1.52,1.52,0,0,1,74.11,414Z"/><path class="cls-6" d="M99.14,414a1.51,1.51,0,1,1-1.51-1.51A1.52,1.52,0,0,1,99.14,414Z"/><path class="cls-6" d="M124.17,414a1.52,1.52,0,1,1-1.52-1.51A1.52,1.52,0,0,1,124.17,414Z"/><path class="cls-6" d="M149.19,414a1.51,1.51,0,1,1-1.51-1.51A1.51,1.51,0,0,1,149.19,414Z"/><path class="cls-6" d="M174.22,414a1.51,1.51,0,1,1-1.51-1.51A1.51,1.51,0,0,1,174.22,414Z"/><path class="cls-6" d="M199.25,414a1.51,1.51,0,1,1-1.51-1.51A1.52,1.52,0,0,1,199.25,414Z"/><path class="cls-6" d="M224.28,414a1.51,1.51,0,1,1-1.51-1.51A1.52,1.52,0,0,1,224.28,414Z"/><path class="cls-6" d="M249.31,414a1.51,1.51,0,1,1-1.51-1.51A1.52,1.52,0,0,1,249.31,414Z"/><path class="cls-6" d="M274.33,414a1.51,1.51,0,1,1-1.51-1.51A1.51,1.51,0,0,1,274.33,414Z"/><path class="cls-6" d="M299.36,414a1.51,1.51,0,1,1-1.51-1.51A1.51,1.51,0,0,1,299.36,414Z"/><path class="cls-6" d="M24.05,439a1.51,1.51,0,1,1-1.51-1.51A1.5,1.5,0,0,1,24.05,439Z"/><path class="cls-6" d="M49.08,439a1.51,1.51,0,1,1-1.51-1.51A1.51,1.51,0,0,1,49.08,439Z"/><path class="cls-6" d="M74.11,439a1.51,1.51,0,1,1-1.51-1.51A1.51,1.51,0,0,1,74.11,439Z"/><path class="cls-6" d="M99.14,439a1.51,1.51,0,1,1-1.51-1.51A1.51,1.51,0,0,1,99.14,439Z"/><path class="cls-6" d="M124.17,439a1.52,1.52,0,1,1-1.52-1.51A1.51,1.51,0,0,1,124.17,439Z"/><path class="cls-6" d="M149.19,439a1.51,1.51,0,1,1-1.51-1.51A1.5,1.5,0,0,1,149.19,439Z"/><path class="cls-6" d="M174.22,439a1.51,1.51,0,1,1-1.51-1.51A1.5,1.5,0,0,1,174.22,439Z"/><path class="cls-6" d="M199.25,439a1.51,1.51,0,1,1-1.51-1.51A1.51,1.51,0,0,1,199.25,439Z"/><path class="cls-6" d="M224.28,439a1.51,1.51,0,1,1-1.51-1.51A1.51,1.51,0,0,1,224.28,439Z"/><path class="cls-6" d="M249.31,439a1.51,1.51,0,1,1-1.51-1.51A1.51,1.51,0,0,1,249.31,439Z"/><path class="cls-6" d="M274.33,439a1.51,1.51,0,1,1-1.51-1.51A1.5,1.5,0,0,1,274.33,439Z"/><path class="cls-6" d="M299.36,439a1.51,1.51,0,1,1-1.51-1.51A1.5,1.5,0,0,1,299.36,439Z"/><path class="cls-6" d="M24.05,464a1.51,1.51,0,1,1-1.51-1.51A1.5,1.5,0,0,1,24.05,464Z"/><path class="cls-6" d="M49.08,464a1.51,1.51,0,1,1-1.51-1.51A1.51,1.51,0,0,1,49.08,464Z"/><path class="cls-6" d="M74.11,464a1.51,1.51,0,1,1-1.51-1.51A1.51,1.51,0,0,1,74.11,464Z"/><path class="cls-6" d="M99.14,464a1.51,1.51,0,1,1-1.51-1.51A1.51,1.51,0,0,1,99.14,464Z"/><path class="cls-6" d="M124.17,464a1.52,1.52,0,1,1-1.52-1.51A1.51,1.51,0,0,1,124.17,464Z"/><path class="cls-6" d="M149.19,464a1.51,1.51,0,1,1-1.51-1.51A1.5,1.5,0,0,1,149.19,464Z"/><path class="cls-6" d="M174.22,464a1.51,1.51,0,1,1-1.51-1.51A1.5,1.5,0,0,1,174.22,464Z"/><path class="cls-6" d="M199.25,464a1.51,1.51,0,1,1-1.51-1.51A1.51,1.51,0,0,1,199.25,464Z"/><path class="cls-6" d="M224.28,464a1.51,1.51,0,1,1-1.51-1.51A1.51,1.51,0,0,1,224.28,464Z"/><path class="cls-6" d="M249.31,464a1.51,1.51,0,1,1-1.51-1.51A1.51,1.51,0,0,1,249.31,464Z"/><path class="cls-6" d="M274.33,464a1.51,1.51,0,1,1-1.51-1.51A1.5,1.5,0,0,1,274.33,464Z"/><path class="cls-6" d="M299.36,464a1.51,1.51,0,1,1-1.51-1.51A1.5,1.5,0,0,1,299.36,464Z"/><path class="cls-6" d="M24.05,489.05a1.51,1.51,0,1,1-1.51-1.51A1.51,1.51,0,0,1,24.05,489.05Z"/><path class="cls-6" d="M49.08,489.05a1.51,1.51,0,1,1-1.51-1.51A1.52,1.52,0,0,1,49.08,489.05Z"/><path class="cls-6" d="M74.11,489.05a1.51,1.51,0,1,1-1.51-1.51A1.52,1.52,0,0,1,74.11,489.05Z"/><path class="cls-6" d="M99.14,489.05a1.51,1.51,0,1,1-1.51-1.51A1.52,1.52,0,0,1,99.14,489.05Z"/><path class="cls-6" d="M124.17,489.05a1.52,1.52,0,1,1-1.52-1.51A1.52,1.52,0,0,1,124.17,489.05Z"/><path class="cls-6" d="M149.19,489.05a1.51,1.51,0,1,1-1.51-1.51A1.51,1.51,0,0,1,149.19,489.05Z"/><path class="cls-6" d="M174.22,489.05a1.51,1.51,0,1,1-1.51-1.51A1.51,1.51,0,0,1,174.22,489.05Z"/><path class="cls-6" d="M199.25,489.05a1.51,1.51,0,1,1-1.51-1.51A1.52,1.52,0,0,1,199.25,489.05Z"/><path class="cls-6" d="M224.28,489.05a1.51,1.51,0,1,1-1.51-1.51A1.52,1.52,0,0,1,224.28,489.05Z"/><path class="cls-6" d="M249.31,489.05a1.51,1.51,0,1,1-1.51-1.51A1.52,1.52,0,0,1,249.31,489.05Z"/><path class="cls-6" d="M274.33,489.05a1.51,1.51,0,1,1-1.51-1.51A1.51,1.51,0,0,1,274.33,489.05Z"/><path class="cls-6" d="M299.36,489.05a1.51,1.51,0,1,1-1.51-1.51A1.51,1.51,0,0,1,299.36,489.05Z"/><path class="cls-6" d="M24.05,511.7a1.51,1.51,0,0,1-3,0,1.51,1.51,0,1,1,3,0Z"/><path class="cls-6" d="M49.08,511.7a1.51,1.51,0,1,1-1.51-1.52A1.51,1.51,0,0,1,49.08,511.7Z"/><path class="cls-6" d="M74.11,511.7a1.51,1.51,0,1,1-1.51-1.52A1.51,1.51,0,0,1,74.11,511.7Z"/><path class="cls-6" d="M99.14,511.7a1.51,1.51,0,1,1-1.51-1.52A1.51,1.51,0,0,1,99.14,511.7Z"/><path class="cls-6" d="M124.17,511.7a1.52,1.52,0,1,1-1.52-1.52A1.51,1.51,0,0,1,124.17,511.7Z"/><path class="cls-6" d="M149.19,511.7a1.51,1.51,0,0,1-3,0,1.51,1.51,0,1,1,3,0Z"/><path class="cls-6" d="M174.22,511.7a1.51,1.51,0,0,1-3,0,1.51,1.51,0,1,1,3,0Z"/><path class="cls-6" d="M199.25,511.7a1.51,1.51,0,1,1-1.51-1.52A1.51,1.51,0,0,1,199.25,511.7Z"/><path class="cls-6" d="M224.28,511.7a1.51,1.51,0,1,1-1.51-1.52A1.51,1.51,0,0,1,224.28,511.7Z"/><path class="cls-6" d="M249.31,511.7a1.51,1.51,0,1,1-1.51-1.52A1.51,1.51,0,0,1,249.31,511.7Z"/><path class="cls-6" d="M274.33,511.7a1.51,1.51,0,0,1-3,0,1.51,1.51,0,1,1,3,0Z"/><path class="cls-6" d="M299.36,511.7a1.51,1.51,0,0,1-3,0,1.51,1.51,0,1,1,3,0Z"/></g></g></g></svg>