<svg xmlns="http://www.w3.org/2000/svg" viewBox="0 0 320.34 453.84"><defs><style>.cls-1{fill:#f8efd7;}.cls-2{fill:none;stroke:#ba141a;stroke-miterlimit:10;}.cls-3{fill:#ba141a;}</style></defs><g id="Layer_2" data-name="Layer 2"><g id="cards"><rect class="cls-1" width="320.34" height="453.84" rx="13.45"/><path class="cls-2" d="M13.45,10A3.46,3.46,0,0,0,10,13.45V440.39a3.46,3.46,0,0,0,3.45,3.45H306.89a3.46,3.46,0,0,0,3.45-3.45V13.45A3.46,3.46,0,0,0,306.89,10Z"/><path class="cls-3" d="M26.37,232.36l-4.91-4.91L20,228.92l4.91,4.91Zm31.41,14.72,1.47,1.47,4.91-4.9-1.47-1.48Zm-2.7-2.7L60,239.47,58.52,238l-4.91,4.91Zm-21.84-18.9-8.35,8.35L20,238.74l1.48,1.47,4.91-4.91,6.87,6.87-4.91,4.91,1.47,1.47,4.91-4.9,4.91,4.9,1.47-1.47-4.91-4.91,8.35-8.34L34.71,224,29.8,219.1l-1.47,1.48Zm17.67,14.73,4.91-4.91-1.48-1.47-4.9,4.91Zm-20.37-12-4.91-4.9-1.47,1.47,4.91,4.91ZM65.63,389.43l-1.47,1.47,4.91,4.91,1.47-1.48ZM45.26,331.26l-4.91-4.91-1.47,1.48,4.91,4.9Zm-16.93,7.12,4.91,4.91,1.47-1.48-4.91-4.9Zm29.45-2.95,1.47,1.48L64.16,332l-1.47-1.47ZM24.16,254.2l4.91,4.91,1.47-1.48-4.91-4.9Zm30.92,78.53,4.91-4.9-1.47-1.48-4.91,4.91ZM28.33,250l4.91,4.9,1.47-1.47-4.91-4.91ZM48,240.21l-8.34,8.34-4.91,4.91,1.47,1.47,4.91-4.9,2.7,2.7-4.91,4.9,1.47,1.48,4.91-4.91,2.7,2.7-4.91,4.91,1.48,1.47,4.91-4.91,4.9,4.91,1.48-1.47-4.91-4.91,2.7-2.7,4.91,4.91L60,257.63l-4.91-4.9,2.7-2.7,4.91,4.9,1.47-1.47-4.91-4.91-9.81-9.81-4.91-4.91-1.48,1.47ZM65.63,343.29l4.91-4.91-1.47-1.47-4.91,4.9ZM43.79,244.38l1.47-1.47L40.35,238l-1.47,1.47ZM29.07,238l-4.91,4.91,1.47,1.47,4.91-4.91ZM10,157.09V160l.17.16,1.47-1.47ZM70.54,40.93,65.63,36l-1.47,1.47,4.91,4.91ZM50.91,63.5l4.91-4.9-1.48-1.48L49.44,62Zm-7.12,4.18,1.47-1.48-4.91-4.9-1.47,1.47ZM33.24,36l-4.91,4.91L29.8,42.4l4.91-4.91ZM58.52,53,60,51.48l-4.91-4.91L53.61,48ZM236,10l-1.48,1.48L236,13,238.9,10ZM10,68.74v2.94l.17.17,1.47-1.47ZM286.51,404.15,285,405.62l4.91,4.91,1.47-1.47ZM13.6,147l4.91,4.91L20,150.38l-4.9-4.9ZM62.69,48.78l1.47-1.47L59.25,42.4l-1.47,1.47ZM10,63.34l4.34,4.34,1.47-1.48L10.9,61.3l4.18-4.18L10,52.05ZM48,34.05l-2.7,2.7-4.91-4.9-1.47,1.47,4.91,4.91L39.62,42.4l-4.91,4.91,1.47,1.47,4.91-4.91,2.7,2.7-4.91,4.91L40.35,53,45.26,48l2.7,2.7-4.91,4.91,1.48,1.47,4.91-4.9,4.9,4.9,1.48-1.47-4.91-4.91,4.17-4.17,4.17-4.17-4.17-4.17L60,33.32l-1.47-1.47-4.91,4.9-2.7-2.7,4.91-4.9-1.48-1.48-4.9,4.91-4.91-4.91-1.48,1.48ZM58.52,141.3,60,139.83l-4.91-4.91-1.47,1.48Zm-34.36,190,1.47,1.47,4.91-4.9-1.48-1.48Zm46.38-202-4.91-4.91-1.47,1.47,4.91,4.91Zm-26.75,5.64-4.91,4.91,1.47,1.47,4.91-4.9Zm10.55,10.56L55.82,144l-4.91-4.9,4.17-4.18,2.7-2.7,4.91,4.91,1.47-1.47-4.91-4.91,4.91-4.91-1.47-1.47-4.91,4.91-2.7-2.7L60,121.67l-1.47-1.47-4.91,4.91-2.7-2.7,4.91-4.91L54.34,116l-4.9,4.9L44.53,116l-1.48,1.47L48,122.41l-2.7,2.7-4.91-4.91-1.47,1.47,4.91,4.91-2.7,2.7-4.91-4.91-1.47,1.47,4.91,4.91-4.91,4.91,1.47,1.47,4.91-4.91L48,139.1,43.05,144l1.48,1.48,4.91-4.91Zm-23.8-23.81-1.47-1.47-4.91,4.91,1.47,1.47Zm-4.91-75.1L24.16,48,29.06,53l1.48-1.47Zm15.46-5.64L36.18,36l-1.47,1.47,4.91,4.91ZM26.37,147l-1.48-1.47L20,150.38l1.48,1.48ZM15.81,136.4l-1.47-1.48L10,139.26v12.43L14.34,156l1.47-1.47-4.91-4.91,4.18-4.17L10.9,141.3ZM310.34,18.61V13.45a3.45,3.45,0,0,0-2.79-3.38l-1.4,1.41L304.67,10h-2.94L304.68,13l-4.91,4.91L294.86,13,297.81,10h-2.95l-1.47,1.48L291.91,10H278.17l-1.47,1.48L275.22,10h-2.94L275.22,13l-4.9,4.91L265.41,13,268.35,10h-2.94l-1.47,1.48L262.46,10H248.72l-1.47,1.48L245.77,10h-2.94L245.77,13l-4.91,4.91L236,13,233,10H219.27l-1.47,1.48L216.32,10h-2.95L216.32,13l-4.91,4.91L206.51,13,209.45,10h-2.94L205,11.48,203.56,10H189.82l-1.48,1.48L186.87,10h-3l3,2.95L182,17.86,177.05,13,180,10h-2.94l-1.48,1.48L174.11,10H160.37l-1.48,1.48L157.42,10h-2.95L157.42,13l-4.91,4.91L147.6,13l3-2.95h-2.94l-1.48,1.48L144.66,10H130.92l-1.48,1.48L128,10h-3L128,13l-4.91,4.91L118.15,13,121.1,10h-2.94l-1.48,1.48L115.21,10H101.47L100,11.48,98.52,10h-3l3,2.95-4.91,4.91L88.7,13l3-2.95H88.71l-1.48,1.48L85.76,10H72l-1.48,1.48L69.07,10H66.12L69.07,13l-4.91,4.91L59.25,13l3-2.95H59.26l-1.48,1.48L56.3,10H42.57l-1.48,1.48L39.62,10H36.67L39.62,13l-4.91,4.91L29.8,13,32.75,10H29.8l-1.47,1.48L26.85,10H13.45a2.21,2.21,0,0,0-.37,0l-1.44,1.44-.54-.54a3.51,3.51,0,0,0-1,1.9l.11.11-.13.13a2.21,2.21,0,0,0,0,.37v2.61l1.64-1.64,2.7,2.7L10,21.46V32.75l.33-.33-.33.33v1.14l4.34,4.34,1.47-1.48-4.91-4.9,2.7-2.7,4.91,4.9-2.7,2.7-4.17,4.18L10,39.29v2.94l.17.17-.17.17v2.94l1.64-1.64,2.7,2.7L10,50.91v1.14l.9.9L15.81,48l2.7,2.7L13.6,55.65l1.48,1.47,4.9-4.9,4.91,4.9,1.48-1.47-4.91-4.91L29.8,42.4l-8.34-8.35,4.91-4.9,2.7,2.7-4.91,4.9,1.47,1.48,4.91-4.91-.9-.9,5.07,5.07,9.82-9.82,4.91-4.9L48,21.29,43.05,26.2l-2.7-2.7,4.91-4.91-.89-.89,5.07,5.07,4.9,4.9L62.69,36l-4.91,4.91,1.47,1.47,4.91-4.91,4.17-4.17,4.91,4.91L69.07,42.4l-4.91,4.91-9.82,9.81,4.18,4.18-4.91,4.9,1.47,1.48L60,62.77l2.7,2.7-4.91,4.91L49.44,62l-4.91-4.91L43.05,58.6,48,63.5l-6.87,6.88-4.91-4.91,8.35-8.35-9.82-9.81L29.8,42.4l-1.47,1.47,4.91,4.91-8.35,8.34L20,62l1.48,1.47,4.91-4.9,2.69,2.7-4.9,4.9,1.47,1.48,4.91-4.91-.39-.39,3.09,3.09-4.91,4.91L20,62l-4.9-4.91L13.6,58.6l4.91,4.9-8.34,8.35L10,72V75l1.64-1.64,2.7,2.7L10,80.36V81.5l.33.32L10,81.5V92.79l4.34,4.34-2.7,2.7L10,98.19v2.94l.17.17-.17.17v2.94l1.64-1.64,2.7,2.7L10,109.81V121.1l3.6-3.6,4.91,4.91-2.7,2.7L10.9,120.2l-.9.9v1.14l4.34,4.34.89-.89-3.59,3.59L10,127.64v2.94l.17.17-.17.17v2.94l1.64-1.64,4.17,4.18,2.7,2.7L13.6,144l1.48,1.48,4.9-4.91,8.35-8.35,4.91,4.91-2.7,2.7-4.91-4.91-1.47,1.48,4.9,4.9L26.37,144l-4.91-4.9L20,140.57l4.91,4.91,4.18,4.17-4.91,4.91L25.63,156l4.91-4.91-.85-.85,3.55,3.55-4.91,4.91,1.47,1.47,4.91-4.91,9.82-9.81-9.82-9.82-4.91-4.91,4.91-4.91-1.47-1.47-4.91,4.91-4.17-4.17-2.7-2.7,4.91-4.91,8.34,8.34L44.53,116l4.91-4.91L48,109.65l-4.91,4.9-2.7-2.7,4.91-4.9-1.47-1.48-4.91,4.91-2.7-2.7,4.91-4.91,8.35,8.35,8.34-8.35,4.91,4.91-2.7,2.7-4.91-4.91L53.61,107l4.91,4.9-2.7,2.7-4.91-4.9-1.47,1.47,4.9,4.91,9.82,9.81,4.17-4.17,4.91,4.91-4.17,4.17-4.91,4.91-9.82,9.82-4.9,4.9,1.47,1.48L55.82,147l2.7,2.7-4.91,4.91L55.08,156,60,151.12l2.7,2.7-4.91,4.91-2.7-2.7-5.64-5.65-4.91-4.9L43.05,147,48,151.86l-3.43,3.43.73-.73-4.91-4.91-1.47,1.47L43.79,156l-2.7,2.7-4.91-4.91-1.47,1.47,4.91,4.91-4.91,4.91,1.47,1.47,4.91-4.91,2.7,2.7-4.91,4.91,1,1-5.19-5.19-4.17,4.17-4.91-4.91,2.7-2.7,4.91,4.91,1.47-1.47L29.8,160.2,20,150.38l-9.81,9.82-.17.17v2.94l1.64-1.64,2.7,2.7L10,168.71v1.14l.9.9,4.91-4.9,2.7,2.7-4.91,4.9-2.7-2.7-.9-.9v11.29l4.34,4.34-2.7,2.7L10,186.54v3l.17.16-.17.17v2.94l1.64-1.64,2.7,2.7L10,198.16v11.29l.33-.32-.33.32v1.14l4.34,4.34,1.47-1.47-4.91-4.91,2.7-2.7,4.91,4.91-8.34,8.34-.17.17v2.95l1.64-1.64L15.08,224l-.74-.73L10,227.62v1.13l.9.91,4.91-4.91,2.7,2.7-4.91,4.91,1.48,1.47,4.9-4.91,9.82-9.82-8.34-8.34,4.91-4.91,2.7,2.7-4.91,4.91,1.47,1.47L30.54,210l-.9-.89,5.07,5.07L40,208.89,38.88,210l4.91,4.91-2.7,2.7-4.91-4.91-1.47,1.48,4.91,4.9L34.71,224l1.47,1.47,4.91-4.9L48,227.45l-4.91,4.91,1.48,1.47,4.91-4.91,4.9,4.91,1.48-1.47-4.91-4.91,8.34-8.35,4.91-4.9-1.47-1.48-4.91,4.91-2.7-2.7L60,210l-1.47-1.47-4.91,4.91-2.7-2.7,4.91-4.91-1.48-1.47-4.9,4.91-4.91-4.91-1.48,1.47L48,210.76l-2.7,2.7-4.91-4.91,4.18-4.17,4.91-4.91L48,198l-4.91,4.91-2.7-2.7,4.91-4.91-1.47-1.47-4.91,4.9-2.7-2.7,4.91-4.91,8.35,8.35,4.17-4.17,4.91,4.91-2.7,2.7L50.91,198l-1.47,1.47,4.9,4.91,9.82,9.82L68.33,210l4.91,4.91-4.17,4.17L64.16,224l-9.82,9.82,9.82,9.82,4.91,4.9,1.47-1.47-4.91-4.91,2.7-2.7,4.91,4.91,1.47-1.47L69.81,238l-1.22,1.21L74,233.83l-5.65-5.65-2.7-2.7,4.91-4.9,6.87,6.87-4.9,4.91L74,233.83l4.91-4.91,4.9,4.91,1.48-1.47-4.91-4.91,2.7-2.7,4.17-4.17,4.91,4.9-2.7,2.7-4.91-4.9-1.47,1.47L88,229.66l-4.18,4.17L88,238l-4.91,4.91,1.47,1.47,4.91-4.91,2.7,2.7-4.91,4.91,1.47,1.47,4.91-4.9,4.91,4.9,1.47-1.47-4.91-4.91,2.7-2.7,4.91,4.91,1.47-1.47L99.26,238l4.17-4.17-4.17-4.17,4.9-4.91-1.47-1.47-4.91,4.9-2.7-2.7,4.91-4.9-1.47-1.48L93.61,224,88.7,219.1l4.91-4.9-1.47-1.48-4.91,4.91-2.7-2.7L89.44,210l4.17,4.18,5.65-5.65,2.7-2.7,4.9,4.91-2.7,2.7-4.9-4.91L97.78,210l4.91,4.91-2.7,2.7-4.91-4.91-1.47,1.48,4.91,4.9,9.82,9.82,4.91,4.91,1.47-1.47-4.91-4.91,2.7-2.7,4.91,4.91,1.47-1.48-4.91-4.9-.73.73,3.43-3.43,4.91,4.9-8.34,8.35,8.34,8.34-4.91,4.91,1.47,1.47,4.91-4.9,4.17-4.18,4.91,4.91,1.48-1.47L128.71,238l2.7-2.7,4.9,4.91,1.48-1.47-4.91-4.91L123.06,224l-4.91-4.91L114,214.93l4.91-4.91,4.17,4.18,9.82-9.82,4.91-4.91L136.31,198l-4.9,4.91-2.7-2.7,4.9-4.91,4.18,4.17,5.64-5.64,2.7-2.71L151,196l-2.7,2.7-4.91-4.9L142,195.3l4.91,4.91-2.7,2.7L139.26,198l-1.47,1.47,4.91,4.91,4.17,4.17L142,213.46l-2.7-2.7,4.91-4.91-1.47-1.47-4.91,4.91-4.91-4.91-1.47,1.47,4.9,4.91-2.7,2.7-4.9-4.91L127.23,210l4.91,4.91-2.7,2.7-4.9-4.91-1.48,1.48,4.91,4.9,9.82,9.82,9.81-9.82-4.17-4.17,4.91-4.91-.74-.73,4.91,4.91,8.35-8.35,4.91,4.91-8.35,8.34L152.51,224l-9.81,9.82,9.81,9.82,4.91,4.9,8.35,8.35-4.91,4.91-8.35-8.35-4.91,4.91.74-.74-4.91-4.9,2.7-2.7,4.91,4.9,1.47-1.47-4.91-4.91-9.81-9.81L128,248.55l-4.91,4.91,1.48,1.47,4.9-4.9,2.7,2.7-4.91,4.9,1.48,1.48,4.9-4.91,2.7,2.7-4.9,4.91,1.47,1.47,4.91-4.91,4.91,4.91,1.47-1.47-4.91-4.91,2.7-2.7,4.91,4.91-4.17,4.17-4.91,4.91,1.47,1.47,4.91-4.91,2.7,2.7L142,272.36l-4.17-4.17-4.18,4.17-4.9-4.91,2.7-2.7,4.9,4.91,1.48-1.47-4.91-4.91-9.82-9.82-4.91-4.91-4.9-4.9.73.73,4.91-4.91L117.42,238l-4.91,4.91-2.7-2.7,4.91-4.91-1.47-1.47-4.91,4.91-9.82,9.81-4.91,4.91,1.47,1.47L100,250l2.7,2.7-4.91,4.9,1.48,1.48,4.9-4.91,2.7,2.7-4.9,4.91-8.35-8.35-4.17,4.17-4.17,4.18-4.91-4.91,2.7-2.7L88,259.11l1.47-1.48-4.91-4.9,2.7-2.7,4.91,4.9,1.47-1.47-4.91-4.91-5.64-5.64-2.7-2.7,4.91-4.91-1.48-1.47-4.9,4.91-9.82,9.81,4.17,4.18-4.91,4.9-4.17-4.17-9.82,9.82-4.9,4.91,1.47,1.47,4.91-4.91,2.7,2.7-4.91,4.91-4.17-4.17-4.18,4.17-4.91-4.91,2.7-2.7L48,269.66l1.48-1.47-4.91-4.91-9.82-9.82-8.34,8.35-4.91-4.91,8.34-8.35L20,238.74l-4.9-4.91L13.6,235.3l4.91,4.91-2.7,2.7L10.9,238l-.9.91V240l4.34,4.34-2.7,2.7L10,245.44v2.95l.17.16-.17.17v2.95L11.64,250l6.87,6.87-4.91,4.91L10,258.2v11.29l4.34,4.34-2.7,2.7L10,274.89v2.95l.17.16-.17.17v2.95l1.64-1.64,2.7,2.7L10,286.52v11.29l3.6-3.61,4.91,4.91-2.7,2.7L10.9,296.9l-.9.91v1.13l4.34,4.34-2.7,2.7L10,304.34v3l.17.16L20,317.27l9.82-9.81,4.91-4.91-1.47-1.47L28.33,306l-2.7-2.7,4.91-4.91,4.17,4.18,5.64-5.65,2.7-2.7L48,299.11l-2.7,2.7-4.91-4.91-1.47,1.47,4.91,4.91-2.7,2.7-4.91-4.9-1.47,1.47,4.91,4.9L48,315.8l-4.91,4.91,1.48,1.47,4.91-4.91,8.34-8.34,4.91,4.91-2.7,2.7-4.91-4.91-1.47,1.47L58.52,318l-2.7,2.7-4.91-4.91-1.47,1.47,4.9,4.91L64.16,332l4.91,4.91,4.17,4.17L68.33,346l-4.17-4.18-9.82,9.82-4.9,4.91L50.91,358l4.91-4.91,2.7,2.7-4.91,4.91-4.17-4.17-5.65,5.64-2.7,2.7L36.18,360l2.7-2.7,4.91,4.9,1.47-1.47-4.91-4.91,2.7-2.7L48,358l1.48-1.47-4.91-4.91-4.18-4.17,4.91-4.91,2.7,2.7-4.91,4.91,1.48,1.47,4.91-4.91,4.9,4.91,1.48-1.47-4.91-4.91,2.7-2.7,4.91,4.91L60,346l-4.91-4.91,2.7-2.7,4.91,4.91,1.47-1.48-4.91-4.9-8.34-8.35,4.91-4.91-1.48-1.47-4.9,4.91-4.91-4.91-1.48,1.47L48,328.56l-6.87,6.87-4.91-4.9L34.71,332l4.91,4.91-4.91,4.9,1.47,1.48,4.91-4.91,2.7,2.7L38.88,346,40,347.12l-5.31-5.31L30.54,346l-4.91-4.91-1.47,1.47,4.91,4.91-2.7,2.7-4.91-4.91,8.34-8.34L20,327.09l-4.9-4.91-1.48,1.47,4.91,4.91-2.7,2.7-4.91-4.91-.9.91v1.13l4.34,4.34.74-.73-3.44,3.43L10,333.79v2.95l.17.17,8.34,8.34-4.91,4.91-2.7-2.7,4.91-4.91-1.47-1.47L10,345.42v1.14l.33.32-.33-.32v11.28l4.34,4.35-2.7,2.69L10,363.24v2.95l.17.17-.17.16v3l1.64-1.64,2.7,2.7L10,374.87v11.29l.9-.91,2.7-2.7,4.91,4.91-2.7,2.7-4.91-4.91-.9.91v1.14l4.34,4.34-2.7,2.69L10,392.7v2.94l.17.17L20,405.62l9.82-9.81,4.91-4.91-1.47-1.47-4.91,4.9-2.7-2.69,4.91-4.91,4.17,4.17L40,385.57l-1.16,1.16,4.91,4.91-2.7,2.69-4.91-4.9-1.47,1.47,4.91,4.91-4.91,4.91,1.47,1.47,4.91-4.91,2.7,2.7-4.91,4.91,1.47,1.47,4.91-4.91-.73-.73L48,404.15l-4.91,4.91,1.48,1.47,4.91-4.91L55.08,400l2.7-2.7,4.91,4.91-2.7,2.7L55.08,400l-1.47,1.47,4.91,4.91-2.7,2.7-4.91-4.91-1.47,1.47,4.9,4.91,9.82,9.82,4.91,4.91,4.17,4.17-4.91,4.91-4.17-4.17-4.91-4.91-1.47,1.47,4.91,4.91L54.34,440l-3.85,3.86h2.94l2.39-2.38,2.38,2.38H70.12l2.39-2.38,2.38,2.38h2.94L74,440l4.91-4.9,4.9,4.9-3.85,3.86h2.94l2.39-2.38,2.38,2.38H99.57l2.39-2.38,2.38,2.38h2.94L103.43,440l4.91-4.9,4.91,4.9-3.86,3.86h2.94l2.39-2.38,2.38,2.38H129l2.39-2.38,2.38,2.38h3L132.88,440l-9.82-9.81-4.91-4.91-1.47,1.47,4.91,4.91-2.7,2.7L114,429.43l4.17-4.17-8.34-8.35,4.91-4.9-1.47-1.48-4.91,4.91L100,423.79l-4.91-4.91-1.47,1.47,4.91,4.91,5.38,5.38-1.21-1.21-4.91,4.91,1.48,1.47,4.9-4.91,2.7,2.7-4.9,4.91-6.88-6.87,4.91-4.91-1.47-1.47-4.91,4.91-4.91-4.91-1.47,1.47,4.91,4.91-2.7,2.7-4.17,4.17-4.91-4.91,8.34-8.34,4.91-4.91-1.47-1.47-4.91,4.91-6.87-6.88,4.91-4.9-1.48-1.48-4.9,4.91L74,410.53,72.51,412l4.9,4.9-6.87,6.88-4.91-4.91,2.7-2.7,4.91,4.91,1.47-1.48-4.9-4.9-.74.73L74,410.53l-4.17-4.17,4.9-4.91,4.18,4.17,4.9,4.91,1.48-1.47-4.91-4.91,2.7-2.7,4.17-4.17,4.91,4.91-2.7,2.7L84.53,400l-1.47,1.47L88,406.36l-4.18,4.17,9.82,9.82,9.82-9.82-4.17-4.17,4.9-4.91L102.69,400l-4.91,4.91-2.7-2.7,4.91-4.91-1.47-1.47-4.91,4.91-4.91-4.91,4.91-4.91-1.47-1.47-4.91,4.9-2.7-2.69,4.91-4.91L88,385.25l-4.91,4.91-2.7-2.7,4.91-4.91,8.34,8.35,8.35-8.35,4.9,4.91-2.7,2.7-4.9-4.91-1.48,1.48,4.91,4.91-2.7,2.69-4.91-4.9-1.47,1.47,4.91,4.91,9.82,9.81,4.17-4.17,4.91,4.91,1.47-1.47L114,400l2.7-2.7,4.91,4.91-8.34,8.34,5.64,5.65,2.7,2.7-4.91,4.91,1.47,1.47,4.91-4.91,4.91-4.91-.74.74,4.91,4.91,1.48-1.48-4.91-4.9,4.17-4.18,4.91-4.91-1.48-1.47-4.9,4.91-2.7-2.7,4.91-4.91L132.14,400l-4.91,4.91-2.7-2.7,4.91-4.91,8.35,8.34,4.91-4.9-.74.73,4.91,4.91,1.47-1.47L143.43,400l2.7-2.7,4.91,4.91-4.17,4.17-2.7,2.7-4.91-4.91-1.47,1.47,4.91,4.91,9.81,9.82,4.91,4.91,8.35,8.34-4.91,4.91-8.35-8.34L142.7,440l-3.86,3.86h2.94l2.39-2.38,2.38,2.38h11.92l2.39-2.38,2.38,2.38h2.95L162.33,440l4.91-4.9,4.91,4.9-3.86,3.86h3l2.38-2.38,2.38,2.38h11.92l2.39-2.38,2.38,2.38h2.95L191.78,440l4.91-4.9,4.91,4.9-3.86,3.86h2.95l2.38-2.38,2.38,2.38h11.93l2.38-2.38,2.38,2.38h3L221.23,440l-8.34-8.34,4.91-4.91,2.7,2.7-4.91,4.91,1.47,1.47L222,430.9l2.7,2.7-4.91,4.91,1.47,1.47,4.91-4.9,4.91,4.9-3.86,3.86h2.95l2.38-2.38,2.38,2.38h11.93l2.38-2.38,2.38,2.38h2.95L250.68,440l4.91-4.9,4.91,4.9-3.86,3.86h2.95l2.38-2.38,2.38,2.38h11.93l2.38-2.38,2.38,2.38H284L280.13,440l4.91-4.9L290,440l1.47-1.47-4.91-4.91,2.7-2.7,4.91,4.91,1.47-1.47-4.9-4.91,2.7-2.7,4.9,4.91L290,440l-3.86,3.86h3l2.38-2.38,2.38,2.38h11.93l2.38-2.38,1.29,1.28a3.45,3.45,0,0,0,.91-2l-.73-.73-8.34-8.34,4.91-4.91,2.7,2.7-4.91,4.91,1.47,1.47,4.91-4.91,0,0V419.59l0,0-4.91-4.9,4.17-4.18-4.17-4.17,4.91-4.91,0,0V390.14l0,0-4.91-4.91,2.7-2.7,2.23,2.23v-2.94l-.76-.76.76-.75v-2.95l-2.23,2.23-2.7-2.7,4.91-4.91,0,0V360.69l0,0-4.91-4.91,2.7-2.7,2.23,2.23v-2.94l-.76-.76.76-.75v-2.95l-2.23,2.23-2.7-2.7,4.91-4.91,0,0V331.24l0,0-4.91-4.91,4.17-4.17L305.41,318l4.91-4.91,0,0V301.79l0,0-4.91-4.91,2.7-2.7,2.23,2.23v-2.94l-.76-.76.76-.76V289l-2.23,2.23-2.7-2.7,4.91-4.91,0,0V272.34l0,0-4.91-4.91,2.7-2.7,2.23,2.23V264l-.76-.76.76-.76v-2.94l-2.23,2.23-2.7-2.7,4.91-4.91,0,0V242.89l0,0L305.41,238l4.17-4.17-4.17-4.17,4.91-4.91,0,0V213.44l0,0-4.91-4.91,2.7-2.7,2.23,2.23v-3l-.76-.75.76-.76v-2.94l-2.23,2.23-2.7-2.7,4.91-4.91,0,0V184l0,0-4.91-4.91,2.7-2.7,2.23,2.23v-2.95l-.76-.75.76-.76v-2.94l-2.23,2.22-2.7-2.7,4.91-4.9,0,0V154.54l0,0-4.91-4.91,4.17-4.17-4.17-4.18,4.91-4.9-.74-.74.76.75V125.09l0,0-4.91-4.91-1.47,1.47,4.91,4.91-2.7,2.7-4.91-4.91,8.34-8.34.76-.76v-2.94l-2.23,2.22-2.7-2.7,4.91-4.9h0V95.64l0,0-4.91-4.91,2.7-2.7,2.23,2.23v-3l-.76-.75.76-.76V82.87l-2.23,2.23-2.7-2.7,4.91-4.91,0,0V66.19l-.76.75.74-.74-4.91-4.9,4.17-4.18L305.41,53,310.32,48l0,0V36.73l0,0-4.91-4.9-1.47,1.47,4.91,4.91-2.7,2.7L301.24,36l4.17-4.17,4.17-4.18.76-.75V24l-2.23,2.23-2.7-2.7,4.91-4.91ZM24.89,27.67,20,32.58l-4.9-4.91L10.9,23.5l4.91-4.91,2.7,2.7L13.6,26.2l1.48,1.47,4.9-4.9,4.18-4.18,4.91,4.91ZM30.54,22l-4.91-4.91,2.7-2.7,4.91,4.91Zm8.34,0-2.7-2.7,4.91-4.91,2.7,2.7ZM55.82,26.2l-4.91-4.91,2.7-2.7,4.91,4.91ZM60,22l-4.91-4.91,2.7-2.7,4.91,4.91ZM112.51,430.9l4.91,4.91.84-.85-3.54,3.55-4.91-4.91Zm-35.1,2.7-4.9,4.91-2.7-2.7,4.9-4.91Zm216-419.18,4.9,4.91-2.7,2.7-4.9-4.91Zm-4.18,4.17,4.91,4.91-2.7,2.7-4.91-4.91Zm.74,9.08L298.29,36l-4.9,4.91-2.7-2.7,4.9-4.91-1.47-1.47-4.91,4.9-2.7-2.7,4.91-4.9L290,27.67,285,32.58l-4.91-4.91,4.91-4.9ZM279.4,400l-4.91,4.91-2.7-2.7,4.91-4.91-1.48-1.47-4.9,4.91-4.91-4.91,4.91-4.91-1.48-1.47-4.9,4.9-2.71-2.69,4.91-4.91-1.47-1.48-4.91,4.91-2.7-2.7,4.91-4.91,8.35,8.35,4.9-4.91-.73.74,4.91,4.91-2.7,2.69-4.91-4.9-1.47,1.47,4.9,4.91,8.35,8.34-4.91,4.91-2.7-2.7,4.91-4.91Zm-40,2.21-4.17,4.17-2.7,2.7-4.91-4.91,8.35-8.34,4.9-4.91,8.35-8.35,4.91,4.91-8.35,8.35-4.9,4.91L236,395.81l-1.48,1.47ZM191,400l-4.9,4.91-2.7-2.7,4.9-4.91-1.47-1.47L182,400.72l-4.9-4.91,4.9-4.91-1.47-1.47-4.91,4.9-2.7-2.69,4.91-4.91-1.47-1.48-4.91,4.91-2.7-2.7,4.91-4.91L182,390.9l4.91,4.91,1.47-1.48-4.9-4.9,2.7-2.7,4.9,4.91-4.17,4.17,8.35,8.34-4.91,4.91-2.7-2.7,4.91-4.91Zm-47.61-29.45,2.7-2.7,4.91,4.91,1.47-1.47-4.91-4.91,4.91-4.91,4.91,4.91-4.91,4.91,1.48,1.47,4.9-4.91,2.7,2.7-4.9,4.91-4.18-4.17-4.17,4.17Zm3.44,6.38-2.7,2.7-4.91-4.91L142,372Zm-3.44-14.73,4.91-4.9L151,360l-4.91,4.9Zm14.73-6.38-.9.9,3.6-3.6,4.91,4.91,1.47-1.47-4.91-4.91,4.91-4.91,4.91,4.91-4.91,4.91,1.47,1.47,4.91-4.91,2.7,2.7-4.91,4.91.74.74-4.91-4.91-8.35,8.34L154,360l2.7-2.7,4.9,4.9,1.48-1.47Zm0-29.45-1.09,1.09,5.26-5.26,4.91-4.91-1.47-1.47-4.91,4.91-4.17-4.17-2.7-2.7,4.9-4.91,8.35,8.34,8.34-8.34,4.91,4.91-6.87,6.87-4.91-4.91-1.47,1.47,4.91,4.91,8.34,8.35-4.91,4.9-8.34-8.34-8.35,8.34-4.9-4.9,2.7-2.7,4.9,4.9,1.48-1.47Zm4.91-42.7,2.7,2.7-4.91,4.91-2.7-2.7Zm-6.38,3.43-2.7-2.69,4.9-4.91,2.7,2.7Zm10.55.74,4.91,4.91-4.91,4.91-4.91-4.91Zm5.64-35.09,2.7-2.7,4.91,4.9,1.47-1.47-4.9-4.91,4.9-4.9,4.91,4.9,1.47-1.47-4.9-4.91,2.7-2.7,4.9,4.91,1.48-1.47L187.61,238l2.7-2.7,4.91,4.91-8.35,8.34L182,253.46l-8.34,8.35-4.91-4.91,2.7-2.7,4.91,4.91,1.47-1.48Zm-10.55-77.8,4.91-4.91,4.91,4.91-4.91,4.9Zm3.44,6.38-2.7,2.7-4.91-4.91,2.7-2.7Zm-8.24-40.63.63.62,4.91-4.9-1.48-1.48-4.9,4.91-2.7-2.7,4.9-4.91,8.35,8.35,8.34-8.35,4.91,4.91-8.34,8.35,8.34,8.34-4.91,4.91-8.34-8.35-8.35,8.35-4.9-4.91,8.34-8.34Zm8.24-31-4.91,4.9-2.7-2.7,4.91-4.9-1.48-1.48-4.9,4.91-2.7-2.7,4.9-4.91,8.35,8.35,4.91-4.91-.74.74,4.91,4.9-2.7,2.7-4.91-4.9-1.47,1.47,4.91,4.91-4.91,4.9-4.91-4.9,4.91-4.91ZM72.51,88.05l4.9,4.9,1.48-1.47L74,86.58l4.91-4.91,4.9,4.91-4.9,4.9-4.18,4.18-4.9-4.91Zm-2.7-5.65,4.9-4.91,2.7,2.7-4.9,4.91Zm19.63,9.82,2.7,2.7-4.91,4.91-2.7-2.7Zm-6.38,3.44L80.36,93l4.91-4.91,2.7,2.7ZM85.27,85.1l-4.91-4.91,2.7-2.7L88,82.4Zm-6.38,26,4.9,4.91,1.48-1.48-4.91-4.9,2.7-2.7,4.91,4.9L83.79,116l-4.9,4.9L74,116l-4.17-4.18,4.9-4.9Zm5.64-5.65,2.7-2.7,4.91,4.91-2.7,2.7Zm4.17-4.17,4.91-4.91,4.91,4.91-4.91,4.91Zm38.53-20.37-4.17-4.17-4.17,4.17L114,76l4.17-4.17,4.91-4.91L128,71.85,132.14,76Zm6.38-3.44,2.7,2.7-4.9,4.91-2.7-2.7ZM117.42,82.4l-2.7,2.7-4.91-4.91,2.7-2.7Zm0,8.35-4.91,4.91L109.81,93l4.91-4.9Zm-4.17-4.17-4.91,4.9-4.91-4.9,4.91-4.91ZM102,85.1l-2.7-2.7,4.9-4.91,2.7,2.7Zm0,3,4.9,4.91-2.7,2.7-4.9-4.91Zm.73,9.08-2.7,2.7-4.91-4.91,2.7-2.7Zm-2.7,5.64,2.7,2.7-4.91,4.91-2.7-2.7Zm4.17,4.18,4.18,4.17,4.91,4.91,1.47-1.48-4.91-4.9,2.7-2.7,4.91,4.9L113.25,116l-4.91,4.9-4.91-4.9-4.17-4.18Zm10.56,10.55,3.54,3.54-.84-.84-4.91,4.91-2.7-2.7Zm-.74-12,2.7-2.7,4.91,4.91-2.7,2.7Zm4.17-4.17,4.91-4.91-1.47-1.47-4.91,4.91-2.7-2.7,4.91-4.91,4.17,4.17L128,101.3l-4.91,4.91Zm6.39-6.38,2.69-2.7,4.91,4.91-2.7,2.7Zm4.17-4.17,2.7-2.7,4.9,4.91-2.7,2.7Zm4.17-4.17,4.91-4.91,4.91,4.91-4.91,4.9Zm23.81-23.81,4.9,4.91,1.48-1.48-4.91-4.9,4.17-4.18,4.91-4.9,5.64-5.65,2.7-2.7,4.91,4.91-8.34,8.34,4.17,4.18-4.91,4.9.89.9L167.24,62l-8.35,8.35L154,65.47Zm-2.7-14,4.9-4.91,6.88,6.87-4.91,4.91Zm14.72-14.73,4.91-4.9L180.49,36l-4.91,4.91Zm14.73,31.42,2.7-2.7,4.9,4.91,1.48-1.48-4.91-4.9,2.7-2.7,4.91,4.9-8.35,8.35L191,76l-4.9,4.91-2.7-2.7,4.9-4.91-1.47-1.47L182,76.76l-8.34,8.34-4.91-4.91,2.7-2.7,4.91,4.91,1.47-1.47L172.88,76l2.7-2.7,4.91,4.91L182,76.76l-4.9-4.91,4.9-4.91,4.91,4.91,1.47-1.47Zm14.72-14.73,2.7-2.7L205.77,53l-4.17,4.17,4.17,4.18-4.91,4.9L196.69,62l-4.91-4.91,4.91-4.9,4.91,4.9,1.47-1.47Zm2.7-14-2.7-2.7,4.91-4.9,2.7,2.7Zm6.38-3.43,2.7,2.7L205,40.93l-2.7-2.7Zm14,23.8,4.91-4.9,4.91,4.9L226.14,62l-4.91-4.91-8.34-8.34,4.91-4.91,6.87,6.87-4.91,4.91Zm10.55,10.56,4.91-4.91-1-1,3.71,3.72-4.91,4.91L236,71.85l4.91-4.91,4.9,4.91,8.35,8.34-4.91,4.91-8.35-8.34L236,71.85l-8.35-8.35,4.91-4.9,2.7,2.7-4.91,4.9ZM246.51,53,251.42,48l-1-1,3.72,3.71-4.91,4.91,1.47,1.47,4.91-4.9,4.91,4.9L262,55.65l-4.91-4.91L260.78,47l-1,1L264.67,53l1.21-1.21-5.38,5.38,5.06,5.07-.89-.89-4.91,4.9L261,67.46,255.59,62l-5.42,5.43,1.25-1.26-4.91-4.9,4.17-4.18-8.34-8.34,4.91-4.91,2.7,2.7L245,51.48Zm25.28,12.52,2.7-2.7,4.91,4.91,1.47-1.48L276,61.3l2.7-2.7,4.91,4.9-8.35,8.35-4.9,4.91,1.47,1.47,4.91-4.91,2.7,2.7-4.91,4.91.73.74-4.9-4.91-4.18,4.17L262,85.1l-4.91-4.91,2.7-2.7,4.91,4.91,1.47-1.47L261.23,76l2.71-2.7,4.9,4.91,1.48-1.47-4.91-4.91,4.91-4.91,4.9,4.91,1.48-1.47Zm14.72-14.73,2.7-2.7L294.12,53l.74-.73L290,57.12,294.86,62l-.74-.73-4.91,4.9.74.74L285,62l-4.91-4.91,4.91-4.9,4.91,4.9,1.47-1.47Zm9.08,12,2.7,2.7-4.9,4.91-2.7-2.7Zm-49.82,313.4-4.9-4.9L236,366.36l4.9-4.91,4.91,4.91-4.9,4.91,1.47,1.47,4.91-4.91,2.7,2.7L245,375.44Zm-38.53-.73-4.91-4.91,2.7-2.7,4.91,4.91Zm2.7,14-4.91,4.9-2.7-2.69,4.91-4.91Zm-29.45-88.35-4.91,4.9-2.7-2.7,4.91-4.91-1.47-1.47-4.91,4.91-2.7-2.7,4.91-4.91,8.34,8.35,4.91,4.9,8.35,8.35-4.91,4.91-2.7-2.7,4.91-4.91L191,311.63l-4.9,4.91-2.7-2.7,4.9-4.91-1.47-1.48L182,312.36l-4.9-4.91,4.9-4.9Zm-7.61-136.71,2.7-2.7,4.91,4.91,1.47-1.47-4.9-4.91,4.9-4.91,4.91,4.91,1.47-1.47-4.9-4.91,2.7-2.7L191,156l1.48-1.47-4.91-4.91,2.7-2.7,4.91,4.91-8.35,8.34L182,165.11l1.48,1.47,4.9-4.91,2.7,2.7-4.9,4.91.73.74L182,165.11l-8.34,8.34-4.91-4.9,2.7-2.7,4.91,4.9,1.47-1.47Zm-.73-77.79-4.91,4.9-4.91-4.9,4.91-4.91,4.91,4.91,4.17,4.17-4.91,4.91-2.7-2.7,4.91-4.91ZM165.77,93l-2.7,2.71-4.91-4.91,2.7-2.7ZM217.06,61.3l-.74.73,3.44-3.43,4.91,4.9-3.44,3.44.74-.74ZM250,97.13l-2.7,2.7-4.91-4.91-1.47,1.47,4.9,4.91-4.91,4.91L236,101.3l4.91-4.91,4.9-4.91-.73.74Zm28.71-12L276,82.4l4.91-4.91,2.7,2.7ZM285,81.67,290,86.58,285,91.48l-4.91-4.9Zm-6.38,6.38L283.57,93l-2.7,2.7L276,90.75Zm2.21,18.9,2.7,2.69-4.91,4.91-2.7-2.7Zm-6.38,3.43-2.7-2.7,4.91-4.91,2.7,2.7Zm4.91-13.25-2.7,2.7-4.91-4.91,2.7-2.7Zm-4.18,4.17-4.9,4.91-4.91-4.91,4.91-4.91ZM260.5,116l-4.91,4.9-4.91-4.9,4.91-4.91,4.91-4.91-.74.74,4.91,4.9-2.7,2.7-4.91-4.9-1.47,1.47Zm4.17,25.27.78-.78-4.95,5,5.38,5.38-1.21-1.21-4.91,4.91,1.47,1.47,4.91-4.91,2.7,2.7-4.9,4.91-8.35-8.35-8.34,8.35-4.91-4.91,8.34-8.34-4.8-4.8.63.62,4.91-4.9L250,134.92,245,139.83l-2.7-2.7,4.91-4.91,6.87,6.88-4.91,4.9,1.47,1.48,4.91-4.91,4.91,4.91L262,144l-4.91-4.9,6.88-6.88,4.9,4.91-2.7,2.7-4.91-4.91-1.47,1.48Zm14,35.1,4.91,4.91-2.7,2.7L276,179.1Zm-2.7-5.65,4.91-4.9,2.7,2.7-4.91,4.9Zm13.25,24.55,4.91,4.91-2.7,2.7L286.51,198Zm-2.7-14,4.91-4.91,2.7,2.7L289.21,184Zm0,58.9,4.91-4.91,3.44,3.44-.74-.74-4.91,4.91L285,238.74l-4.91-4.91,4.91-4.91,4.91,4.91,1.47-1.47-4.91-4.91,2.7-2.7,4.91,4.91.74-.74L290,233.83,285,238.74Zm3.44,82,4.91,4.91-.74-.74-4.91,4.91-2.7-2.7,4.91-4.91L290,322.18,285,327.09l-4.91-4.91,4.91-4.91,4.17-4.17,4.91,4.91.74-.74-3.44,3.44-4.91-4.91L285,317.27Zm1.47,28-4.91-4.91,2.7-2.7,4.91,4.91Zm2.7,5.64-4.91,4.91-2.7-2.7,4.91-4.91Zm-18.9-18.89-4.9,4.9,1.47,1.48,4.91-4.91,2.7,2.7L274.49,346l-4.17-4.18L262,350.16l-4.91-4.91,8.35-8.34,4.9-4.91,8.35-8.35,4.91,4.91Zm8.35,8.34-4.91,4.91-2.7-2.7,4.91-4.91Zm-4.17,16.94-2.7,2.69-4.91-4.9,2.7-2.7ZM268.84,360l-4.9,4.9-2.71-2.69,4.91-4.91Zm-28-18.17-4.9-4.9-8.35-8.35,4.91-4.91,8.35,8.35,4.9,4.91,8.35,8.34-4.91,4.91L245,346ZM250,362.19l-2.7,2.69-4.91-4.9,2.7-2.7ZM236.69,346l-4.91-4.91,2.7-2.7,4.91,4.91Zm2.7,14-4.91,4.9-2.7-2.7,4.91-4.9Zm-4.17-12.52-2.7,2.7-4.91-4.91,2.7-2.7Zm-10.55-18.9L221.23,332l.74-.74-4.91-4.91-.74.74,4.91-4.91,4.91-4.91,4.91,4.91-4.91,4.91-4.91-4.91-1.47,1.47Zm0-218.91-4.91,4.9-2.7-2.7L222,107Zm-7.61-18.9,2.7-2.7,4.91,4.9L222,95.66Zm-1.47,19.63-2.7-2.7,4.9-4.91,2.71,2.7Zm5.64,5.65,4.91-4.91,8.34-8.35,4.91,4.91-2.7,2.7-4.91-4.91L230.31,107l4.91,4.9-2.7,2.7-4.91-4.9-1.47,1.47,4.91,4.91-4.91,4.9-4.91-4.9-1.47,1.47,4.91,4.91-2.7,2.7-4.91-4.91-1.47,1.47,4.91,4.91-2.7,2.7-4.91-4.91Zm9.08-20.37-2.7-2.7,4.91-4.91,2.7,2.7Zm6.38-3.44,2.7,2.7-4.91,4.91-2.7-2.7Zm14,14,3.44,3.44-4.91,4.9-2.7-2.7,4.91-4.9ZM245,110.38l-2.7-2.7,4.91-4.91,2.7,2.7Zm4.17,7.12,4.91,4.91-8.35,8.34-4.9,4.91-5.27,5.26,1.09-1.09-4.91-4.91-1.47,1.48,4.91,4.9-2.7,2.7-4.91-4.9,8.35-8.35,4.9-4.91Zm15.46,82.71-2.7,2.7L257.06,198l-1.47,1.47,4.91,4.91-4.91,4.91-4.91-4.91,4.91-4.91L254.12,198l-4.91,4.91-2.7-2.7,4.91-4.91-.74-.74,4.91,4.91,4.91-4.91-.74.74Zm14,2.7-2.7-2.7,4.91-4.91,2.7,2.7Zm0,2.94,4.91,4.91-2.7,2.7L276,208.55Zm-4.17-7.12-2.7-2.7,4.91-4.91,2.7,2.7Zm.73,10.56-.73.73,4.91,4.91-2.7,2.7-4.91-4.91-1.47,1.48,4.9,4.9,8.35,8.35-4.91,4.91L270.31,224l-4.9-4.91-8.35-8.34,4.91-4.91,4.17,4.17,4.18,4.18Zm-9.81,98.17-8.35-8.35L262,294.2l8.35,8.35,4.17-4.18,4.91,4.91-2.7,2.7-4.91-4.9-1.47,1.47,4.9,4.9,8.35,8.35-4.91,4.91-8.35-8.35Zm3.43,6.38-2.7,2.7-4.91-4.91,2.71-2.7Zm-29.45,0-6.87,6.87-4.91-4.91,8.35-8.35,4.9-4.9,8.35-8.35,4.91,4.91-8.35,8.35-4.9,4.9L236,307.45l-1.48,1.48ZM207.24,198.73l-4.91-4.9,2.7-2.71,4.91,4.91Zm2.7,14L205,217.63l-2.7-2.7,4.91-4.91Zm11.29-77.06,3.44,3.44-4.91,4.9,1.47,1.48,4.91-4.91,4.91,4.91-4.91,4.9-4.91-4.9-4.91-4.91.74.73,4.91-4.9ZM250,185.48l-2.7,2.7-4.91-4.91-1.47,1.47,4.9,4.91-4.91,4.91-4.9-4.91,4.91-4.91,4.9-4.91-.73.74Zm7.11,42,6.88-6.87,4.9,4.9-2.7,2.7-4.91-4.9-1.47,1.47,4.91,4.91,1.31-1.31-5.48,5.48,5.28,5.28L264.67,238l-4.91,4.91,1.09,1.09-5.26-5.26L250.33,244l1.09-1.09L246.51,238,245,239.47l4.91,4.91-2.7,2.7-4.91-4.91,2.7-2.7,4.17-4.17,4.91,4.91,1.47-1.47-4.91-4.91-8.34-8.35,4.91-4.9,6.87,6.87-4.91,4.91,1.47,1.47,4.91-4.91,4.91,4.91,1.47-1.47Zm11.78,14.72-4.9,4.91-2.71-2.7,4.91-4.91Zm-11.78,27.49,4.91-4.91,2.7,2.7-4.91,4.91.74.74-4.91-4.91-4.91-4.91,4.91-4.91,4.91,4.91-4.91,4.91Zm21.6-4.91,4.91,4.91-2.7,2.7L276,267.45Zm-2.7-5.64,4.91-4.91,2.7,2.7-4.91,4.91Zm4.91,24.54,2.7,2.7-4.91,4.91-2.7-2.7Zm-6.38,3.44-2.7-2.7,4.91-4.91,2.7,2.7Zm4.91-13.26-2.7,2.7-4.91-4.91,2.7-2.7ZM275.22,278l-4.9,4.91L265.41,278l4.91-4.9Zm-6.38,6.39-2.7,2.7-4.91-4.91,2.71-2.7Zm-4.9-7.86-2.71-2.7,4.91-4.91,2.7,2.7Zm-51.05,7.86,4.9-4.91,2.71,2.7-4.91,4.91Zm7.61,18.89-2.7,2.7-4.91-4.9,2.7-2.71ZM217.06,238l-.74.74,3.44-3.44,4.91,4.91-3.44,3.44.74-.74Zm4.17-14,3.44,3.44-4.91,4.91,1.47,1.47,4.91-4.91,4.91,4.91-4.91,4.91-4.91-4.91-4.91-4.91.74.74,4.91-4.91ZM236,248.55l4.91-4.9,4.9,4.9,8.35,8.35-4.91,4.91-8.35-8.35-4.9-4.91-8.35-8.34,4.91-4.91,6.87,6.87-4.91,4.91ZM245,268.92l4.91,4.91-2.7,2.7-4.91-4.91Zm-9.82-1.47-4.91,4.91-2.7-2.7,4.91-4.91Zm-7.61-10.55,2.7-2.7,4.91,4.91-2.7,2.7Zm9.08,12,2.7,2.7-4.91,4.91-2.7-2.7Zm0-11.29-4.91-4.9,2.7-2.7,4.91,4.9ZM222,254.2l2.7,2.7-4.91,4.91-2.7-2.7Zm-6.38,3.43-2.7-2.7,4.91-4.9,2.7,2.7Zm0,11.29,4.91,4.91-2.71,2.7-4.9-4.91ZM222,283.65l2.7,2.7-4.91,4.91-2.7-2.7Zm0-11.29-4.91-4.91,2.7-2.7,4.91,4.91Zm-.74-9.08,4.91-4.91,4.91,4.91-4.91,4.91Zm9.08,20.37,4.91,4.91-2.7,2.7-4.91-4.91Zm4.91,13.25-4.91,4.91-2.7-2.7,4.91-4.91Zm1.47,1.47,2.7,2.71-4.91,4.9-2.7-2.7Zm0-11.28-4.91-4.91,2.7-2.7,4.91,4.91ZM236,278l4.9-4.9,4.91,4.9-4.91,4.91Zm11.29,1.48,2.7,2.7L245,287.09l-2.7-2.7Zm4.17,4.17-.74-.74,3.44,3.44-4.91,4.91-2.7-2.7Zm-.74-10.55.74-.74-4.91-4.91,2.7-2.7,4.91,4.91Zm-4.91-54-4.9,4.91-8.35,8.35-4.91-4.91L236,219.1l4.9-4.9,8.35-8.35,4.91,4.91ZM236,209.29l3.43,3.43-4.91,4.91-2.7-2.7,4.91-4.91Zm-5.65,4.17-2.7-2.7,4.91-4.91,2.7,2.7Zm12-17.43,4.91-4.91,2.7,2.7L245,198.73Zm-25.28-46.38-.74.73,3.44-3.43,4.91,4.91-3.44,3.43.74-.73Zm4.91,16.2,2.7,2.7-4.91,4.9-2.7-2.69Zm-6.38,3.43-2.7-2.7,4.91-4.91,2.7,2.7Zm0,11.29,4.91,4.91-2.71,2.7-4.9-4.91Zm4.91,13.26-4.91,4.9-2.7-2.7,4.9-4.91ZM222,195.3l2.7,2.7-4.91,4.91-2.7-2.7ZM222,184l-4.91-4.91,2.7-2.7,4.91,4.91Zm-.74-9.08,4.91-4.91,4.91,4.91-4.91,4.9Zm11.29,1.47,2.7,2.7L230.31,184l-2.7-2.7Zm4.17,4.17,2.7,2.7-4.91,4.91-2.7-2.7ZM236,170l.73-.74-4.91-4.91,2.7-2.7,4.91,4.91Zm-.74.73-2.7,2.7-4.91-4.9,2.7-2.7Zm-19.63-30.92-2.7-2.7,4.91-4.91,2.7,2.7Zm0,11.29L220.5,156l-2.7,2.7-4.91-4.91Zm.73,9.08-4.91,4.91-4.9-4.91,4.9-4.91ZM205,158.73l-2.7-2.7,4.91-4.91,2.7,2.7Zm0,2.94,4.91,4.91-2.7,2.7-4.91-4.91Zm4.91,21.6L205,188.18l-2.7-2.7,4.91-4.91Zm-4.17-12.52-2.7,2.7-4.91-4.9,2.7-2.7Zm0,8.35L200.86,184l-2.7-2.7,4.91-4.91Zm-4.91,16.2,4.91,4.91-2.7,2.7L198.16,198Zm5.65-5.65,4.9-4.91,4.91,4.91-4.91,4.91Zm14.72,14.73,4.91-4.91,8.34-8.35,4.91,4.91-2.7,2.7-4.91-4.9-1.47,1.47,4.91,4.91-2.7,2.7L227.61,198l-1.47,1.47,4.91,4.91-4.91,4.91-4.91-4.91-1.47,1.47,4.91,4.91-2.7,2.7-4.91-4.91L215.59,210l4.91,4.91-2.7,2.7-4.91-4.91Zm-.73,18.9-4.91,4.9-2.7-2.7,4.91-4.9Zm-4.91,16.19,4.91,4.91-2.7,2.7-4.91-4.91Zm.73,9.08-4.91,4.91-4.9-4.91,4.9-4.9Zm0,29.45-4.91,4.91-4.9-4.91,4.9-4.9ZM205,276.53l-2.7-2.7,4.91-4.91,2.7,2.7Zm0,3,4.91,4.91-2.7,2.69-4.91-4.9Zm4.91,21.6L205,306l-2.7-2.7,4.91-4.91Zm-9.08.73-2.7-2.7,4.91-4.91,2.7,2.7Zm4.17,7.12,4.91,4.91-2.7,2.7-4.91-4.91Zm1.48-1.48,4.9-4.9,4.91,4.9-4.91,4.91Zm11.29,1.48,2.7,2.7-4.91,4.91-2.7-2.7Zm-.74,9.08L222,313.1l-.74-.74,3.44,3.44-4.91,4.91-3.44-3.44Zm4.91-16.2-4.91-4.91,2.7-2.7,4.91,4.91Zm-.74-9.08,4.91-4.91,4.91,4.91-4.91,4.91Zm29.45,0,4.91-4.91,4.91-4.91-.74.74,4.91,4.91-2.7,2.7-4.91-4.91-1.47,1.47,4.91,4.91-4.91,4.91Zm30.19,9.08L276,296.9l2.7-2.7,4.91,4.91Zm-.74-9.08,4.91-4.91,4.91,4.91L285,297.64Zm0-29.45,4.91-4.91,4.91,4.91L285,268.19Zm-4.91-14.73-4.9,4.91,1.47,1.47,4.91-4.9,2.7,2.7-4.91,4.9-4.17-4.17L262,261.81l-4.91-4.91,8.35-8.35,4.9-4.9,8.35-8.35,4.91,4.91Zm-9.08-49.82-4.91-4.91,2.71-2.7,4.9,4.91Zm-15.46-14,.74-.73-4.91-4.91,2.7-2.7,4.91,4.91Zm-9.82-19.63L236,160.2l-8.35-8.34,4.91-4.91,2.7,2.7,4.17,4.17-4.91,4.91L236,160.2l4.91-4.91,4.9,4.91,8.35,8.35-4.91,4.9Zm-10.55-40-2.7-2.7,4.91-4.91,2.7,2.7Zm6.38-3.44,2.7,2.7-4.91,4.91-2.7-2.7Zm-20.37,9.08-4.91,4.91-4.9-4.91L205,132.22l4.91,4.91-2.7,2.7-4.91-4.91-.73.74,4.91-4.91,4.9-4.91Zm-15.46-5.64-2.7-2.7,4.91-4.91,2.7,2.7Zm6.38-3.44,2.7,2.7L205,129.28l-2.7-2.7Zm0-11.29-4.91-4.91,2.7-2.7,4.91,4.91Zm-4.91-13.25,4.91-4.91,2.7,2.7L205,99.83Zm-1.47-1.47L198.16,93l4.91-4.9,2.7,2.7Zm0,11.29,4.91,4.9-2.7,2.7-4.91-4.9Zm.74,9.08-4.91,4.9-4.91-4.9,4.91-4.91Zm-11.29-1.48-2.7-2.7,4.91-4.9,2.7,2.69Zm-4.17-4.17-2.7-2.7,4.9-4.91,2.7,2.7Zm.73,10.55-.73.74,4.9,4.91-2.7,2.7-4.9-4.91Zm.74-.73,2.7-2.7,4.91,4.91-2.7,2.7Zm9.08,20.37,4.91,4.91,1.47-1.48-4.91-4.9,2.7-2.7,4.91,4.9.74-.73-4.91,4.91-4.91,4.9,1.47,1.48,4.91-4.91,2.7,2.7-4.91,4.91-4.17-4.18-4.91-4.9Zm4.91,34.36-4.91,4.9-4.91-4.9,4.91-4.91Zm-11.29-1.48-2.7-2.7,4.91-4.9,2.7,2.7Zm0,3,4.91,4.91-2.7,2.7-4.91-4.91Zm.73,9.08-2.7,2.7-4.9-4.91,2.7-2.7Zm0,8.34-4.9,4.91-2.7-2.7,4.9-4.91Zm1.48,1.48,2.7,2.7-4.91,4.91-2.7-2.7Zm4.17,4.17,4.91,4.91-4.91,4.91-4.91-4.91Zm6.38,6.38,2.7,2.7-4.91,4.91-2.7-2.7Zm3.44,13.25,4.9-4.9,4.91,4.9L211.41,224l-4.9-4.91L205,220.58l4.91,4.9-2.7,2.7-4.91-4.9Zm3.43,23.07L205,247.08l-2.7-2.7,4.91-4.91ZM205,250l4.91,4.9-2.7,2.7-4.91-4.9Zm.74,9.08-2.7,2.7-4.91-4.91,2.7-2.7Zm0,8.34-4.91,4.91-2.7-2.7,4.91-4.91Zm-4.91,16.2,4.91,4.91-2.7,2.7-4.91-4.91Zm.74,9.08-4.91,4.91-4.91-4.91,4.91-4.91Zm-6.38-6.38-4.91,4.91-2.7-2.7,4.91-4.91Zm-7.61-18.9,2.7-2.7,4.91,4.91-2.7,2.7Zm-1.47,19.64-2.7-2.7,4.9-4.91,2.7,2.7Zm.73,10.55-.73.73,4.9,4.91-2.7,2.7-4.9-4.9Zm.74-.74,2.7-2.7,4.91,4.91-2.7,2.7Zm9.08,20.37,4.17-4.17,4.91,4.91-2.7,2.7-4.91-4.91-1.47,1.47,4.91,4.91,4.91,4.91-.74-.74-4.91,4.91-2.7-2.7,4.91-4.91-1.47-1.47-4.91,4.91-4.91-4.91Zm4.17,25.28,4.91,4.91-2.7,2.7-4.91-4.91Zm4.91,13.25-4.91,4.91-2.7-2.7,4.91-4.91Zm1.47,1.48,2.7,2.7-4.91,4.9-2.7-2.7Zm0-11.29-4.91-4.91,2.7-2.7,4.91,4.91Zm-.73-9.08-4.18-4.18,4.91-4.9,2.7,2.7-4.91,4.9,1.48,1.48,4.9-4.91,4.91,4.91-4.91,4.9Zm6.38-6.38,2.7-2.7,4.91,4.9-2.7,2.7Zm41.23-2-6.87,6.87-4.91-4.9,2.7-2.7,4.91,4.9,1.47-1.47-4.91-4.91-1.09,1.09,5.26-5.26,4.91-4.91-1.47-1.47-4.91,4.91L245,316.54l-2.7-2.7,4.91-4.91,2.7,2.7L245,316.54l1.47,1.47,4.91-4.91L250.33,312l5.26,5.26,5.26-5.26-1.09,1.09,4.91,4.91,1.11-1.11-5.28,5.28,5.15,5.15-1-1-4.91,4.91,1.47,1.47,4.91-4.9,2.7,2.7-4.9,4.9-6.88-6.87,4.91-4.91-1.47-1.47-4.91,4.91-4.91-4.91-1.47,1.47Zm32.39-29.45,4.91-4.91,2.7,2.7-4.91,4.91Zm4.91-7.85-4.91-4.91,2.7-2.7,4.91,4.91Zm-4.91-21.6,4.91-4.91,2.7,2.7-4.91,4.91Zm4.91-7.85-4.91-4.91,2.7-2.7,4.91,4.91Zm-4.91-51.05,4.91-4.91,2.7,2.7-4.91,4.91Zm3.44-6.38L285,209.29l-4.91-4.91,4.91-4.91Zm-10.55-18.9-2.7,2.7-4.91-4.91,2.7-2.7Zm-4.18,4.17-4.9,4.91-4.91-4.91,4.91-4.91Zm-11.28-1.47-2.71-2.7,4.91-4.91,2.7,2.7ZM259.76,184l.74.73-3.44-3.43L262,176.4l2.7,2.7Zm-4.17-4.18-4.91-4.9,4.91-4.91,4.91,4.91Zm5.64-74.36,2.71-2.7,4.9,4.91-2.7,2.7Zm2.71-5.64-2.71-2.7,4.91-4.91,2.7,2.7Zm-4.18-4.17.74.73L257.06,93,262,88.05l2.7,2.7Zm-4.17-4.18-4.91-4.9,4.91-4.91,4.91,4.91ZM254.12,93l-3.44,3.44.74-.73-4.91-4.91,2.7-2.7ZM236,81.67l.73-.74L231.78,76l2.7-2.7,4.91,4.91Zm-.74.73-2.7,2.7-4.91-4.91,2.7-2.7Zm-4.17,4.18-4.91,4.9-4.91-4.9,4.91-4.91ZM222,77.49l2.7,2.7-4.91,4.91-2.7-2.7Zm-6.38,3.44-2.7-2.7,4.91-4.91,2.7,2.7Zm0,11.29,4.91,4.91-2.71,2.7-4.9-4.91Zm.73,9.08-4.91,4.91-4.9-4.91,4.9-4.91Zm-9.08-20.37L202.33,76l2.7-2.7,4.91,4.91Zm-1.47,1.47-2.7,2.7-4.91-4.91,2.7-2.7Zm-4.17,4.18-4.91,4.9-4.91-4.9,4.91-4.91ZM190.31,85.1l-2.7-2.7,4.91-4.91,2.7,2.7Zm0,3L195.22,93l-2.7,2.7-4.91-4.91Zm.73,9.08-2.7,2.7-4.9-4.91,2.7-2.7Zm-4.17,4.17L182,106.21l-4.91-4.91L182,96.39Zm-11.29-1.47-2.7-2.7,4.91-4.91,2.7,2.7Zm0,2.94,4.91,4.91-2.7,2.7-4.91-4.91ZM182,125.84l4.91,4.91,8.35,8.35-4.91,4.9-2.7-2.7,4.91-4.9L191,134.92l-4.9,4.91,1.08,1.09L182,135.66l-4.91-4.91-8.34-8.34,4.91-4.91Zm-1.47,57.43-4.91,4.91-2.7-2.7,4.91-4.91Zm1.47,1.47,4.91,4.91L182,194.56l-4.91-4.91Zm4.91,24.55-.73.73,4.9,4.91-2.7,2.7-4.9-4.91Zm.74-.74,2.7-2.7,4.91,4.91-2.7,2.7Zm9.08,20.37,4.91,4.91,1.47-1.47-4.91-4.91,2.7-2.7,4.91,4.91.74-.74-4.91,4.91-4.91,4.91,1.47,1.47,4.91-4.91,2.7,2.7-4.91,4.91-4.17-4.17-4.91-4.91Zm4.91,34.36-4.91,4.91-4.91-4.91,4.91-4.91Zm-11.29-1.47-2.7-2.7,4.91-4.91,2.7,2.7Zm-4.17-4.18.73.74-3.43-3.44,4.9-4.9,2.7,2.7Zm0,11.29,4.9,4.91-2.7,2.7-4.9-4.91Zm.73,9.08L182,282.91,177.05,278l4.91-4.9Zm3.44,45.65,4.91,4.91-8.35,8.35-4.91,4.9-8.34,8.35-4.91-4.91,8.34-8.34L182,332Zm-3.44,23.07-3.43-3.43,4.9-4.91,2.7,2.7-4.9,4.91ZM191,362.19l-2.7,2.69-4.9-4.9,2.7-2.7Zm1.48-19.64,2.7,2.7-4.91,4.91-2.7-2.7Zm-12,17.43-4.91,4.9-2.7-2.69,4.91-4.91Zm-4.91,7.85,4.91,4.91-2.7,2.7-4.91-4.91Zm1.47-1.47,4.91-4.91,4.91,4.91L182,371.27Zm11.29,1.47,2.7,2.7-4.9,4.91-2.7-2.7Zm4.18,4.17,2.7,2.7-4.91,4.91-2.7-2.7Zm0-11.29-4.91-4.91,2.7-2.7,4.91,4.91Zm-.74-9.08,4.91-4.91,4.91,4.91-4.91,4.91ZM200.86,372l4.91,4.91-2.7,2.7-4.91-4.91Zm5.65-5.64,4.9-4.91,4.91,4.91-4.91,4.91Zm6.38-6.38,2.7-2.7,4.91,4.9-2.71,2.7Zm0,12.76,4.9-4.91,2.71,2.7-4.91,4.91Zm7.61,18.9-2.7,2.69-4.91-4.9,2.7-2.7ZM222,372l2.7,2.7-4.91,4.91-2.7-2.7Zm0-11.29-4.91-4.91,2.7-2.7,4.91,4.91Zm-.74-9.08-8.34-8.34,4.91-4.91,2.7,2.7L215.59,346l1.47,1.47,4.91-4.91,2.7,2.7-4.91,4.91,1.47,1.47,4.91-4.91,4.91,4.91-4.91,4.91,1.47,1.47,4.91-4.91,2.7,2.7-4.91,4.91,1.46,1.46-5.63-5.63ZM230.31,372l4.91,4.91-2.7,2.7-4.91-4.91Zm4.91,13.25-4.91,4.91-2.7-2.7,4.91-4.91Zm1.47,1.48L236,386l3.43,3.44-4.91,4.9-2.7-2.69Zm0-11.29-4.91-4.91,2.7-2.7,4.91,4.91ZM251.42,372l-.74-.73,3.44,3.43-4.91,4.91-2.7-2.7Zm-.74-10.55.74-.74-4.91-4.91,2.7-2.7,4.91,4.91,1.47-1.47-4.91-4.91,4.91-4.91,4.91,4.91-4.91,4.91,1.47,1.47L262,353.1l2.7,2.7-4.91,4.91.74.74-4.91-4.91Zm9.82,9.82-.74.73,4.91,4.91-2.7,2.7-4.91-4.91Zm.73-.74,2.71-2.7,4.9,4.91-2.7,2.7Zm4.18-4.17,4.91-4.91,4.9,4.91-4.9,4.91Zm11.29,1.47,2.7,2.7-4.91,4.91-2.7-2.7Zm4.17,4.17,2.7,2.7-4.91,4.91-2.7-2.7Zm0-11.29L276,355.8l2.7-2.7,4.91,4.91Zm-.74-9.08,4.91-4.91,4.91,4.91L285,356.54ZM289.21,372l4.91,4.91-2.7,2.7-4.91-4.91Zm6.38,3.44-4.9-4.91,2.7-2.7,4.9,4.91Zm2.7,14-4.9,4.9-2.7-2.69,4.9-4.91Zm-7.6-27.25,4.9-4.9,2.7,2.7-4.9,4.9Zm4.9-16.19-4.9-4.91,2.7-2.7,4.9,4.91Zm-4.9-13.26,4.9-4.9,2.7,2.7-4.9,4.9Zm4.9-16.19-4.9-4.91,2.7-2.7,4.9,4.91Zm-4.9-13.26,4.9-4.91,2.7,2.71-4.9,4.9Zm4.9-16.19-4.9-4.91,2.7-2.7,4.9,4.91Zm-4.9-13.26,4.9-4.91,2.7,2.7-4.9,4.91Zm4.9-16.2-4.9-4.9,2.7-2.7,4.9,4.9Zm-4.9-13.25,4.9-4.91,2.7,2.7-4.9,4.91Zm4.9-16.2-4.9-4.9,2.7-2.7,4.9,4.9Zm-4.9-13.25,4.9-4.91,2.7,2.7-4.9,4.91Zm4.9-16.2-4.9-4.9,2.7-2.71,4.9,4.91Zm-4.9-13.25,4.9-4.91,2.7,2.7-4.9,4.91Zm4.9-16.2-4.9-4.91,2.7-2.7,4.9,4.91Zm-1.47,1.47-2.7,2.7-4.91-4.9,2.7-2.7ZM290,174.93l-4.91,4.9-4.91-4.9L285,170ZM275.22,160.2l-4.9,4.91,1.47,1.47,4.91-4.91,2.7,2.7-4.91,4.91.73.74-4.9-4.91L262,173.45l-4.91-4.9,2.7-2.7,4.91,4.9,1.47-1.47-4.91-4.91,2.71-2.7,4.9,4.91,1.48-1.47-4.91-4.91,4.91-4.91,4.9,4.91,1.48-1.47-4.91-4.91,2.7-2.7L279.4,156l1.47-1.47L276,149.65l2.7-2.7,4.91,4.91Zm3.44-16.2-8.35-8.34-4.9-4.91-8.35-8.34L262,117.5l8.35,8.34,4.17-4.17,4.91,4.91-2.7,2.7-4.91-4.91-1.47,1.47,4.9,4.91-4.91,4.91,1.48,1.47,4.91-4.91,6.87,6.88Zm2.21-18.89L276,120.2l2.7-2.7,4.91,4.91Zm-.74-9.08,4.91-4.91L290,116l-4.91,4.9Zm6.38-6.38,2.7-2.7,4.91,4.9-2.7,2.7Zm0-16.7,4.91-4.9,2.7,2.7-4.91,4.91Zm4.91-7.85-4.91-4.91,2.7-2.7,4.91,4.91ZM261.23,67.68l4.91-4.91,2.7,2.7-4.9,4.91Zm4.91-16.2-4.91-4.91,2.71-2.7,4.9,4.91ZM245,62.77,250,67.68l-2.7,2.7-4.91-4.91Zm-29.45,0,4.91,4.91-2.7,2.7-4.91-4.91Zm.73,9.08-4.91,4.91-4.9-4.91,4.9-4.91ZM205,70.38l-2.7-2.7,4.91-4.91,2.7,2.7Zm-28.37-8.75,3.83,3.84-4.91,4.91-2.7-2.7,4.91-4.91ZM157.42,71.85l8.35,8.34-4.91,4.91-4.17-4.17-4.18-4.17-4.91-4.91-1.47,1.47L151,78.23l-2.7,2.7L143.43,76l4.17-4.17,4.91-4.91ZM146.87,82.4l-2.7,2.7-4.91-4.91,2.7-2.7Zm-2.7,5.65,2.7,2.7L142,95.66l-2.7-2.7Zm3.43,13.25,4.91-4.91L151,94.92l-4.91,4.91-2.7-2.7,4.91-4.91,4.17,4.17,4.18-4.17,4.9,4.91-2.7,2.7L154,94.92l-1.48,1.47,4.91,4.91-4.91,4.91Zm3.44,6.38-2.7,2.7-4.91-4.91,2.7-2.7Zm22.58,68.72,2.7,2.7L171.41,184l-2.7-2.7Zm2,14.72,4.91,4.91-2.7,2.7-4.91-4.91ZM182,214.2l4.91,4.9,8.35,8.35-4.91,4.91L182,224l-4.91-4.91-8.34-8.34,4.91-4.91Zm-1.47,57.42-4.91,4.91-2.7-2.7,4.91-4.91Zm-4.91,7.86,4.91,4.91-2.7,2.7-4.91-4.91Zm.74,9.08-2.7,2.7-4.91-4.91,2.7-2.7ZM163.07,372l2.7,2.7-4.91,4.91-2.7-2.7Zm4.17,4.17,4.17-4.17,4.91,4.91-4.17,4.17L167.24,386l-4.91-4.91Zm25.28,14-4.91-4.91,2.7-2.7,4.91,4.91Zm-.74-9.08,4.91-4.91,4.91,4.91L196.69,386Zm11.29,1.47,2.7,2.7-4.91,4.91-2.7-2.7Zm2,14.73,4.91,4.91-2.7,2.7L202.33,400Zm1.48-1.47,4.9-4.91,4.91,4.91-4.91,4.91Zm11.29,1.47,2.7,2.7-4.91,4.91-2.7-2.7Zm-.74,9.08,4.91-4.91-.74-.73,3.44,3.43-4.91,4.91-3.44-3.44Zm4.91-16.2-4.91-4.91,2.7-2.7,4.91,4.91Zm-.74-9.08,4.91-4.91,4.91,4.91L226.14,386Zm29.45,0,4.91-4.91,4.91,4.91L255.59,386Zm30.19,9.08L276,385.25l2.7-2.7,4.91,4.91Zm-.74-9.08,4.91-4.91,4.91,4.91L285,386Zm11.29,1.47,2.7,2.7-4.91,4.91-2.7-2.7Zm2,14.73,4.9,4.91-2.7,2.7-4.9-4.91Zm1.47-1.47,4.91-4.91,4.91,4.91-4.91,4.91Zm0-29.45,4.91-4.91,4.91,4.91-4.91,4.91Zm0-29.45,4.91-4.91,4.91,4.91-4.91,4.9Zm0-29.46,4.91-4.9,4.91,4.9-4.91,4.91Zm0-29.45,4.91-4.9,4.91,4.9-4.91,4.91Zm0-29.45,4.91-4.9,4.91,4.9-4.91,4.91Zm0-29.45,4.91-4.9,4.91,4.9L299.77,224Zm0-29.45,4.91-4.91,4.91,4.91-4.91,4.91Zm0-29.45,4.91-4.91,4.91,4.91-4.91,4.91Zm-1.47-1.47-2.7-2.7,4.9-4.91,2.7,2.7Zm1.47-8.35-.74-.73-4.91,4.91L285,150.38l-4.91-4.9,4.91-4.91,4.91,4.91,1.47-1.48-4.91-4.9,2.7-2.7,4.91,4.9.74-.73L290,145.48Zm-8.35-28,4.91-4.91,2.7,2.7-4.91,4.91Zm9.08-.74,2.7,2.7-4.9,4.91-2.7-2.7Zm0-11.29-4.9-4.91,2.7-2.7,4.9,4.91Zm-4.9-13.25,4.9-4.91,2.7,2.7-4.9,4.91Zm4.9-16.2L290.69,76l2.7-2.7,4.9,4.91Zm-.73-9.08,4.91-4.91,4.91,4.91-4.91,4.91Zm.73-20.37-4.9-4.91,2.7-2.7,4.9,4.91Zm-12-17.43-2.7,2.7L276,31.85l2.7-2.7ZM276.7,14.42l6.87,6.87-4.91,4.91L276,23.5l4.91-4.91-1.47-1.47L274.49,22l-2.7-2.7Zm-2.21,18.9,4.91,4.91-2.7,2.7L271.79,36l-1.47,1.47,4.9,4.91,4.18,4.17,4.17,4.17-4.91,4.91-8.35-8.34-4.9-4.91-8.35-8.35,4.91-4.9,8.35,8.34Zm-10.55-18.9,4.9,4.91-2.7,2.7-4.91-4.91Zm-3.44,3.44-.74.73,4.91,4.91L262,26.2l-4.91-4.91-1.47,1.48,4.91,4.9-4.91,4.91-4.91-4.91,4.91-4.9Zm-6.38,3.43-4.91,4.91-2.7-2.7,4.91-4.91Zm-6.87-6.87,2.7,2.7L245,22l-2.7-2.7Zm2,14.73,4.91,4.9-8.35,8.35-4.9,4.91-5.43,5.42,1.25-1.25-4.91-4.91L230.31,48,235.22,53l-2.7,2.7-4.91-4.91L236,42.4l-4.18-4.17-4.17-4.18,4.91-4.9,2.7,2.7-4.91,4.9,1.47,1.48,4.91-4.91-.4-.41,3.1,3.11-4.91,4.91L236,42.4l4.9-4.91ZM234.48,14.42l4.91,4.91-2.7,2.7-4.91-4.91Zm-16.68,0,2.7,2.7L215.59,22l-2.7-2.7Zm3.43,13.25-4.17-4.17L222,18.59l2.7,2.7-4.91,4.91,1.47,1.47,4.91-4.9,5.26-5.27-1.09,1.09,4.91,4.91-2.7,2.7-4.91-4.91-1.47,1.48,4.91,4.9-4.91,4.91-4.91-4.91-1.47,1.48,4.91,4.9-2.7,2.7-4.91-4.9-1.47,1.47,4.91,4.91-2.7,2.7L212.89,36ZM216.32,42.4l-4.91,4.91-4.9-4.91L205,43.87l4.91,4.91-2.7,2.7-4.91-4.91,4.18-4.17,4.9-4.91ZM205,14.42l4.91,4.91-2.7,2.7-4.91-4.91Zm-4.17,4.17,4.91,4.91-2.7,2.7-4.91-4.91Zm.74,9.08-4.91,4.91-4.91-4.91,4.91-4.9Zm-6.38,6.38-2.7,2.7-4.91-4.9,2.7-2.7Zm0-12.76-4.91,4.91-2.7-2.7,4.91-4.91Zm-6.88-6.87,2.7,2.7L186.14,22l-2.7-2.7Zm-1.47,28,1.47-1.47L183.44,36l3.43-3.44-.73.74,4.9,4.91.74-.74-4.91,4.91,8.35,8.34-4.91,4.91-2.7-2.7L192.52,48,191,46.57l-4.9,4.91.73.74-3.43-3.44,4.9-4.91-1.47-1.47L182,47.31l-4.91-4.91L182,37.49Zm-11.29-28,4.91,4.91-2.7,2.7-4.91-4.91Zm-4.17,4.17,4.91,4.91-2.7,2.7-4.91-4.91Zm.74,9.08-4.91,4.91-4.91-4.91,4.91-4.9Zm-6.38-6.38-4.91,4.91-2.7-2.7,4.91-4.91Zm-6.88-6.87L162.44,18l-.85-.85L156.69,22l-2.7-2.7Zm-12.76,0L151,19.33l-2.7,2.7-4.91-4.91ZM142,18.59l4.91,4.91-2.7,2.7-4.91-4.91Zm-25.28-4.17,4.91,4.91-2.7,2.7L114,17.12Zm-8.34,8.35,4.91,4.9,1.47-1.47-4.91-4.91,2.7-2.7,4.91,4.91-4.17,4.17-4.91,4.91-4.91-4.91L99.26,23.5l4.9-4.91ZM100,14.42l2.7,2.7L97.78,22l-2.7-2.7Zm-.73,17.43,2.7-2.7,4.9,4.9-2.7,2.7L100,40.93,95.08,36Zm-12-17.43,4.91,4.91L89.44,22l-4.91-4.91Zm-8.34,8.35,4.9,4.9,1.48-1.47-4.91-4.91,2.7-2.7L88,23.5l-4.18,4.17-4.9,4.91L74,27.67,69.81,23.5l4.9-4.91ZM68.33,22l-2.7-2.7,4.91-4.91,2.7,2.7Zm1.48,9.82,2.7-2.7,4.9,4.9-2.7,2.7Zm0,29.45L74,57.12l-5.65-5.64-2.7-2.7,4.91-4.91,6.87,6.87-4.9,4.91L74,57.12l4.91-4.9,4.9,4.9,1.48-1.47-4.91-4.91,2.7-2.7L88,53l1.47-1.47-4.91-4.91,2.7-2.7,4.91,4.91,1.47-1.47L88.7,42.4l-8.34-8.35,4.91-4.9,2.7,2.7-4.91,4.9,1.47,1.48,4.91-4.91,2.7,2.7-4.91,4.91L88.7,42.4l4.91-4.91,4.91,4.91-4.91,4.91,1.47,1.47L100,43.87l8.35,8.35,4.91,4.9,1.47-1.47-4.91-4.91,8.34-8.34-5.64-5.65-2.7-2.7,4.91-4.9,2.7,2.7-4.91,4.9L114,38.23l4.91-4.91,2.7,2.7-4.91,4.91,1.47,1.47,4.91-4.91,5.65-5.64,4.17-4.18,4.91-4.9-1.48-1.48-4.9,4.91-2.7-2.7,4.9-4.91-1.47-1.47L127.23,22l-2.69-2.7,4.9-4.91,8.35,8.35,4.91,4.9,4.17,4.18L142,36.75l-2.7-2.7,4.91-4.9-1.47-1.48-4.91,4.91-4.91-4.91-1.47,1.48,4.9,4.9-2.7,2.7-4.9-4.9-1.48,1.47,4.91,4.91L128,42.4l9.82,9.82,9.81-9.82-4.17-4.17,4.91-4.91-.74-.74,4.91,4.91,4.18-4.17,4.17-4.17,4.91,4.9-8.35,8.35-4.91,4.91-9.81,9.81,4.17,4.18L142,66.2l1.47,1.48,4.91-4.91-1.13-1.14L151,65.47l-4.91,4.91-2.7-2.7L137.79,62l-8.35,8.35-4.91-4.91,2.7-2.7,4.91,4.91,1.48-1.48-4.91-4.9,2.7-2.7,4.9,4.9L137.79,62l-4.91-4.91L128.71,53,133.62,48l-1.48-1.47-4.91,4.91,1.31,1.3-5.48-5.47-4.91-4.91-1.47,1.47,4.91,4.91-8.34,8.34,8.34,8.35-4.91,4.91L108.34,62l-9.82,9.82-4.91,4.91,1.47,1.47L100,73.32l2.7,2.7-4.91,4.91-4.17-4.17-4.17,4.17L84.53,76l2.7-2.7,4.91,4.91,1.47-1.47L88.7,71.85,80.36,63.5l4.91-4.9-1.48-1.48L78.89,62l-5.65,5.65-2.7,2.7-4.91-4.91,2.7-2.7,4.91,4.91,1.47-1.48ZM59.25,71.85l4.91-4.91,4.91,4.91L73.24,76l-4.91,4.91-4.17-4.17L60,80.93,55.08,76Zm-5.64,5.64,4.91,4.91-2.7,2.7-4.91-4.91ZM48,80.19,43.05,85.1l-2.7-2.7,4.91-4.91ZM28.33,73.32l4.91,4.91,1.47-1.47L29.8,71.85l4.91-4.91,4.91,4.91L43.79,76l-4.91,4.91-4.17-4.17-4.17,4.17L25.63,76Zm-4.17,4.17,4.91,4.91-2.7,2.7-4.91-4.91ZM20,81.67l4.91,4.91L20,91.48,21.46,93l4.91-4.9,2.69,2.7-4.9,4.91L20,91.48l-4.9-4.9Zm-4.17-4.18,2.7,2.7L13.6,85.1l-2.7-2.7ZM10.9,90.75l2.7-2.7L18.51,93l-2.7,2.7Zm15.47,23.8-4.91-4.9L20,111.12,24.89,116,20,120.93l-4.9-4.9-4.18-4.18,4.91-4.9L20,111.12,24.16,107l4.91,4.9Zm4.17-4.17-4.91-4.91,2.7-2.7,4.91,4.91Zm4.17-4.17L29.8,101.3l4.91-4.91-1.47-1.47-4.91,4.91-2.7-2.7,4.91-4.91,4.17,4.17,4.91,4.91Zm6.38-6.38-4.91-4.91,2.7-2.7,4.91,4.91Zm4.17-4.17-4.91-4.91,2.7-2.7L48,93Zm-.73-9.08,4.91-4.91,4.9,4.91-4.9,4.9ZM50.91,93l4.91-4.91,2.7,2.7-4.91,4.91Zm4.17,4.17L60,92.22l2.7,2.7-4.91,4.91Zm4.17,4.17,4.91-4.91,4.17-4.17,4.91,4.91-2.7,2.7-4.91-4.91-1.47,1.47,4.91,4.91-4.91,4.91Zm6.38,6.38,4.91-4.91,2.7,2.7-4.91,4.91Zm4.18,12.52,2.7-2.7,4.9,4.91-2.7,2.7Zm-.74,20.37.74.73,4.9-4.9-1.47-1.48-4.91,4.91-2.7-2.7,4.91-4.91,6.87,6.88-4.9,4.9L74,145.48l4.91-4.91,4.9,4.91L85.27,144l-4.91-4.9,2.7-2.7,4.17-4.18,4.91,4.91,1.47-1.47-4.91-4.91-8.34-8.34,4.91-4.91,4.17,4.17,2.7,2.7-4.91,4.91,1.47,1.47,4.91-4.91L102,117.5l4.9,4.91-2.7,2.7-4.9-4.91-1.48,1.47,4.91,4.91,1.21-1.21-5.38,5.38-4.91,4.91,1.47,1.47,4.91-4.91,8.35,8.35,4.91,4.91,1.47-1.48-4.91-4.9,8.34-8.35-5.06-5.06.89.89,4.91-4.91,4.17,4.17,9.82-9.81,4.91-4.91-1.48-1.47-4.9,4.9-2.7-2.7,4.9-4.9-1.47-1.48-4.91,4.91-2.69-2.7,4.9-4.91,8.35,8.35L142,107l4.91,4.9-2.7,2.7-4.91-4.9-1.47,1.47L142.7,116l9.81,9.81,8.35-8.34,4.91,4.91-8.35,8.34-4.91,4.91-9.81,9.82-4.91,4.9,1.47,1.48,4.91-4.91,2.7,2.7,5.64,5.64,4.91,4.91,8.35,8.35-4.91,4.9-8.35-8.34L147.6,170l.74-.74-4.91-4.91,4.17-4.17L143.43,156l4.91-4.91-1.47-1.47L142,154.56l1.13,1.13-5.3-5.31-8.35,8.35-4.91-4.91,2.7-2.7,4.91,4.91,1.48-1.47-4.91-4.91,2.7-2.7,4.9,4.91,1.48-1.48-4.91-4.9-4.17-4.18,4.91-4.9-1.48-1.48-4.91,4.91.74.74-4.91-4.91-4.91-4.91-1.47,1.47,4.91,4.91-2.7,2.7-5.64,5.65,8.34,8.34-4.91,4.91L114,156l4.91-4.91-1.47-1.47-4.91,4.91-4.17-4.18-9.82,9.82-4.91,4.91,1.47,1.47,4.91-4.91,2.7,2.7-4.91,4.91,1.48,1.47,4.9-4.9,2.7,2.7-4.9,4.9-8.35-8.34-8.34,8.34-4.91-4.9,2.7-2.7,4.91,4.9,1.47-1.47-4.91-4.91,2.7-2.7,4.91,4.91,1.47-1.47L88.7,160.2l4.91-4.91,4.91,4.91,1.47-1.47-4.91-4.91,2.7-2.7,4.91,4.91,1.47-1.47-4.9-4.91,4.17-4.17-9.82-9.82-9.82,9.82L88,149.65l-4.91,4.91L84.53,156l4.91-4.91,2.7,2.7-4.91,4.91-4.17-4.17-2.7-2.7L85.27,147l-1.48-1.47-4.9,4.9-4.18,4.18-4.9-4.91-1.48,1.47L73.24,156l-2.7,2.7-4.91-4.91,2.7-2.7L74,145.48Zm77.8,30.18-2.7,2.7-4.91-4.9,2.7-2.7ZM99.26,179.1l2.7-2.7,4.9,4.91-2.7,2.7Zm3.43,6.38-2.7,2.7-4.91-4.91,2.7-2.7Zm.74-10.55,4.91-4.91,4.91,4.91-4.91,4.9Zm6.38-6.38,2.7-2.7,4.91,4.9-2.7,2.7Zm4.91,7.85,2.7,2.7L112.51,184l-2.7-2.7Zm4.17,4.17,2.7,2.7-4.91,4.91-2.7-2.7Zm0-11.29L114,164.37l2.7-2.7,4.91,4.91,1.47-1.47-4.91-4.91,4.91-4.91L128,160.2l-4.91,4.91,1.47,1.47,4.91-4.91,2.7,2.7-4.91,4.91-4.17-4.17Zm14.72-3.43,2.7,2.7-4.9,4.9-2.7-2.69ZM69.81,179.1l2.7-2.7,4.9,4.91-2.7,2.7Zm3.43,6.38-2.7,2.7-4.91-4.91,2.7-2.7Zm-3.43-14.73,4.9-4.9,2.7,2.7-4.9,4.9ZM74,174.93,78.89,170l4.9,4.91-4.9,4.9Zm11.29,1.47,2.7,2.7L83.06,184l-2.7-2.7Zm4.17,4.17,2.7,2.7-4.91,4.91-2.7-2.7Zm-31.66-18.9,4.91,4.91,1.47-1.47-4.91-4.91,4.91-4.91,4.91,4.91,4.17,4.17-4.91,4.91-4.17-4.17L60,169.28l-4.91-4.91Zm4.91,21.6-4.91,4.91-2.7-2.7L60,180.57Zm-9.08-17.42,4.91,4.91-2.7,2.69-4.91-4.9Zm-8.35,0,2.7,2.7-4.91,4.9-2.7-2.7Zm-21.1,0,4.91,4.9-2.7,2.7-4.91-4.9Zm4.9,13.25L24.16,184l-2.7-2.7,4.91-4.91ZM20,170l4.91,4.91L20,179.83l-4.9-4.9ZM10.9,179.1l2.7-2.7,4.91,4.91-2.7,2.7Zm15.47,23.81L21.46,198,20,199.47l4.91,4.91L20,209.29l-4.9-4.91-4.18-4.17,4.91-4.91L20,199.47l4.18-4.17,4.91,4.91Zm4.17-4.18-4.91-4.91,2.7-2.7L33.24,196Zm4.17-4.17-4.91-4.91,4.91-4.91-1.47-1.47-4.91,4.91-2.7-2.7,4.91-4.91,4.17,4.17,4.91,4.91Zm6.38-6.38-4.91-4.91,2.7-2.7,4.91,4.91ZM45.26,184l-4.91-4.91,2.7-2.7L48,181.31Zm-.73-9.08L49.44,170l4.9,4.91-4.9,4.9Zm6.38,6.38,4.91-4.91,2.7,2.7L53.61,184ZM60,198.73l-4.91-4.9,2.7-2.71L62.69,196Zm-.74-9.08,4.91-4.91,4.91,4.91-4.91,4.91ZM65.63,196l4.91-4.91,2.7,2.71-4.91,4.9Zm9.08,17.43-4.9-4.91,2.7-2.7,4.9,4.91ZM74,204.38l4.91-4.91L77.41,198l-4.9,4.91-2.7-2.7,4.9-4.91,4.18,4.17,4.9,4.91-4.9,4.91Zm9.08,9.08-2.7-2.7,4.91-4.91,2.7,2.7Zm2.21-10.55L80.36,198l2.7-2.7L88,200.21Zm4.17-4.18-4.91-4.91,2.7-2.7L92.14,196Zm-.74-9.08,4.91-4.91,4.91,4.91-4.91,4.91Zm9.08,9.08-2.7-2.7,4.91-4.91,2.7,2.7Zm1.48,1.48,4.9-4.91,2.7,2.7-4.9,4.91Zm9.08,9.08-4.91-4.91,4.91-4.91,4.17-4.17,4.91,4.91-2.7,2.7L109.81,198l-1.47,1.47,4.91,4.91Zm4.17,4.17-2.7-2.7,4.91-4.91,2.7,2.7Zm6.38-14.73L114,193.82l2.7-2.7,4.91,4.91Zm-.74-9.08,4.91-4.91,4.91,4.91-4.91,4.91Zm9.08,9.08-2.69-2.7,4.9-4.91,2.7,2.71Zm2.21-10.55-4.9-4.91,2.69-2.7,4.91,4.91Zm4.17-4.17-4.9-4.91,2.7-2.7,4.9,4.91Zm-.73-9.08,4.91-4.91,4.91,4.91-4.91,4.9ZM142,184l-2.7-2.7,4.91-4.91,2.7,2.7Zm1.47,1.47,4.91-4.91,2.7,2.7-4.91,4.91Zm4.17,4.17,4.91-4.91,4.91-4.91-.73.74,4.9,4.91-2.7,2.7-4.9-4.91-1.48,1.47,4.91,4.91-4.91,4.91ZM154,196l4.9-4.91,2.7,2.7-4.9,4.91Zm8.34,8.35,4.91-4.91L165.77,198l-4.91,4.91-2.7-2.7,4.91-4.91-.74-.74,4.91,4.91,4.91-4.91-.74.74,4.91,4.91-2.7,2.7L168.71,198l-1.47,1.47,4.91,4.91-4.91,4.91Zm-3.44,42.7-4.9-4.91,2.7-2.7,4.17-4.17,4.91,4.91,1.47-1.47-4.91-4.91L154,225.48l4.9-4.9,8.35,8.34,8.34-8.34,4.91,4.9-8.34,8.35-4.91,4.91,1.47,1.47,4.91-4.91,6.87,6.87-4.91,4.91-8.34-8.34Zm2,17.67,4.91,4.91,1.47-1.47-4.91-4.91,4.91-4.91,4.91,4.91-4.91,4.91,1.47,1.47,4.91-4.91,2.7,2.7-4.91,4.91.74.74-4.91-4.91-4.91,4.91.74-.74-4.91-4.91Zm-4.17,4.17,4.9,4.91-2.7,2.7-4.9-4.91Zm-4.18,4.18,4.91,4.9-4.91,4.91L147.6,278Zm-4.17-4.18,2.7,2.7-4.91,4.91-2.7-2.7Zm-2.21,10.56,4.91,4.91-2.7,2.7-4.91-4.91Zm-18.9-10.56,4.91,4.91-2.7,2.7-4.9-4.91Zm4.91,13.26-4.91,4.91-2.69-2.7,4.9-4.91ZM128,278l-4.91,4.91L118.15,278l4.91-4.9Zm-23.81,5.65,2.7,2.7-4.9,4.91-2.7-2.7Zm-6.38,3.44-2.7-2.7,4.91-4.91,2.7,2.7Zm10.56.73,4.91,4.91-4.91,4.91-4.91-4.91Zm5.64-14,4.91-4.91,2.7,2.7-4.91,4.91Zm7.61,10.56-2.7,2.69-4.91-4.9,2.7-2.7Zm-9.08-12-2.7-2.7,4.91-4.91,2.7,2.7Zm0,11.29,4.91,4.91-2.7,2.7-4.91-4.91Zm2.21,10.55,2.7,2.7-4.91,4.91-2.7-2.7Zm4.17,4.17,2.7,2.71-4.91,4.9-2.7-2.7ZM116.68,250l4.91,4.9-2.7,2.7-4.91-4.9Zm-4.17,4.17,4.91,4.91-2.7,2.7-4.91-4.91Zm-4.17,4.17,4.91,4.91-4.91,4.91-4.91-4.91ZM102,264.75l4.9,4.91-2.7,2.7-4.9-4.91Zm-4.18,4.17,4.91,4.91-2.7,2.7-4.91-4.91Zm.74,9.08-4.91,4.91L88.7,278l4.91-4.9ZM74,292.73l4.91-4.91-1.48-1.47-4.9,4.91-2.7-2.7,4.9-4.91,4.18,4.17,4.9,4.91-4.9,4.91Zm3.43,6.38-2.7,2.7-4.9-4.91,2.7-2.7Zm-9.08-12-2.7-2.69,4.91-4.91,2.7,2.7Zm12-.73,2.7-2.7L88,288.56l-2.7,2.7Zm4.17-4.17,2.7-2.7,4.91,4.91-2.7,2.7Zm7.61-10.56-4.91,4.91-2.7-2.7,4.91-4.91ZM88,267.45l-4.91,4.91-2.7-2.7,4.91-4.91Zm-4.18-4.17-4.9,4.91-4.18,4.17-4.9-4.91,2.7-2.7,4.9,4.91,1.48-1.47L74,263.28l4.91-4.91Zm-9.08-9.08,2.7,2.7-4.9,4.91-2.7-2.7Zm-6.38,14.72,4.91,4.91-2.7,2.7-4.91-4.91Zm-4.17,4.18,4.91,4.9-4.91,4.91L59.25,278ZM60,268.92l2.7,2.7-4.91,4.91-2.7-2.7Zm-2.21,10.56,4.91,4.91-2.7,2.7-4.91-4.91Zm-4.17,4.17,4.91,4.91-2.7,2.7-4.91-4.91ZM38.88,268.92l4.91,4.91-2.7,2.7-4.91-4.91Zm-5.64,2.7-4.91,4.91-2.7-2.7,4.91-4.91ZM10.9,267.45l4.18-4.17,4.9-4.91,4.91,4.91L20,268.19l1.48,1.47,4.91-4.91,2.7,2.7-4.91,4.91L20,268.19l-4.17,4.17Zm0,21.11,4.91-4.91,2.7,2.7-4.91,4.91ZM20,297.64l-4.9-4.91,4.9-4.91,4.18-4.17,4.9,4.91-2.69,2.7-4.91-4.91L20,287.82l4.91,4.91Zm4.18,4.17-2.7-2.7,4.91-4.91,2.7,2.7Zm6.38-14.73-4.91-4.9,2.7-2.7,4.91,4.9,1.47-1.47L29.8,278l4.91-4.9,4.91,4.9-4.91,4.91Zm8.34,0-2.7-2.7,4.91-4.91,2.7,2.7Zm1.47,1.47,4.91-4.91,2.7,2.7-4.91,4.91Zm4.18,4.17,4.91-4.91,4.9,4.91-4.9,4.91Zm6.38,6.38,4.91-4.91,2.7,2.7-4.91,4.91Zm8.34,8.34,4.91-4.9-1.47-1.47L57.78,306l-2.7-2.7L60,298.37l4.17,4.18,4.17-4.18,4.91,4.91-2.7,2.7-4.91-4.9-1.47,1.47,4.91,4.9-4.91,4.91Zm14,4.18-4.91,4.91-2.7-2.7,4.91-4.91Zm-2.7,23.8-4.91-4.9,2.7-2.7,4.91,4.9,1.47-1.47-4.9-4.91-1,1L74,322.18l-5.39-5.38L69.81,318l4.9-4.91,4.18,4.17,4.9,4.91,1.48-1.47-4.91-4.91,2.7-2.7,5.64-5.65,4.91-4.9-1.47-1.47L87.23,306l-2.7-2.7,4.91-4.91L88,296.9l-4.91,4.91-2.7-2.7,4.91-4.91,4.17,4.17,4.17,4.18L102,294.2l4.9,4.91-2.7,2.7-4.9-4.91-1.48,1.47,4.91,4.91L100,306l-4.91-4.9-1.47,1.47,4.91,4.9,9.82,9.82,4.91,4.91,1.47-1.47-4.91-4.91,2.7-2.7,5.64-5.64,4.91-4.91,9.82-9.82,4.91-4.91-1.48-1.47-4.9,4.91-2.7-2.7,4.9-4.91,4.18,4.17,4.17-4.17,4.91,4.91-2.7,2.7-4.91-4.91-1.47,1.47,4.91,4.91,4.17,4.17L142,301.81l-2.7-2.7,4.91-4.91-1.47-1.47-4.91,4.91-4.91-4.91-1.47,1.47,4.9,4.91-2.7,2.7-4.9-4.91-1.48,1.47,4.91,4.91-2.7,2.7-4.9-4.9-1.48,1.47,4.91,4.9,9.82,9.82,9.81-9.82,4.91-4.9L151,301.08l-4.91,4.9-2.7-2.7,4.91-4.91-.74-.73,4.91,4.91,8.35-8.35,4.91,4.91-8.35,8.35-4.91,4.9-9.81,9.82,9.81,9.82,4.91,4.91,8.35,8.34-4.91,4.91L156.69,346l-4.18-4.18-9.81,9.82-4.91,4.91,1.47,1.47,4.91-4.91,2.7,2.7L142,360.71l.63.63-4.8-4.8-8.35,8.34-4.9-4.9,2.69-2.7,4.91,4.9,1.47-1.47-4.9-4.91,2.7-2.7,4.9,4.91,1.48-1.47-4.91-4.91-9.82-9.82-4.91-4.9-1.47,1.47,4.91,4.91-2.7,2.7L114,341.08l-1.47,1.47,4.91,4.91-2.7,2.7-4.91-4.91,8.34-8.34,4.91-4.91,9.82-9.82,4.91-4.91-1.48-1.47-4.9,4.91-2.7-2.7,4.91-4.91-1.48-1.47-4.91,4.91-4.17-4.18-4.91-4.9-1.47,1.47,4.91,4.91-8.34,8.34,8.34,8.35-4.91,4.9L113.25,332l.73.73,4.91-4.9-1.47-1.48-4.91,4.91-2.7-2.7,4.91-4.91-1.47-1.47-4.91,4.91L100,335.43l-4.91-4.9,8.35-8.35L99.26,318l4.9-4.91-1.47-1.47-4.91,4.91-2.7-2.7,4.91-4.91-1.47-1.48-4.91,4.91-4.91-4.91-1.47,1.48,4.91,4.91-2.7,2.7-4.91-4.91-1.47,1.47L88,318l-4.18,4.17L93.61,332l4.91,4.91,8.34,8.34-4.9,4.91-2.7-2.7-5.65-5.65-4.91-4.9L93.61,332l-1.47-1.47-4.91,4.9-4.17-4.17-2.7-2.7,4.91-4.91-1.48-1.47-4.9,4.91L74,322.18l-1.47,1.47,4.9,4.91ZM99.26,355.8l2.7-2.7,4.9,4.91,1.48-1.47-4.91-4.91,4.91-4.91,4.91,4.91-4.91,4.91,1.47,1.47,4.91-4.91,2.7,2.7-4.91,4.91-4.17-4.17-4.18,4.17Zm3.43,6.39-2.7,2.69L95.08,360l2.7-2.7Zm16.2-4.91,2.7,2.7-4.91,4.9-2.7-2.7ZM112.51,372l4.91,4.91-2.7,2.7-4.91-4.91Zm1.47-1.47,2.7-2.7,4.91,4.91-2.7,2.7Zm4.17-4.17,4.91-4.91,4.91,4.91-4.91,4.91Zm11.29,1.47,2.7,2.7-4.91,4.91-2.69-2.7Zm4.17,4.17,2.7,2.7-4.9,4.91-2.7-2.7Zm-58.9,0,2.7,2.7-4.9,4.91-2.7-2.7Zm-6.38,3.44-2.7-2.7,4.91-4.91,2.7,2.7Zm6.38-14.73-4.9-4.91,2.7-2.7,4.9,4.91,1.48-1.47L74,351.63l4.91-4.91,4.9,4.91-4.9,4.91Zm5.65-15.46,2.7-2.7L88,347.46l-2.7,2.7Zm4.91,7.85,2.7,2.7-4.91,4.91-2.7-2.7Zm4.17,4.18,2.7,2.7-4.91,4.9-2.7-2.69Zm0-11.29-4.91-4.91,2.7-2.7,4.91,4.91Zm-14.73-3.44,2.7,2.7-4.9,4.91-2.7-2.7Zm-6.38,14.73,4.91,4.9-2.7,2.7L65.63,360Zm-4.17,4.17,4.91,4.91-4.91,4.91-4.91-4.91ZM60,357.28l2.7,2.7-4.91,4.9-2.7-2.7Zm-2.21,10.55,4.91,4.91-2.7,2.7-4.91-4.91ZM53.61,372l4.91,4.91-2.7,2.7-4.91-4.91ZM30.54,357.28l2.7,2.7-4.91,4.9-2.7-2.69ZM10.9,355.8l2.7-2.7L18.51,358,20,356.54l-4.9-4.91,4.9-4.91,4.91,4.91L20,356.54,21.46,358l4.91-4.91,2.7,2.7-4.91,4.91L20,356.54l-4.17,4.17Zm18.16,21.11-2.69,2.7-4.91-4.91,2.7-2.7Zm-18.16,0L15.81,372l2.7,2.7-4.91,4.91ZM20,386l-4.9-4.91,4.9-4.91,4.91,4.91Zm4.18,4.17-2.7-2.7,4.91-4.91,2.7,2.7Zm6.38-14.72-4.91-4.91,2.7-2.7,4.91,4.91,1.47-1.47-4.91-4.91,4.91-4.91,4.91,4.91-4.91,4.91Zm8.34,0-2.7-2.7,4.91-4.91,2.7,2.7ZM45.26,372l2.7,2.7-4.91,4.91-2.7-2.7Zm0,18.16-4.91-4.91,2.7-2.7L48,387.46Zm-.73-9.08,4.91-4.91,4.9,4.91L49.44,386Zm9.08,9.08-2.7-2.7,4.91-4.91,2.7,2.7Zm14.72,14.73-2.7-2.7,4.91-4.91,2.7,2.7Zm.74-9.08-4.91,4.91-4.91-4.91,4.91-4.91-1.47-1.47-4.91,4.9-2.7-2.69L60,386.73l4.17,4.17,4.17-4.17,4.91,4.91Zm5.64-5.65-4.9-4.91,2.7-2.7,4.9,4.91ZM78.89,386,74,381.08l4.91-4.91,4.9,4.91Zm6.38-6.38-4.91-4.91,2.7-2.7L88,376.91Zm4.17-4.17-4.91-4.91,2.7-2.7,4.91,4.91Zm-.74-9.08,4.91-4.91,4.91,4.91-4.91,4.91Zm6.38,6.38,4.91-4.91,2.7,2.7-4.91,4.91Zm4.18,4.17,4.9-4.91,2.7,2.7-4.9,4.91Zm4.17,4.17,4.91-4.91,4.91,4.91L108.34,386Zm9.08,9.08-2.7-2.7,4.91-4.91,2.7,2.7Zm16.93,4.17-4.91-4.9-1.47,1.47,4.91,4.91-4.91,4.91-4.91-4.91,4.91-4.91-1.47-1.47-4.91,4.9-2.7-2.69,4.91-4.91,4.17,4.17,4.17-4.17,4.91,4.91Zm4.17-4.17-4.9-4.91,2.7-2.7,4.9,4.91Zm-.73-9.08,4.91-4.91,4.91,4.91L137.79,386Zm9.08,9.08-2.7-2.7,4.91-4.91,2.7,2.7Zm5.64,5.65-4.17-4.17,4.91-4.91,2.7,2.7-4.91,4.9,1.47,1.48,4.91-4.91,8.35-8.35,4.91,4.91-8.35,8.35-4.91,4.91Zm11.29,28-4.9-4.91,2.7-2.7,4.9,4.91,1.48-1.48-4.91-4.9-.74.73,3.44-3.43,4.91,4.9Zm3.44-13.26L154,402.19l4.9-4.91,8.35,8.34,4.17-4.17,4.17-4.17,4.91,4.91L176.66,406l1.13-1.13L172.88,400l-1.47,1.47,4.91,4.91-2.7,2.7-4.91-4.91-1.47,1.47,4.91,4.91,8.34,8.35-4.91,4.91-8.34-8.35Zm11.29,28-4.91-4.91,6.87-6.87,4.91,4.91Zm16.69,0-2.7-2.7,4.91-4.91,2.7,2.7Zm-3.44-13.25,4.91,4.91-.74-.74-4.9,4.91.73.74-3.43-3.44,4.9-4.91-1.47-1.47L182,430.17l-4.91-4.91,4.91-4.91,4.91,4.91,1.47-1.47-4.9-4.91,2.7-2.7,4.9,4.91,1.48-1.48-4.91-4.9,2.7-2.7,4.91,4.9Zm4.91-14.73,4.91-4.91,4.17-4.17,4.91,4.91-2.7,2.7-4.91-4.91-1.47,1.47,4.91,4.91,4.17,4.18-4.91,4.9-2.7-2.7,4.91-4.9-1.47-1.48-4.91,4.91Zm11.29,28-4.91-4.91,2.7-2.7,4.91,4.91Zm4.17-4.17-4.91-4.91,2.7-2.7,4.91,4.91Zm4.17-4.17-4.9-4.91-4.18-4.17,4.91-4.91,2.7,2.7L205,423.79l1.48,1.47,4.9-4.91,4.91,4.91Zm9.82-19.64L219.76,412l4.91,4.9-6.87,6.88-4.91-4.91,8.34-8.35,4.91-4.91,4.91,4.91-4.91,4.91Zm28,28-8.35-8.34-4.9-4.91-1.48,1.47,4.91,4.91-2.7,2.7-4.91-4.91-1.47,1.47,4.91,4.91-2.7,2.7-4.91-4.91,4.17-4.17,4.18-4.17-8.35-8.35,4.91-4.9,2.7,2.7-4.91,4.9,1.47,1.48,4.91-4.91-1.09-1.09,5.27,5.26,4.9,4.91,8.35,8.34Zm-2-14.72-4.91-4.91,2.7-2.7,4.91,4.91,1.47-1.48-4.91-4.9-.63.62,4.8-4.8-8.34-8.34,4.91-4.91,8.34,8.34,8.35-8.34,4.9,4.91-2.7,2.7L261.23,400l-1.47,1.47,4.91,4.91,1.21-1.21-5.38,5.38,4.95,5-.78-.78-4.91,4.9,1.47,1.48,4.91-4.91,2.7,2.7-4.9,4.91-8.35-8.35Zm31.41,14.72-2.7-2.7,4.91-4.91,2.7,2.7Zm.74-17.42-2.7,2.7-4.91-4.91-1.48,1.47,4.91,4.91-4.9,4.91,1.47,1.47,4.91-4.91,2.7,2.7-4.91,4.91-4.17-4.17L262,438.51l-4.91-4.91,8.35-8.34,4.9-4.91,8.35-8.34,4.91,4.9Zm9.81-1.48-2.7-2.7,4.91-4.9L290,410.53,285,415.44l-4.91-4.91,4.91-4.91,4.17-4.17,4.91,4.91.74-.74L290,410.53l4.91,4.91-.74-.73Zm1.48,1.48,4.9-4.91,2.7,2.7-4.9,4.91Zm18.16,0,.73-.74-4.9,4.91-4.91,4.91-4.91-4.91,4.91-4.91,4.91,4.91,1.47-1.47-4.91-4.91,2.7-2.7Zm-4.91-16.2-2.7-2.7,4.91-4.91,2.7,2.7Zm4.91-13.25-2.7,2.69-4.91-4.9,2.7-2.7Zm-4.91-16.2-2.7-2.7,4.91-4.91,2.7,2.7Zm4.91-13.26-2.7,2.7-4.91-4.9,2.7-2.7ZM303.94,346l-2.7-2.7,4.91-4.91,2.7,2.7Zm4.91-13.26-2.7,2.7-4.91-4.9,2.7-2.7Zm-4.91-16.19-2.7-2.7,4.91-4.91,2.7,2.7Zm4.91-13.26-2.7,2.7-4.91-4.9,2.7-2.71Zm-4.91-16.19-2.7-2.7,4.91-4.91,2.7,2.7Zm4.91-13.26-2.7,2.7-4.91-4.91,2.7-2.7Zm-4.91-16.2-2.7-2.7,4.91-4.9,2.7,2.7Zm4.91-13.25-2.7,2.7-4.91-4.91,2.7-2.7Zm-4.91-16.2-2.7-2.7,4.91-4.9,2.7,2.7Zm4.91-13.25-2.7,2.7-4.91-4.91,2.7-2.7Zm-4.91-16.2-2.7-2.7,4.91-4.91,2.7,2.71Zm4.91-13.25-2.7,2.7-4.91-4.91,2.7-2.7Zm-4.91-16.2-2.7-2.7,4.91-4.91,2.7,2.7ZM308.85,156l-2.7,2.7-4.91-4.91,2.7-2.7Zm-2.7-23.81,2.7,2.7-4.91,4.91-2.7-2.7Zm-1.47-1.47-4.91,4.91-4.91-4.91-1.47,1.47,4.9,4.91-2.7,2.7-4.9-4.91-.74.74,4.91-4.91,4.91-4.91Zm-4.91-24.54-4.91-4.91,4.91-4.91,4.91,4.91Zm4.17,4.17-2.7-2.7,4.91-4.91,2.7,2.7Zm4.91-13.25-2.7,2.7-4.91-4.91,2.7-2.7Zm-4.91-16.2-2.7-2.7,4.91-4.91,2.7,2.7Zm4.91-13.25-2.7,2.7-4.91-4.91,2.7-2.7Zm0-21.11-4.91,4.91-2.7-2.7,4.91-4.91Zm-4.17-4.17-4.91,4.91-4.91-4.91,4.91-4.91ZM303.94,22l-2.7-2.7,4.91-4.91,2.7,2.7Zm6.4,119.75L308.11,144l1.47,1.48.76-.76Zm0-22v-3l-.76-.75-1.47,1.47Zm0,198.75-2.23,2.23,1.47,1.47.76-.76Zm0-88.35-2.23,2.23,1.47,1.47.76-.76ZM10,216v2.95l.17.16,1.47-1.47Zm300.34-66.81v-3l-.76-.75L308.11,147ZM15.81,254.2l-1.47-1.47L10,257.07v1.13l.9.91ZM310.34,31.37V28.43l-.76-.76-1.47,1.48Zm0,29.46V57.88l-.76-.76-1.47,1.48Zm0-7.41-2.23,2.23,1.47,1.47.76-.75Zm0,184.11v-2.95l-.76-.75-1.47,1.47ZM10,398.92l1.64-1.64-1.47-1.47L10,396ZM10,340l1.64-1.64-1.47-1.47-.17.16Zm0-29.45,1.64-1.64-1.47-1.48-.17.17Zm8.51,93.58-4.91,4.91,1.48,1.47,4.9-4.91ZM10,238.9l5.08-5.07L10,228.75ZM310.34,436.28l-2.23,2.23,1.47,1.47.76-.75Zm0-29.45-2.23,2.23,1.47,1.47.76-.75ZM15.81,401.45,14.34,400,10,404.32v12.43l4.34,4.34,1.47-1.48-4.91-4.9,4.18-4.18-4.18-4.17Zm294.53,12.78v-2.94l-.76-.76L308.11,412Zm0-88.35v-2.94l-.76-.76-1.47,1.47ZM262,412l-1.47-1.48-4.91,4.91,1.47,1.47ZM154,254.93l4.9-4.9-1.47-1.48-4.91,4.91Zm4.17,4.18,4.91-4.91-1.48-1.47-4.9,4.9ZM276,414.71l-1.47,1.47,4.91,4.91,1.47-1.48ZM146.13,247.08l1.47,1.47,4.91-4.9L151,242.17Zm.74-9.08L142,242.91l1.47,1.47,4.91-4.91Zm-2.7-2.7-1.47-1.47-4.91,4.91,1.47,1.47ZM151,212.72l-4.91,4.91,1.47,1.47,4.91-4.9Zm12,.74-4.91-4.91L156.69,210l4.9,4.91Zm-4.18,4.17-4.9-4.91-1.48,1.48,4.91,4.9Zm-10.55,10.55-4.91-4.9L142,224.75l4.91,4.91Zm-12-.73-4.9,4.91,1.47,1.47,4.91-4.91Zm14.73-2,1.47-1.47-4.91-4.91-1.47,1.48Zm7.85,168.85-4.9-4.9-1.48,1.47,4.91,4.91Zm-52-154.12,1.48-1.47-4.91-4.91L102,235.3Zm56.21,150-4.91-4.91-1.47,1.48,4.9,4.91Zm-85.66-150,1.48-1.47L74,233.83l-1.47,1.47ZM161.59,400l-4.9,4.91,1.47,1.47,4.91-4.91Zm14.73,14.73-4.91,4.9,1.47,1.48,4.91-4.91ZM129.44,247.08l-4.9-4.91-1.48,1.48,4.91,4.9Zm42,183.82,4.91,4.91,1.47-1.47-4.91-4.91Zm-5.64-26.75-4.91,4.91,1.47,1.47,4.91-4.91Zm7.85,7.86-1.47-1.48-4.91,4.91,1.47,1.47ZM144.17,232.36l-4.91-4.91-1.47,1.47,4.91,4.91ZM262,409.06l-4.91-4.91-1.47,1.47,4.91,4.91ZM65.63,254.93l4.91-4.9-1.47-1.48-4.91,4.91ZM254.12,404.15l-4.91,4.91,1.47,1.47,4.91-4.91ZM62.69,225.48,64.16,224l-4.91-4.91-1.47,1.48Zm-9.08-.73,4.91,4.91L60,228.18l-4.91-4.9Zm16.93-7.12-4.91-4.91-1.47,1.48,4.91,4.9ZM259.76,430.9l4.91,4.91,1.47-1.47-4.91-4.91ZM33.24,212.72l-4.91,4.91,1.47,1.47,4.91-4.9Zm230.7,214,4.9,4.91,1.48-1.47-4.91-4.91ZM43.79,223.28l-4.91,4.9,1.47,1.48,4.91-4.91Zm63.07,4.17-4.9,4.91,1.47,1.47,4.91-4.91Zm25.28-4.17-4.91,4.9,1.48,1.48,4.91-4.91Zm-10.55-10.56-4.91,4.91,1.47,1.47,4.91-4.9ZM220.5,421.09l1.47-1.48-4.91-4.9-1.47,1.47Zm18.89-2.21-4.91,4.91,1.48,1.47,4.91-4.91ZM129.44,220.58,128,219.1,123.06,224l1.48,1.47Zm-54.73,4.17-1.47-1.47-4.91,4.9,1.48,1.48Zm172.54,202-1.48-1.47-4.91,4.91,1.48,1.47ZM250,400,245,404.89l1.47,1.47,4.91-4.91Zm-.74,12,4.91,4.9,1.47-1.47-4.91-4.91Zm-2.7,23.8,4.91-4.91L250,429.43,245,434.34ZM102,412l4.9,4.9,1.48-1.47-4.91-4.91ZM89.44,139.83l-4.91-4.91-1.47,1.48L88,141.3Zm32.15-15.46-4.91,4.91,1.47,1.47,4.91-4.91Zm41.48.74-4.91-4.91-1.47,1.47,4.9,4.91Zm94,115.1L262,235.3l-1.47-1.47-4.91,4.91Zm-174-115.1,1.47,1.47,4.91-4.91L88,120.2ZM100,129.28l-4.91-4.91-1.47,1.47,4.91,4.91Zm150,94-4.91,4.9,1.47,1.48,4.91-4.91Zm-2.7,82.7-4.91-4.9-1.48,1.47,4.91,4.91ZM146.13,158.73l1.47,1.47,4.91-4.91L151,153.82Zm0,2.94,4.91,4.91,1.47-1.47-4.91-4.91Zm12.76-32.39-4.9-4.91-1.48,1.47,4.91,4.91Zm-.73,41.47,4.91-4.9-1.48-1.48-4.9,4.91ZM154,166.58l4.9-4.91-1.47-1.47-4.91,4.91Zm88.35,88.35,4.91-4.9-1.48-1.48-4.91,4.91Zm-7.86-34.35,4.91,4.9,1.48-1.47L236,219.1Zm-4.17,4.17,4.91,4.91,1.47-1.48-4.91-4.9ZM65.63,78.23l4.91-4.91-1.47-1.47-4.91,4.91ZM246.51,259.11l4.91-4.91L250,252.73l-4.91,4.9ZM83.06,66.2l1.47,1.48,4.91-4.91,2.7,2.7-4.91,4.91,1.47,1.47,4.91-4.91,4.91,4.91L100,70.38l-4.91-4.91,2.7-2.7,4.91,4.91,1.47-1.48-4.9-4.9,4.17-4.18-9.82-9.81-9.82,9.81L88,61.3Zm-5.65-2.7L78.89,62,74,57.12,72.51,58.6ZM242.34,212.72l-1.48,1.48,4.91,4.9,1.48-1.47ZM235.22,238l-4.91,4.91,1.47,1.47,4.91-4.91Zm16.2,63.81-4.91-4.91L245,298.37l4.91,4.91ZM13.6,114.55,15.08,116l4.9-4.91-1.47-1.47ZM41.09,73.32l-1.47-1.47-4.91,4.91,1.47,1.47Zm21.6,4.91,1.47-1.47-4.91-4.91-1.47,1.47ZM245,210l4.91,4.91,1.47-1.47-4.91-4.91ZM112.51,136.4l4.91,4.9,1.47-1.47L114,134.92Zm122-4.18,4.91,4.91,1.48-1.47L236,130.75Zm7.86-7.85-1.48,1.47,4.91,4.91,1.48-1.47ZM109.81,151.86l4.91-4.91-1.47-1.47-4.91,4.9Zm13.25-16.2,1.48,1.47,4.9-4.91,8.35,8.35,9.81-9.82-4.17-4.17,4.91-4.91-1.47-1.47L142,125.11l-2.7-2.7,4.91-4.91L142.7,116l-4.91,4.9-4.91-4.9-1.47,1.47,4.9,4.91-2.7,2.7-4.9-4.91-1.48,1.47,4.91,4.91-2.7,2.7-4.9-4.91-1.48,1.47,4.91,4.91Zm128.36-10.55-4.91-4.91L245,121.67l4.91,4.91Zm-174,26.75,1.48-1.48L74,145.48,72.51,147Zm68.72-22.58,1.47,1.47,4.91-4.91L151,124.37ZM251.42,342.55,250,341.08,245,346l1.47,1.47Zm-4.17-4.17-1.48-1.47-4.91,4.9,1.48,1.48ZM102,144l1.47,1.48,4.91-4.91-1.48-1.47ZM230.31,313.1l4.91,4.91,1.47-1.47-4.91-4.91ZM102.69,134.92l-4.91,4.91,1.48,1.47,4.9-4.9ZM102,147l4.9,4.91,1.48-1.48-4.91-4.9Zm34.35-7.85-4.9,4.9,1.47,1.48,4.91-4.91Zm132.53,162-4.9,4.9,1.47,1.48,4.91-4.91Zm-4.17-4.18-4.91,4.91,1.47,1.47,4.91-4.91ZM276,318l4.91-4.91-1.47-1.47-4.91,4.91ZM139.26,139.1l-1.47,1.47,4.91,4.91,1.47-1.48ZM271.79,313.84l4.91-4.91-1.48-1.48-4.91,4.91Zm-12-100.38,1.47,1.47,4.91-4.91-1.47-1.47Zm12,12,4.91-4.9-1.48-1.48L270.31,224Zm4.17,4.18,4.91-4.91-1.47-1.47-4.91,4.9ZM142,136.4l4.91,4.9,1.47-1.47-4.91-4.91Zm122,81.23,1.47,1.47,4.91-4.9-1.48-1.48ZM146.13,132.22l4.91,4.91,1.47-1.47-4.91-4.91Zm29.45,206.16,4.91,4.91,1.47-1.48-4.91-4.9Zm58.9-294.51,4.91,4.91,1.48-1.47L236,42.4Zm-61.6,171.06,4.91-4.91-1.47-1.47-4.91,4.91Zm2.7-85.65,1.47,1.47,4.91-4.91-1.47-1.47ZM276,53,280.87,48l-1.47-1.47-4.91,4.91ZM173.62,379.61l-4.91-4.91-1.47,1.47,4.91,4.91Zm-.74-253,4.91-4.91-1.47-1.47-4.91,4.91Zm113.63,25.28,4.91-4.91L290,145.48l-4.91,4.9ZM261.23,38.23l4.91-4.91-1.47-1.47-4.91,4.9ZM262,320.71l-4.91-4.91-1.47,1.47,4.91,4.91ZM247.25,40.93,242.34,36l-1.48,1.47,4.91,4.91Zm4.17-4.18-4.91-4.9L245,33.32,250,38.23Zm20.37,12,4.91-4.91-1.48-1.47-4.91,4.91Zm-7.85-7.85,1.47,1.47,4.91-4.91L268.84,36Zm-80.5,96.2,4.9-4.91-1.47-1.47L182,135.66ZM163.07,77.49,161.59,76l-4.9,4.91,1.47,1.47ZM279.4,134.92l-4.91,4.91L276,141.3l4.91-4.9ZM154,78.23l4.9-4.91-1.47-1.47-4.91,4.91Zm110.68,42-4.91,4.91,1.47,1.47,4.91-4.91Zm4.17,4.17-4.9,4.91,1.47,1.47,4.91-4.91ZM187.61,229.66l4.91-4.91L191,223.28l-4.9,4.9Zm51.78,100.87-4.91,4.9,1.48,1.48,4.91-4.91Zm-63.81-112.9,1.47,1.47,4.91-4.9-1.47-1.48Zm7.86,7.85,4.9-4.9-1.47-1.48L182,224Zm4.9,110-4.9-4.9L182,332l4.91,4.91Zm4.18-4.17-4.91-4.91-1.47,1.48,4.9,4.9Zm-21.11,11.29,4.91,4.91,1.47-1.47-4.91-4.91ZM102,55.65l1.47,1.47,4.91-4.9-1.48-1.48Zm29.45,0,1.47,1.47,4.91-4.9-1.48-1.48Zm7.85,7.85,4.91-4.9-1.47-1.48L137.79,62Zm9.08-12-4.91-4.91L142,48,146.87,53Zm-4.17,4.17-4.91-4.91-1.47,1.48,4.91,4.9Zm14.72-14.72L154,36l-1.48,1.47,4.91,4.91ZM151,48.78l1.47-1.47L147.6,42.4l-1.47,1.47ZM109.81,63.5l4.91-4.9-1.47-1.48L108.34,62ZM102,58.6l4.9,4.9L108.34,62l-4.91-4.91Zm.73-12-4.91,4.91L99.26,53l4.9-4.91Zm21.85,2.21,4.9-4.91L128,42.4l-4.91,4.91Zm38.53-12-4.91-4.9-1.47,1.47,4.9,4.91ZM114,46.57,112.51,48,117.42,53l1.47-1.47Zm0,21.11,4.91-4.91-1.47-1.47-4.91,4.9ZM45.26,313.1l-1.47-1.47-4.91,4.91L40.35,318Zm202-151.43-1.48-1.47-4.91,4.91,1.48,1.47ZM74.71,48l-1.47-1.47-4.91,4.91L69.81,53ZM231.78,156l4.91-4.91-1.47-1.47-4.91,4.91ZM72.51,26.2,74,27.67l4.91-4.9-1.48-1.48Zm30.18,12,1.47-1.48-4.9-4.9-1.48,1.47Zm-.73-12,1.47,1.47,4.91-4.9-1.48-1.48ZM151,36l-4.91,4.91,1.47,1.47,4.91-4.91Zm-21.6,4.91L124.54,36l-1.48,1.47L128,42.4ZM259.76,254.2l4.91,4.91,1.47-1.48-4.91-4.9Zm4.18-4.17,4.9,4.9,1.48-1.47-4.91-4.91Zm7.85-7.86-1.48,1.48,4.91,4.9,1.48-1.47Zm2.7-2.7,4.91,4.91,1.47-1.47L276,238ZM250,164.37,245,169.28l1.47,1.47,4.91-4.9ZM139.26,328.56l4.91-4.91-1.47-1.47-4.91,4.91Zm4.17,4.17,4.91-4.9-1.47-1.48L142,331.26Zm2.7,94,4.91,4.91,1.47-1.47-4.91-4.91Zm0-2.94,1.47,1.47,4.91-4.91L151,418.88Zm-9.82-6.88,1.48-1.47-4.91-4.91L131.41,412Zm2.95,0,4.91-4.9-1.47-1.48-4.91,4.91Zm4.17,4.18,4.91-4.91-1.47-1.47-4.91,4.9ZM118.89,316.54,114,311.63l-1.47,1.47,4.91,4.91ZM154,431.64l4.9-4.91-1.47-1.47-4.91,4.91Zm-44.18-27.49-1.47,1.47,4.91,4.91,1.47-1.47Zm2.7,15.46,1.47,1.48,4.91-4.91-1.47-1.47Zm45.65,16.2,4.91-4.91-1.48-1.47-4.9,4.91Zm-33.62-122,4.9-4.91L128,307.45l-4.91,4.91ZM139.26,433.6l2.7-2.7,4.91,4.91,1.47-1.47-4.91-4.91,4.17-4.17-9.81-9.82-8.35,8.35-4.9-4.91-1.48,1.47,4.91,4.91,4.17,4.17-4.91,4.91,1.48,1.47,4.9-4.91,2.7,2.7-4.9,4.91,1.47,1.47,4.91-4.9,4.91,4.9,1.47-1.47ZM154,343.29l4.9-4.91-1.47-1.47-4.91,4.9Zm-24.55-7.86-4.9-4.9L123.06,332l4.91,4.91Zm4.18-4.17-4.91-4.91-1.48,1.48,4.91,4.9Zm2.69-2.7,1.48-1.47-4.91-4.91-1.47,1.47Zm7.86-7.85-4.91-4.91-1.47,1.47,4.91,4.91Zm18.9,21.84-1.48-1.47-4.9,4.91,1.47,1.47ZM97.78,327.83l4.91,4.9,1.47-1.47-4.9-4.91Zm31.66,98.9L128,425.26l-4.91,4.91,1.48,1.47ZM21.46,21.29,20,22.77l4.91,4.9,1.48-1.47ZM146.13,335.43l1.47,1.48,4.91-4.91L151,330.53Zm0,2.95,4.91,4.91,1.47-1.48-4.91-4.9Zm-6.87,6.87,2.7-2.7,4.91,4.91,1.47-1.47-4.91-4.91,4.17-4.17-9.81-9.82L128,336.91l-4.91,4.9,1.48,1.48,4.9-4.91,2.7,2.7L127.23,346l1.48,1.47,4.9-4.91,2.7,2.7-4.9,4.91,1.47,1.47,4.91-4.91,4.91,4.91,1.47-1.47ZM20,317.27l-1.47-1.47-4.91,4.91L10.9,318l4.91-4.91-1.47-1.47L10,316v11.29l5.08-5.08Zm30.93,99.64,4.91-4.9-1.48-1.48-4.9,4.91ZM30.54,434.34l-4.91-4.91-1.47,1.47,4.91,4.91Zm9.81-19.63-1.47,1.47,4.91,4.91,1.47-1.48Zm-4.17,16.93,4.91-4.91-1.47-1.47-4.91,4.91Zm-7.85-4.91,4.91,4.91,1.47-1.47-4.91-4.91Zm-2-14.72-1.48-1.48L20,415.44l1.48,1.47Zm28.71,9.08L60,416.18l-1.47-1.47-4.91,4.9Zm93.26-104.55-4.91-4.91L142,313.1l4.91,4.91Zm-41.48,87.61-4.9,4.91,1.47,1.47,4.91-4.91ZM30.54,316.54l-4.91-4.91-1.47,1.47L29.07,318Zm2.7,85.65-3.55,3.55.85-.85L25.63,400l-1.47,1.47,4.91,4.91-4.18,4.17L30,415.6l-.9-.89-4.9,4.9,1.47,1.48,4.91-4.91,2.7,2.7-4.91,4.91,1.47,1.47,4.91-4.91,9.82-9.82-9.82-9.81-4.91-4.91-1.47,1.47Zm24.54,21.6,1.47,1.47,4.91-4.91-1.47-1.47Zm7.85,7.85,4.91-4.91-1.47-1.47-4.91,4.91ZM20,327.09l1.48,1.47,4.91-4.91,4.17,4.18,2.7,2.7-4.91,4.9,1.47,1.48L34.71,332l9.82-9.82-5.65-5.64-2.7-2.7,4.91-4.91-1.47-1.48-4.91,4.91-4.91-4.9-1.47,1.47,4.91,4.91-6.87,6.87-4.91-4.91L20,317.27l4.91,4.91Zm75.1,16.2,4.91-4.91-1.47-1.47-4.91,4.9ZM77.41,404.15l-4.9,4.91L74,410.53l4.91-4.91Zm25.28-63.07L97.78,346l1.48,1.47,4.9-4.91Zm-4.91,75.1,4.91,4.91,1.47-1.48-4.9-4.9ZM102,320.71l1.47,1.47,4.91-4.91-1.48-1.47Zm0,2.94,4.9,4.91,1.48-1.47-4.91-4.91ZM26.37,438.51l-4.91-4.91,2.7-2.7,5.64-5.64L20,415.44l-4.9-4.91L13.6,412l4.91,4.9-6.87,6.88L10,422.15v2.94l.17.17-.17.17v2.94l1.64-1.64,2.7,2.7L10,433.77v1.14l.9.9,4.91-4.91,2.7,2.7-4.91,4.91-3.6-3.6v5.48a3.44,3.44,0,0,0,1.71,3l1.89-1.89L16,443.84h2.94L15.08,440l4.9-4.9,4.91,4.9L21,443.84H24l2.39-2.38,2.38,2.38H40.67l2.38-2.38,2.39,2.38h2.94L44.53,440l-9.82-9.81Zm0-29.45-4.91-4.91L20,405.62l4.91,4.91ZM50.91,433.6l2.7-2.7,4.91,4.91L60,434.34l-4.91-4.91,4.17-4.17-9.81-9.82-4.91-4.91L43.05,412l4.91,4.9-4.17,4.18-2.7,2.7-4.91-4.91-1.47,1.47,4.91,4.91,4.17,4.17-4.91,4.91,1.47,1.47,4.91-4.91,2.7,2.7-4.91,4.91L44.53,440l4.91-4.9,4.9,4.9,1.48-1.47ZM89.44,327.83,88,326.35l-4.91,4.91,1.47,1.47Zm-4.91,93.26,4.91-4.91L88,414.71l-4.91,4.9Zm-1.47,9.81L88,435.81l1.47-1.47-4.91-4.91Zm78.53-207.62-4.9,4.9,1.47,1.48,4.91-4.91Zm16.2,4.9-4.91-4.9-1.47,1.47,4.91,4.91Zm-12-.73-4.91,4.91,1.47,1.47,4.91-4.91ZM220.5,46.57l-4.91,4.91L217.06,53,222,48Zm14.72,279.78-4.91,4.91,1.47,1.47,4.91-4.9ZM246.51,82.4l4.91-4.91L250,76,245,80.93ZM163.07,242.91,158.16,238l-1.47,1.47,4.9,4.91Zm2.7-179.41L167.24,62l-4.91-4.91-1.47,1.48Zm-4.18-16.93-4.9,4.91L158.16,53,163.07,48ZM198.16,63.5l4.91-4.9-1.47-1.48L196.69,62ZM176.32,31.85l-4.91,4.9,1.47,1.48,4.91-4.91Zm66,46.38,4.91-4.91-1.48-1.47-4.91,4.91ZM176.32,238l-4.91,4.91,1.47,1.47,4.91-4.91Zm-2.7-5.64-4.91-4.91-1.47,1.47,4.91,4.91Zm83.44-80.5L262,147l-1.47-1.47-4.91,4.9Zm6.88,186.52,4.9,4.91,1.48-1.48-4.91-4.9Zm-4.18,4.17,4.91,4.91,1.47-1.47-4.91-4.91ZM70.54,161.67l-1.47-1.47-4.91,4.91,1.47,1.47ZM271.79,330.53,270.31,332l4.91,4.91,1.48-1.48ZM249.21,147l4.91,4.91,1.47-1.48-4.91-4.9ZM276,326.35l-1.47,1.48,4.91,4.9,1.47-1.47ZM257.06,63.5,262,58.6l-1.47-1.48L255.59,62Zm-2.94,0L255.59,62l-4.91-4.91-1.47,1.48Zm32.39,0,4.91-4.9L290,57.12,285,62Zm-117.8,0,4.91-4.9-1.47-1.48L167.24,62ZM13.6,202.91l1.48,1.47,4.9-4.91L18.51,198ZM245,151.12,250,156l1.47-1.47-4.91-4.91Zm2.21,243.21-4.91-4.9-1.48,1.47,4.91,4.91Zm-69.46-77.79-4.91-4.91-1.47,1.47,4.91,4.91Zm-14.72-3.44-1.48-1.47-4.9,4.91,1.47,1.47Zm9.81,19.63,4.91-4.9-1.47-1.48-4.91,4.91ZM77.41,315.8l-4.9,4.91L74,322.18l4.91-4.91Zm91.3,12.76,4.91-4.91-1.47-1.47-4.91,4.91Zm-2.94,0,1.47-1.47-4.91-4.91-1.47,1.47ZM151,313.84l1.47-1.48-4.91-4.91-1.47,1.48Zm7.85-7.86-4.9-4.9-1.48,1.47,4.91,4.91ZM173.62,55.65l-4.91-4.91-1.47,1.48,4.91,4.9ZM231.78,400l-1.47,1.47,4.91,4.91,1.47-1.47Zm19.64-9.82-4.91-4.91L245,386.73l4.91,4.91ZM165.77,139.1l-4.91,4.9,1.47,1.48,4.91-4.91Zm-2.7,162.71-4.91-4.91-1.47,1.47,4.9,4.91ZM129.44,73.32,128,71.85l-4.91,4.91,1.47,1.47Zm-12.76,0,4.91,4.91,1.47-1.47-4.91-4.91ZM72.51,114.55,74,116l4.91-4.91-1.48-1.47Zm29.45,0,1.47,1.48,4.91-4.91-1.48-1.47ZM176.32,53l1.47-1.47-4.91-4.91L171.41,48Zm1.47,86.88-4.91-4.91-1.47,1.48,4.91,4.9ZM161.59,156l1.48-1.47-4.91-4.91-1.47,1.47Zm4.18-4.17,1.47-1.48-4.91-4.9L160.86,147ZM18.51,269.66,20,268.19l-4.9-4.91-1.48,1.47ZM173.62,144l-4.91-4.9-1.47,1.47,4.91,4.91Zm-4.91,7.86,4.91-4.91-1.47-1.47-4.91,4.9Zm4.17,4.17,4.91-4.91-1.47-1.47-4.91,4.91Z"/></g></g></svg>